%
M48
M72
T01C0.0240
T02C0.0276
T03C0.0315
T04C0.0320
T05C0.0354
T06C0.0394
T07C0.0400
T08C0.0433
T09C0.0500
T10C0.0551
T11C0.1260
%
T01
X17872Y13896
X17872Y15896
T02
X19184Y15958
X17309Y12396
X17934Y10396
X18934Y10396
X20434Y7771
X21747Y11458
X23184Y12146
X23247Y15208
X23247Y17083
X22684Y22208
X22684Y22833
X21716Y22208
X20684Y23990
X21747Y24521
X23684Y23396
X25184Y22646
X23184Y26896
X23778Y27396
X24309Y28677
X25372Y29208
X26872Y29896
X27059Y31396
X27059Y32021
X27059Y32646
X27059Y33271
X25684Y31271
X25059Y33396
X25059Y36708
X25934Y38646
X23434Y39896
X19997Y35521
X19684Y36208
X18434Y34833
X17809Y35521
X16997Y36833
X16997Y38646
X15247Y36958
X15497Y35708
X16747Y34458
X17809Y34021
X16809Y31896
X17809Y30896
X17934Y29833
X18747Y29646
X19934Y28583
X21184Y28583
X21747Y27396
X22684Y28021
X22184Y29146
X21184Y30146
X22184Y34021
X18809Y40646
X13466Y38490
X10278Y35333
X14247Y30271
X12903Y29146
X12997Y28458
X15247Y23771
X15184Y22958
X16434Y24396
X16872Y22083
X18309Y21521
X18872Y20896
X16747Y20396
X14809Y16708
X14434Y14771
X14434Y14146
X14934Y13208
X14559Y12646
X12809Y13583
X12559Y12083
X11809Y12083
X11372Y16771
X12184Y18146
X12809Y17146
X13184Y20208
X12934Y21833
X12434Y22958
X17247Y7833
X11966Y7271
X27872Y15833
T03
X27684Y19427
X26684Y19427
X25684Y19427
X24684Y19427
X23684Y19427
X22684Y19427
X21684Y19427
X20684Y19427
X19684Y19427
X18684Y19427
X17684Y19427
X16684Y19427
X15684Y19427
X14684Y19427
X13684Y19427
X12684Y19427
X11684Y19427
X10684Y19427
X9684Y19427
X9684Y25427
X10684Y25427
X11684Y25427
X12684Y25427
X13684Y25427
X14684Y25427
X15684Y25427
X16684Y25427
X17684Y25427
X18684Y25427
X19684Y25427
X20684Y25427
X21684Y25427
X22684Y25427
X23684Y25427
X24684Y25427
X25684Y25427
X26684Y25427
X27684Y25427
X28684Y25427
X28684Y19427
X12184Y31833
X12184Y32833
X12184Y33833
X11184Y33833
X11184Y32833
X11184Y31833
T04
X14384Y37958
X16984Y37958
X21059Y13771
X22434Y13771
X22434Y10458
X21059Y10458
T05
X28572Y35196
X28572Y38346
T06
X11589Y15513
X11589Y14529
X10809Y14529
X10809Y15513
T07
X9184Y8333
X10184Y6896
X11184Y6896
X17309Y11146
X19497Y13771
X23966Y9052
X23184Y6896
X25184Y6896
X27184Y6896
X24809Y13021
X20184Y6896
X11372Y17896
X11184Y21396
X11528Y23490
X13122Y27083
X15184Y30396
X15184Y31396
X15184Y32396
X15184Y33396
X11559Y30708
X15934Y28021
X16934Y28021
X17934Y28021
X18934Y28021
X19684Y31021
X19684Y32021
X19684Y33021
X19684Y34021
X22184Y37677
X22184Y38677
X22184Y39677
X22184Y40677
X21809Y42021
X20809Y42021
X19809Y42021
X17934Y42021
X16934Y42021
X15934Y42021
X14934Y42021
X13934Y42021
X12934Y42021
X22809Y42021
X23809Y42021
X24809Y42021
X27747Y30396
X27184Y23896
X27184Y22896
X27184Y21896
X27184Y20896
X28372Y20896
X28372Y21896
X28372Y22896
X28372Y23896
X14309Y22646
T08
X11184Y22396
X11184Y24396
X11184Y20396
X22209Y17596
X24184Y15846
X26159Y17596
T09
X26184Y6896
X28184Y6896
X24184Y6896
X22184Y6896
T10
X24184Y17583
X9739Y17391
X9739Y12651
T11
X9984Y10271
X9984Y28271
X9984Y42021
X27734Y42021
X27734Y28271
X27734Y10271
M30
