G75*
G70*
%OFA0B0*%
%FSLAX24Y24*%
%IPPOS*%
%LPD*%
%AMOC8*
5,1,8,0,0,1.08239X$1,22.5*
%
%ADD10C,0.0000*%
%ADD11C,0.0030*%
%ADD12C,0.0050*%
%ADD13C,0.0040*%
%ADD14C,0.0160*%
%ADD15C,0.0060*%
%ADD16C,0.0020*%
%ADD17C,0.0080*%
%ADD18R,0.0140X0.0500*%
D10*
X008434Y005521D02*
X008434Y043641D01*
X029426Y043641D01*
X029426Y033083D01*
X028684Y033083D01*
X028684Y030021D01*
X029434Y030021D01*
X029426Y005521D01*
X008434Y005521D01*
X009354Y010271D02*
X009356Y010321D01*
X009362Y010371D01*
X009372Y010420D01*
X009386Y010468D01*
X009403Y010515D01*
X009424Y010560D01*
X009449Y010604D01*
X009477Y010645D01*
X009509Y010684D01*
X009543Y010721D01*
X009580Y010755D01*
X009620Y010785D01*
X009662Y010812D01*
X009706Y010836D01*
X009752Y010857D01*
X009799Y010873D01*
X009847Y010886D01*
X009897Y010895D01*
X009946Y010900D01*
X009997Y010901D01*
X010047Y010898D01*
X010096Y010891D01*
X010145Y010880D01*
X010193Y010865D01*
X010239Y010847D01*
X010284Y010825D01*
X010327Y010799D01*
X010368Y010770D01*
X010407Y010738D01*
X010443Y010703D01*
X010475Y010665D01*
X010505Y010625D01*
X010532Y010582D01*
X010555Y010538D01*
X010574Y010492D01*
X010590Y010444D01*
X010602Y010395D01*
X010610Y010346D01*
X010614Y010296D01*
X010614Y010246D01*
X010610Y010196D01*
X010602Y010147D01*
X010590Y010098D01*
X010574Y010050D01*
X010555Y010004D01*
X010532Y009960D01*
X010505Y009917D01*
X010475Y009877D01*
X010443Y009839D01*
X010407Y009804D01*
X010368Y009772D01*
X010327Y009743D01*
X010284Y009717D01*
X010239Y009695D01*
X010193Y009677D01*
X010145Y009662D01*
X010096Y009651D01*
X010047Y009644D01*
X009997Y009641D01*
X009946Y009642D01*
X009897Y009647D01*
X009847Y009656D01*
X009799Y009669D01*
X009752Y009685D01*
X009706Y009706D01*
X009662Y009730D01*
X009620Y009757D01*
X009580Y009787D01*
X009543Y009821D01*
X009509Y009858D01*
X009477Y009897D01*
X009449Y009938D01*
X009424Y009982D01*
X009403Y010027D01*
X009386Y010074D01*
X009372Y010122D01*
X009362Y010171D01*
X009356Y010221D01*
X009354Y010271D01*
X009354Y028271D02*
X009356Y028321D01*
X009362Y028371D01*
X009372Y028420D01*
X009386Y028468D01*
X009403Y028515D01*
X009424Y028560D01*
X009449Y028604D01*
X009477Y028645D01*
X009509Y028684D01*
X009543Y028721D01*
X009580Y028755D01*
X009620Y028785D01*
X009662Y028812D01*
X009706Y028836D01*
X009752Y028857D01*
X009799Y028873D01*
X009847Y028886D01*
X009897Y028895D01*
X009946Y028900D01*
X009997Y028901D01*
X010047Y028898D01*
X010096Y028891D01*
X010145Y028880D01*
X010193Y028865D01*
X010239Y028847D01*
X010284Y028825D01*
X010327Y028799D01*
X010368Y028770D01*
X010407Y028738D01*
X010443Y028703D01*
X010475Y028665D01*
X010505Y028625D01*
X010532Y028582D01*
X010555Y028538D01*
X010574Y028492D01*
X010590Y028444D01*
X010602Y028395D01*
X010610Y028346D01*
X010614Y028296D01*
X010614Y028246D01*
X010610Y028196D01*
X010602Y028147D01*
X010590Y028098D01*
X010574Y028050D01*
X010555Y028004D01*
X010532Y027960D01*
X010505Y027917D01*
X010475Y027877D01*
X010443Y027839D01*
X010407Y027804D01*
X010368Y027772D01*
X010327Y027743D01*
X010284Y027717D01*
X010239Y027695D01*
X010193Y027677D01*
X010145Y027662D01*
X010096Y027651D01*
X010047Y027644D01*
X009997Y027641D01*
X009946Y027642D01*
X009897Y027647D01*
X009847Y027656D01*
X009799Y027669D01*
X009752Y027685D01*
X009706Y027706D01*
X009662Y027730D01*
X009620Y027757D01*
X009580Y027787D01*
X009543Y027821D01*
X009509Y027858D01*
X009477Y027897D01*
X009449Y027938D01*
X009424Y027982D01*
X009403Y028027D01*
X009386Y028074D01*
X009372Y028122D01*
X009362Y028171D01*
X009356Y028221D01*
X009354Y028271D01*
X009354Y042021D02*
X009356Y042071D01*
X009362Y042121D01*
X009372Y042170D01*
X009386Y042218D01*
X009403Y042265D01*
X009424Y042310D01*
X009449Y042354D01*
X009477Y042395D01*
X009509Y042434D01*
X009543Y042471D01*
X009580Y042505D01*
X009620Y042535D01*
X009662Y042562D01*
X009706Y042586D01*
X009752Y042607D01*
X009799Y042623D01*
X009847Y042636D01*
X009897Y042645D01*
X009946Y042650D01*
X009997Y042651D01*
X010047Y042648D01*
X010096Y042641D01*
X010145Y042630D01*
X010193Y042615D01*
X010239Y042597D01*
X010284Y042575D01*
X010327Y042549D01*
X010368Y042520D01*
X010407Y042488D01*
X010443Y042453D01*
X010475Y042415D01*
X010505Y042375D01*
X010532Y042332D01*
X010555Y042288D01*
X010574Y042242D01*
X010590Y042194D01*
X010602Y042145D01*
X010610Y042096D01*
X010614Y042046D01*
X010614Y041996D01*
X010610Y041946D01*
X010602Y041897D01*
X010590Y041848D01*
X010574Y041800D01*
X010555Y041754D01*
X010532Y041710D01*
X010505Y041667D01*
X010475Y041627D01*
X010443Y041589D01*
X010407Y041554D01*
X010368Y041522D01*
X010327Y041493D01*
X010284Y041467D01*
X010239Y041445D01*
X010193Y041427D01*
X010145Y041412D01*
X010096Y041401D01*
X010047Y041394D01*
X009997Y041391D01*
X009946Y041392D01*
X009897Y041397D01*
X009847Y041406D01*
X009799Y041419D01*
X009752Y041435D01*
X009706Y041456D01*
X009662Y041480D01*
X009620Y041507D01*
X009580Y041537D01*
X009543Y041571D01*
X009509Y041608D01*
X009477Y041647D01*
X009449Y041688D01*
X009424Y041732D01*
X009403Y041777D01*
X009386Y041824D01*
X009372Y041872D01*
X009362Y041921D01*
X009356Y041971D01*
X009354Y042021D01*
X027104Y042021D02*
X027106Y042071D01*
X027112Y042121D01*
X027122Y042170D01*
X027136Y042218D01*
X027153Y042265D01*
X027174Y042310D01*
X027199Y042354D01*
X027227Y042395D01*
X027259Y042434D01*
X027293Y042471D01*
X027330Y042505D01*
X027370Y042535D01*
X027412Y042562D01*
X027456Y042586D01*
X027502Y042607D01*
X027549Y042623D01*
X027597Y042636D01*
X027647Y042645D01*
X027696Y042650D01*
X027747Y042651D01*
X027797Y042648D01*
X027846Y042641D01*
X027895Y042630D01*
X027943Y042615D01*
X027989Y042597D01*
X028034Y042575D01*
X028077Y042549D01*
X028118Y042520D01*
X028157Y042488D01*
X028193Y042453D01*
X028225Y042415D01*
X028255Y042375D01*
X028282Y042332D01*
X028305Y042288D01*
X028324Y042242D01*
X028340Y042194D01*
X028352Y042145D01*
X028360Y042096D01*
X028364Y042046D01*
X028364Y041996D01*
X028360Y041946D01*
X028352Y041897D01*
X028340Y041848D01*
X028324Y041800D01*
X028305Y041754D01*
X028282Y041710D01*
X028255Y041667D01*
X028225Y041627D01*
X028193Y041589D01*
X028157Y041554D01*
X028118Y041522D01*
X028077Y041493D01*
X028034Y041467D01*
X027989Y041445D01*
X027943Y041427D01*
X027895Y041412D01*
X027846Y041401D01*
X027797Y041394D01*
X027747Y041391D01*
X027696Y041392D01*
X027647Y041397D01*
X027597Y041406D01*
X027549Y041419D01*
X027502Y041435D01*
X027456Y041456D01*
X027412Y041480D01*
X027370Y041507D01*
X027330Y041537D01*
X027293Y041571D01*
X027259Y041608D01*
X027227Y041647D01*
X027199Y041688D01*
X027174Y041732D01*
X027153Y041777D01*
X027136Y041824D01*
X027122Y041872D01*
X027112Y041921D01*
X027106Y041971D01*
X027104Y042021D01*
X028395Y038346D02*
X028397Y038372D01*
X028403Y038398D01*
X028413Y038423D01*
X028426Y038446D01*
X028442Y038466D01*
X028462Y038484D01*
X028484Y038499D01*
X028507Y038511D01*
X028533Y038519D01*
X028559Y038523D01*
X028585Y038523D01*
X028611Y038519D01*
X028637Y038511D01*
X028661Y038499D01*
X028682Y038484D01*
X028702Y038466D01*
X028718Y038446D01*
X028731Y038423D01*
X028741Y038398D01*
X028747Y038372D01*
X028749Y038346D01*
X028747Y038320D01*
X028741Y038294D01*
X028731Y038269D01*
X028718Y038246D01*
X028702Y038226D01*
X028682Y038208D01*
X028660Y038193D01*
X028637Y038181D01*
X028611Y038173D01*
X028585Y038169D01*
X028559Y038169D01*
X028533Y038173D01*
X028507Y038181D01*
X028483Y038193D01*
X028462Y038208D01*
X028442Y038226D01*
X028426Y038246D01*
X028413Y038269D01*
X028403Y038294D01*
X028397Y038320D01*
X028395Y038346D01*
X028395Y035196D02*
X028397Y035222D01*
X028403Y035248D01*
X028413Y035273D01*
X028426Y035296D01*
X028442Y035316D01*
X028462Y035334D01*
X028484Y035349D01*
X028507Y035361D01*
X028533Y035369D01*
X028559Y035373D01*
X028585Y035373D01*
X028611Y035369D01*
X028637Y035361D01*
X028661Y035349D01*
X028682Y035334D01*
X028702Y035316D01*
X028718Y035296D01*
X028731Y035273D01*
X028741Y035248D01*
X028747Y035222D01*
X028749Y035196D01*
X028747Y035170D01*
X028741Y035144D01*
X028731Y035119D01*
X028718Y035096D01*
X028702Y035076D01*
X028682Y035058D01*
X028660Y035043D01*
X028637Y035031D01*
X028611Y035023D01*
X028585Y035019D01*
X028559Y035019D01*
X028533Y035023D01*
X028507Y035031D01*
X028483Y035043D01*
X028462Y035058D01*
X028442Y035076D01*
X028426Y035096D01*
X028413Y035119D01*
X028403Y035144D01*
X028397Y035170D01*
X028395Y035196D01*
X027104Y028271D02*
X027106Y028321D01*
X027112Y028371D01*
X027122Y028420D01*
X027136Y028468D01*
X027153Y028515D01*
X027174Y028560D01*
X027199Y028604D01*
X027227Y028645D01*
X027259Y028684D01*
X027293Y028721D01*
X027330Y028755D01*
X027370Y028785D01*
X027412Y028812D01*
X027456Y028836D01*
X027502Y028857D01*
X027549Y028873D01*
X027597Y028886D01*
X027647Y028895D01*
X027696Y028900D01*
X027747Y028901D01*
X027797Y028898D01*
X027846Y028891D01*
X027895Y028880D01*
X027943Y028865D01*
X027989Y028847D01*
X028034Y028825D01*
X028077Y028799D01*
X028118Y028770D01*
X028157Y028738D01*
X028193Y028703D01*
X028225Y028665D01*
X028255Y028625D01*
X028282Y028582D01*
X028305Y028538D01*
X028324Y028492D01*
X028340Y028444D01*
X028352Y028395D01*
X028360Y028346D01*
X028364Y028296D01*
X028364Y028246D01*
X028360Y028196D01*
X028352Y028147D01*
X028340Y028098D01*
X028324Y028050D01*
X028305Y028004D01*
X028282Y027960D01*
X028255Y027917D01*
X028225Y027877D01*
X028193Y027839D01*
X028157Y027804D01*
X028118Y027772D01*
X028077Y027743D01*
X028034Y027717D01*
X027989Y027695D01*
X027943Y027677D01*
X027895Y027662D01*
X027846Y027651D01*
X027797Y027644D01*
X027747Y027641D01*
X027696Y027642D01*
X027647Y027647D01*
X027597Y027656D01*
X027549Y027669D01*
X027502Y027685D01*
X027456Y027706D01*
X027412Y027730D01*
X027370Y027757D01*
X027330Y027787D01*
X027293Y027821D01*
X027259Y027858D01*
X027227Y027897D01*
X027199Y027938D01*
X027174Y027982D01*
X027153Y028027D01*
X027136Y028074D01*
X027122Y028122D01*
X027112Y028171D01*
X027106Y028221D01*
X027104Y028271D01*
X027104Y010271D02*
X027106Y010321D01*
X027112Y010371D01*
X027122Y010420D01*
X027136Y010468D01*
X027153Y010515D01*
X027174Y010560D01*
X027199Y010604D01*
X027227Y010645D01*
X027259Y010684D01*
X027293Y010721D01*
X027330Y010755D01*
X027370Y010785D01*
X027412Y010812D01*
X027456Y010836D01*
X027502Y010857D01*
X027549Y010873D01*
X027597Y010886D01*
X027647Y010895D01*
X027696Y010900D01*
X027747Y010901D01*
X027797Y010898D01*
X027846Y010891D01*
X027895Y010880D01*
X027943Y010865D01*
X027989Y010847D01*
X028034Y010825D01*
X028077Y010799D01*
X028118Y010770D01*
X028157Y010738D01*
X028193Y010703D01*
X028225Y010665D01*
X028255Y010625D01*
X028282Y010582D01*
X028305Y010538D01*
X028324Y010492D01*
X028340Y010444D01*
X028352Y010395D01*
X028360Y010346D01*
X028364Y010296D01*
X028364Y010246D01*
X028360Y010196D01*
X028352Y010147D01*
X028340Y010098D01*
X028324Y010050D01*
X028305Y010004D01*
X028282Y009960D01*
X028255Y009917D01*
X028225Y009877D01*
X028193Y009839D01*
X028157Y009804D01*
X028118Y009772D01*
X028077Y009743D01*
X028034Y009717D01*
X027989Y009695D01*
X027943Y009677D01*
X027895Y009662D01*
X027846Y009651D01*
X027797Y009644D01*
X027747Y009641D01*
X027696Y009642D01*
X027647Y009647D01*
X027597Y009656D01*
X027549Y009669D01*
X027502Y009685D01*
X027456Y009706D01*
X027412Y009730D01*
X027370Y009757D01*
X027330Y009787D01*
X027293Y009821D01*
X027259Y009858D01*
X027227Y009897D01*
X027199Y009938D01*
X027174Y009982D01*
X027153Y010027D01*
X027136Y010074D01*
X027122Y010122D01*
X027112Y010171D01*
X027106Y010221D01*
X027104Y010271D01*
D11*
X025567Y006319D02*
X025616Y006270D01*
X025616Y006222D01*
X025567Y006173D01*
X025471Y006173D01*
X025422Y006125D01*
X025422Y006077D01*
X025471Y006028D01*
X025567Y006028D01*
X025616Y006077D01*
X025567Y006319D02*
X025471Y006319D01*
X025422Y006270D01*
X025321Y006319D02*
X025176Y006319D01*
X025128Y006270D01*
X025128Y006077D01*
X025176Y006028D01*
X025321Y006028D01*
X025321Y006319D01*
X025026Y006222D02*
X024930Y006319D01*
X024833Y006222D01*
X024833Y006028D01*
X024833Y006173D02*
X025026Y006173D01*
X025026Y006222D02*
X025026Y006028D01*
X024294Y006014D02*
X024294Y005723D01*
X024149Y005723D01*
X024101Y005772D01*
X024101Y005820D01*
X024149Y005868D01*
X024294Y005868D01*
X024149Y005868D02*
X024101Y005917D01*
X024101Y005965D01*
X024149Y006014D01*
X024294Y006014D01*
X023585Y006077D02*
X023536Y006028D01*
X023439Y006028D01*
X023391Y006077D01*
X023391Y006125D01*
X023439Y006173D01*
X023536Y006173D01*
X023585Y006222D01*
X023585Y006270D01*
X023536Y006319D01*
X023439Y006319D01*
X023391Y006270D01*
X023290Y006270D02*
X023290Y006077D01*
X023241Y006028D01*
X023145Y006028D01*
X023096Y006077D01*
X022995Y006028D02*
X022802Y006028D01*
X022732Y005868D02*
X022538Y005868D01*
X022437Y005868D02*
X022292Y005868D01*
X022244Y005820D01*
X022244Y005772D01*
X022292Y005723D01*
X022437Y005723D01*
X022437Y006014D01*
X022292Y006014D01*
X022244Y005965D01*
X022244Y005917D01*
X022292Y005868D01*
X022143Y005868D02*
X021949Y005868D01*
X021949Y005917D02*
X021949Y005723D01*
X022143Y005723D02*
X022143Y005917D01*
X022046Y006014D01*
X021949Y005917D01*
X021848Y006014D02*
X021654Y006014D01*
X021751Y006014D02*
X021751Y005723D01*
X022635Y005772D02*
X022635Y005965D01*
X022995Y006028D02*
X022995Y006319D01*
X023096Y006270D02*
X023145Y006319D01*
X023241Y006319D01*
X023290Y006270D01*
X020544Y006028D02*
X020496Y006076D01*
X020399Y006076D01*
X020351Y006028D01*
X020351Y005979D01*
X020399Y005931D01*
X020351Y005883D01*
X020351Y005834D01*
X020399Y005786D01*
X020496Y005786D01*
X020544Y005834D01*
X020448Y005931D02*
X020399Y005931D01*
X020250Y005883D02*
X020153Y005786D01*
X020056Y005883D01*
X020056Y006076D01*
X019955Y006028D02*
X019907Y006076D01*
X019810Y006076D01*
X019762Y006028D01*
X019762Y005979D01*
X019810Y005931D01*
X019762Y005883D01*
X019762Y005834D01*
X019810Y005786D01*
X019907Y005786D01*
X019955Y005834D01*
X019858Y005931D02*
X019810Y005931D01*
X020250Y005883D02*
X020250Y006076D01*
X026101Y005917D02*
X026101Y005723D01*
X026101Y005868D02*
X026294Y005868D01*
X026294Y005917D02*
X026198Y006014D01*
X026101Y005917D01*
X026294Y005917D02*
X026294Y005723D01*
X027887Y005772D02*
X027887Y005965D01*
X027935Y006014D01*
X028080Y006014D01*
X028080Y005723D01*
X027935Y005723D01*
X027887Y005772D01*
X028181Y005723D02*
X028181Y006014D01*
X028375Y006014D02*
X028181Y005723D01*
X028375Y005723D02*
X028375Y006014D01*
X028476Y005965D02*
X028524Y006014D01*
X028621Y006014D01*
X028669Y005965D01*
X028669Y005772D01*
X028621Y005723D01*
X028524Y005723D01*
X028476Y005772D01*
X028476Y005868D01*
X028573Y005868D01*
X026027Y029317D02*
X025930Y029317D01*
X025882Y029365D01*
X025882Y029462D01*
X025979Y029462D01*
X026076Y029365D02*
X026027Y029317D01*
X026076Y029365D02*
X026076Y029559D01*
X026027Y029607D01*
X025930Y029607D01*
X025882Y029559D01*
X026837Y030723D02*
X026788Y030772D01*
X026788Y030965D01*
X026837Y031014D01*
X026982Y031014D01*
X026982Y030723D01*
X026837Y030723D01*
X026263Y031240D02*
X026215Y031192D01*
X026118Y031192D01*
X026070Y031240D01*
X026070Y031289D01*
X026118Y031337D01*
X026215Y031337D01*
X026263Y031386D01*
X026263Y031434D01*
X026215Y031482D01*
X026118Y031482D01*
X026070Y031434D01*
X024482Y033230D02*
X024112Y033230D01*
X024297Y033230D02*
X024359Y033292D01*
X024359Y033415D01*
X024297Y033477D01*
X024112Y033477D01*
X024174Y033660D02*
X024112Y033722D01*
X024174Y033660D02*
X024420Y033660D01*
X024359Y033598D02*
X024359Y033722D01*
X024359Y033844D02*
X024359Y033967D01*
X024420Y033905D02*
X024174Y033905D01*
X024112Y033967D01*
X024112Y034089D02*
X024112Y034274D01*
X024174Y034336D01*
X024297Y034336D01*
X024359Y034274D01*
X024359Y034089D01*
X023988Y034089D01*
X024112Y034458D02*
X024174Y034458D01*
X024174Y034519D01*
X024112Y034519D01*
X024112Y034458D01*
X024112Y034642D02*
X024482Y034889D01*
X024482Y035257D02*
X024112Y035010D01*
X024112Y035378D02*
X024112Y035563D01*
X024174Y035625D01*
X024235Y035563D01*
X024235Y035440D01*
X024297Y035378D01*
X024359Y035440D01*
X024359Y035625D01*
X024297Y035747D02*
X024174Y035747D01*
X024112Y035808D01*
X024112Y035994D01*
X024112Y036115D02*
X024359Y036115D01*
X024359Y036177D01*
X024297Y036238D01*
X024359Y036300D01*
X024297Y036362D01*
X024112Y036362D01*
X024112Y036483D02*
X024112Y036545D01*
X024174Y036545D01*
X024174Y036483D01*
X024112Y036483D01*
X024174Y036667D02*
X024235Y036729D01*
X024235Y036914D01*
X024297Y036914D02*
X024112Y036914D01*
X024112Y036729D01*
X024174Y036667D01*
X024359Y036729D02*
X024359Y036853D01*
X024297Y036914D01*
X024297Y037036D02*
X024359Y037097D01*
X024359Y037283D01*
X024359Y037404D02*
X024359Y037527D01*
X024420Y037466D02*
X024174Y037466D01*
X024112Y037527D01*
X024112Y037650D02*
X024359Y037650D01*
X024359Y037773D02*
X024359Y037835D01*
X024359Y037773D02*
X024235Y037650D01*
X024174Y037957D02*
X024112Y038018D01*
X024112Y038142D01*
X024174Y038203D01*
X024297Y038203D01*
X024359Y038142D01*
X024359Y038018D01*
X024297Y037957D01*
X024174Y037957D01*
X024112Y038325D02*
X024359Y038325D01*
X024359Y038387D01*
X024297Y038448D01*
X024359Y038510D01*
X024297Y038572D01*
X024112Y038572D01*
X024112Y038693D02*
X024112Y038817D01*
X024112Y038755D02*
X024359Y038755D01*
X024359Y038693D01*
X024482Y038755D02*
X024544Y038755D01*
X024482Y038939D02*
X024112Y038939D01*
X024235Y038939D02*
X024112Y039124D01*
X024112Y039246D02*
X024112Y039307D01*
X024174Y039307D01*
X024174Y039246D01*
X024112Y039246D01*
X024174Y039430D02*
X024112Y039491D01*
X024112Y039615D01*
X024174Y039677D01*
X024297Y039677D01*
X024359Y039615D01*
X024359Y039491D01*
X024297Y039430D01*
X024174Y039430D01*
X024359Y039124D02*
X024235Y038939D01*
X024297Y038448D02*
X024112Y038448D01*
X024112Y039798D02*
X024359Y039798D01*
X024235Y039798D02*
X024359Y039922D01*
X024359Y039983D01*
X024297Y040105D02*
X024174Y040105D01*
X024112Y040167D01*
X024112Y040352D01*
X024050Y040352D02*
X024359Y040352D01*
X024359Y040167D01*
X024297Y040105D01*
X023988Y040228D02*
X023988Y040290D01*
X024050Y040352D01*
X024174Y037283D02*
X024235Y037221D01*
X024235Y037097D01*
X024297Y037036D01*
X024112Y037036D02*
X024112Y037221D01*
X024174Y037283D01*
X024112Y036238D02*
X024297Y036238D01*
X024359Y035994D02*
X024359Y035808D01*
X024297Y035747D01*
X024359Y035994D02*
X023988Y035994D01*
X024297Y034519D02*
X024297Y034458D01*
X024359Y034458D01*
X024359Y034519D01*
X024297Y034519D01*
X014982Y039286D02*
X014837Y039286D01*
X014788Y039334D01*
X014788Y039528D01*
X014837Y039576D01*
X014982Y039576D01*
X014982Y039286D01*
X012888Y039184D02*
X012888Y038990D01*
X012840Y038942D01*
X012743Y038942D01*
X012695Y038990D01*
X012695Y039087D01*
X012791Y039087D01*
X012695Y039184D02*
X012743Y039232D01*
X012840Y039232D01*
X012888Y039184D01*
X012840Y039692D02*
X012888Y039740D01*
X012840Y039692D02*
X012743Y039692D01*
X012695Y039740D01*
X012695Y039789D01*
X012743Y039837D01*
X012840Y039837D01*
X012888Y039886D01*
X012888Y039934D01*
X012840Y039982D01*
X012743Y039982D01*
X012695Y039934D01*
X012747Y034014D02*
X012699Y033965D01*
X012699Y033917D01*
X012747Y033868D01*
X012699Y033820D01*
X012699Y033772D01*
X012747Y033723D01*
X012844Y033723D01*
X012893Y033772D01*
X012994Y033820D02*
X012994Y034014D01*
X012893Y033965D02*
X012844Y034014D01*
X012747Y034014D01*
X012747Y033868D02*
X012796Y033868D01*
X012994Y033820D02*
X013090Y033723D01*
X013187Y033820D01*
X013187Y034014D01*
X013288Y033965D02*
X013288Y033917D01*
X013337Y033868D01*
X013288Y033820D01*
X013288Y033772D01*
X013337Y033723D01*
X013433Y033723D01*
X013482Y033772D01*
X013385Y033868D02*
X013337Y033868D01*
X013288Y033965D02*
X013337Y034014D01*
X013433Y034014D01*
X013482Y033965D01*
X013433Y032951D02*
X013337Y032951D01*
X013288Y032903D01*
X013187Y032903D02*
X013187Y032709D01*
X013139Y032661D01*
X013042Y032661D01*
X012994Y032709D01*
X012893Y032661D02*
X012699Y032661D01*
X012893Y032661D02*
X012893Y032951D01*
X012994Y032903D02*
X013042Y032951D01*
X013139Y032951D01*
X013187Y032903D01*
X013288Y032758D02*
X013288Y032709D01*
X013337Y032661D01*
X013433Y032661D01*
X013482Y032709D01*
X013433Y032806D02*
X013337Y032806D01*
X013288Y032758D01*
X013433Y032806D02*
X013482Y032854D01*
X013482Y032903D01*
X013433Y032951D01*
X013399Y031951D02*
X013351Y031903D01*
X013351Y031806D01*
X013399Y031758D01*
X013544Y031758D01*
X013448Y031758D02*
X013351Y031661D01*
X013250Y031661D02*
X013105Y031661D01*
X013056Y031709D01*
X013056Y031903D01*
X013105Y031951D01*
X013250Y031951D01*
X013250Y031661D01*
X013544Y031661D02*
X013544Y031951D01*
X013399Y031951D01*
X012955Y031951D02*
X012955Y031903D01*
X012858Y031806D01*
X012858Y031661D01*
X012858Y031806D02*
X012762Y031903D01*
X012762Y031951D01*
X010544Y031965D02*
X010544Y031772D01*
X010496Y031723D01*
X010399Y031723D01*
X010351Y031772D01*
X010351Y031868D01*
X010448Y031868D01*
X010544Y031965D02*
X010496Y032014D01*
X010399Y032014D01*
X010351Y031965D01*
X010250Y032014D02*
X010056Y031723D01*
X010056Y032014D01*
X009955Y032014D02*
X009810Y032014D01*
X009762Y031965D01*
X009762Y031772D01*
X009810Y031723D01*
X009955Y031723D01*
X009955Y032014D01*
X010250Y032014D02*
X010250Y031723D01*
X010250Y032723D02*
X010105Y032723D01*
X010056Y032772D01*
X010056Y032965D01*
X010105Y033014D01*
X010250Y033014D01*
X010250Y032723D01*
X010351Y032772D02*
X010399Y032723D01*
X010496Y032723D01*
X010544Y032772D01*
X010496Y032868D02*
X010399Y032868D01*
X010351Y032820D01*
X010351Y032772D01*
X010496Y032868D02*
X010544Y032917D01*
X010544Y032965D01*
X010496Y033014D01*
X010399Y033014D01*
X010351Y032965D01*
X009955Y032917D02*
X009955Y032723D01*
X009955Y032868D02*
X009762Y032868D01*
X009762Y032917D02*
X009762Y032723D01*
X009762Y032917D02*
X009858Y033014D01*
X009955Y032917D01*
X009949Y033723D02*
X010143Y033723D01*
X010046Y033723D02*
X010046Y034014D01*
X010143Y033917D01*
X010244Y033917D02*
X010292Y033868D01*
X010437Y033868D01*
X010538Y033868D02*
X010587Y033820D01*
X010732Y033820D01*
X010732Y033723D02*
X010732Y034014D01*
X010587Y034014D01*
X010538Y033965D01*
X010538Y033868D01*
X010437Y033723D02*
X010292Y033723D01*
X010244Y033772D01*
X010244Y033820D01*
X010292Y033868D01*
X010244Y033917D02*
X010244Y033965D01*
X010292Y034014D01*
X010437Y034014D01*
X010437Y033723D01*
X009848Y033868D02*
X009654Y033868D01*
X009703Y033723D02*
X009703Y034014D01*
X009848Y033868D01*
X009607Y024576D02*
X009462Y024576D01*
X009413Y024528D01*
X009413Y024334D01*
X009462Y024286D01*
X009607Y024286D01*
X009607Y024576D01*
X009590Y023076D02*
X009638Y023028D01*
X009638Y022979D01*
X009590Y022931D01*
X009493Y022931D01*
X009445Y022883D01*
X009445Y022834D01*
X009493Y022786D01*
X009590Y022786D01*
X009638Y022834D01*
X009590Y023076D02*
X009493Y023076D01*
X009445Y023028D01*
X010257Y023059D02*
X010305Y023107D01*
X010402Y023107D01*
X010451Y023059D01*
X010451Y022865D01*
X010402Y022817D01*
X010305Y022817D01*
X010257Y022865D01*
X010257Y022962D01*
X010354Y022962D01*
D12*
X010036Y021931D02*
X009832Y021931D01*
X009832Y021486D02*
X010036Y021486D01*
X012234Y023390D02*
X012534Y023390D01*
X012534Y023840D01*
X012234Y023840D01*
X012384Y023615D02*
X012534Y023615D01*
X015109Y021708D02*
X015109Y020208D01*
X015159Y020208D01*
X015159Y021708D01*
X015209Y021708D02*
X015209Y021458D01*
X015259Y021458D01*
X015259Y021708D01*
X015309Y021708D02*
X015309Y021458D01*
X015259Y021458D01*
X015309Y021458D02*
X015359Y021458D01*
X015359Y021708D01*
X015309Y021708D01*
X015409Y021708D02*
X015409Y021458D01*
X015359Y021458D01*
X015409Y021458D02*
X015459Y021458D01*
X015459Y021708D01*
X015409Y021708D01*
X015509Y021708D02*
X015509Y021458D01*
X015459Y021458D01*
X015509Y021458D02*
X015559Y021458D01*
X015559Y021708D01*
X015509Y021708D01*
X015609Y021708D02*
X015609Y021458D01*
X015559Y021458D01*
X015609Y021458D02*
X015659Y021458D01*
X015659Y021708D01*
X015609Y021708D01*
X015609Y020458D02*
X015559Y020458D01*
X015559Y020208D01*
X015509Y020208D01*
X015509Y020458D01*
X015459Y020458D01*
X015459Y020208D01*
X015409Y020208D01*
X015409Y020458D01*
X015359Y020458D01*
X015359Y020208D01*
X015309Y020208D01*
X015309Y020458D01*
X015259Y020458D01*
X015259Y020208D01*
X015209Y020208D02*
X015209Y020458D01*
X015259Y020458D01*
X015309Y020458D02*
X015359Y020458D01*
X015409Y020458D02*
X015459Y020458D01*
X015509Y020458D02*
X015559Y020458D01*
X015609Y020458D02*
X015609Y020208D01*
X015659Y020208D01*
X015659Y020458D01*
X015609Y020458D01*
X016770Y020986D02*
X016974Y020986D01*
X016974Y021431D02*
X016770Y021431D01*
X020275Y022419D02*
X020275Y022623D01*
X020719Y022623D02*
X020719Y022419D01*
X023837Y022373D02*
X023837Y022169D01*
X024282Y022169D02*
X024282Y022373D01*
X024864Y023830D02*
X025068Y023830D01*
X025068Y024274D02*
X024864Y024274D01*
X025009Y030602D02*
X023109Y030602D01*
X023109Y031102D01*
X023509Y031502D01*
X025009Y031502D01*
X025009Y030602D01*
X023509Y031502D02*
X023409Y031502D01*
X023409Y031452D01*
X023109Y031152D01*
X023109Y031202D01*
X023359Y031452D01*
X023359Y031502D01*
X023409Y031502D01*
X023359Y031502D02*
X023309Y031502D01*
X023309Y031452D01*
X023109Y031252D01*
X023109Y031302D01*
X023259Y031452D01*
X023259Y031502D01*
X023309Y031502D01*
X023259Y031502D02*
X023209Y031502D01*
X023109Y031402D01*
X023109Y031502D01*
X023209Y031502D01*
X023209Y031452D01*
X023159Y031402D01*
X023109Y031402D02*
X023109Y031302D01*
X023109Y031252D02*
X023109Y031202D01*
X023109Y031152D02*
X023109Y031102D01*
X021957Y034583D02*
X021034Y034583D01*
X021034Y035083D01*
X021957Y035083D01*
X021957Y034583D01*
X021622Y034646D02*
X021622Y035021D01*
X021247Y034833D01*
X021622Y034646D01*
X023375Y037546D02*
X023300Y037621D01*
X023300Y037921D01*
X023375Y037996D01*
X023600Y037996D01*
X023600Y037546D01*
X023375Y037546D01*
X023140Y037846D02*
X023064Y037921D01*
X023064Y038071D01*
X023375Y038546D02*
X023300Y038621D01*
X023375Y038546D02*
X023525Y038546D01*
X023600Y038621D01*
X023600Y038921D01*
X023525Y038996D01*
X023375Y038996D01*
X023300Y038921D01*
X023140Y038846D02*
X023064Y038921D01*
X023064Y039071D01*
X021384Y039346D02*
X021384Y038446D01*
X019484Y038446D01*
X019484Y038946D01*
X019884Y039346D01*
X021384Y039346D01*
X019884Y039346D02*
X019784Y039346D01*
X019784Y039296D01*
X019484Y038996D01*
X019484Y039046D01*
X019734Y039296D01*
X019734Y039346D01*
X019784Y039346D01*
X019734Y039346D02*
X019684Y039346D01*
X019684Y039296D01*
X019484Y039096D01*
X019484Y039146D01*
X019634Y039296D01*
X019634Y039346D01*
X019684Y039346D01*
X019634Y039346D02*
X019584Y039346D01*
X019484Y039246D01*
X019484Y039346D01*
X019584Y039346D01*
X019584Y039296D01*
X019534Y039246D01*
X019484Y039246D02*
X019484Y039146D01*
X019484Y039096D02*
X019484Y039046D01*
X019484Y038996D02*
X019484Y038946D01*
X018375Y039419D02*
X018375Y039623D01*
X017931Y039623D02*
X017931Y039419D01*
X016911Y040674D02*
X016707Y040674D01*
X016707Y041118D02*
X016911Y041118D01*
X013822Y037096D02*
X013822Y035196D01*
X013322Y035196D01*
X012922Y035596D01*
X012922Y037096D01*
X013822Y037096D01*
X013130Y037611D02*
X012926Y037611D01*
X012926Y038056D02*
X013130Y038056D01*
X012922Y035596D02*
X012922Y035496D01*
X012972Y035496D01*
X013272Y035196D01*
X013222Y035196D01*
X012972Y035446D01*
X012922Y035446D01*
X012922Y035496D01*
X012922Y035446D02*
X012922Y035396D01*
X012972Y035396D01*
X013172Y035196D01*
X013122Y035196D01*
X012972Y035346D01*
X012922Y035346D01*
X012922Y035396D01*
X012922Y035346D02*
X012922Y035296D01*
X013022Y035196D01*
X012922Y035196D01*
X012922Y035296D01*
X012972Y035296D01*
X013022Y035246D01*
X013022Y035196D02*
X013122Y035196D01*
X013172Y035196D02*
X013222Y035196D01*
X013272Y035196D02*
X013322Y035196D01*
X014645Y034806D02*
X014849Y034806D01*
X014849Y034361D02*
X014645Y034361D01*
X012850Y031027D02*
X012625Y031027D01*
X012550Y030952D01*
X012550Y030802D01*
X012625Y030727D01*
X012850Y030727D01*
X012850Y030577D02*
X012850Y031027D01*
X012700Y030727D02*
X012550Y030577D01*
X012390Y030877D02*
X012314Y030952D01*
X012314Y031103D01*
X010438Y030748D02*
X010438Y030544D01*
X009993Y030544D02*
X009993Y030748D01*
X009360Y031693D02*
X009360Y031810D01*
X009360Y031751D02*
X009009Y031751D01*
X009009Y031693D02*
X009009Y031810D01*
X009009Y031939D02*
X009243Y032172D01*
X009301Y032172D01*
X009360Y032114D01*
X009360Y031997D01*
X009301Y031939D01*
X009009Y031939D02*
X009009Y032172D01*
X009068Y032307D02*
X009009Y032365D01*
X009009Y032482D01*
X009068Y032541D01*
X009184Y032675D02*
X009184Y032909D01*
X009184Y033044D02*
X009184Y033160D01*
X009009Y033044D02*
X009360Y033044D01*
X009360Y033277D01*
X009360Y033412D02*
X009009Y033645D01*
X009009Y033412D02*
X009360Y033645D01*
X009360Y033780D02*
X009360Y034014D01*
X009360Y033897D02*
X009009Y033897D01*
X009009Y033277D02*
X009009Y033044D01*
X009301Y032541D02*
X009360Y032482D01*
X009360Y032365D01*
X009301Y032307D01*
X009068Y032307D01*
X014212Y015873D02*
X014212Y015669D01*
X014657Y015669D02*
X014657Y015873D01*
X016462Y015623D02*
X016462Y015419D01*
X016907Y015419D02*
X016907Y015623D01*
X016907Y014373D02*
X016907Y014169D01*
X016462Y014169D02*
X016462Y014373D01*
X016584Y011171D02*
X012834Y011171D01*
X012804Y011169D01*
X012774Y011164D01*
X012745Y011155D01*
X012718Y011142D01*
X012692Y011127D01*
X012668Y011108D01*
X012647Y011087D01*
X012628Y011063D01*
X012613Y011037D01*
X012600Y011010D01*
X012591Y010981D01*
X012586Y010951D01*
X012584Y010921D01*
X012584Y009896D01*
X012584Y008146D02*
X012584Y007171D01*
X012586Y007141D01*
X012591Y007111D01*
X012600Y007082D01*
X012613Y007055D01*
X012628Y007029D01*
X012647Y007005D01*
X012668Y006984D01*
X012692Y006965D01*
X012718Y006950D01*
X012745Y006937D01*
X012774Y006928D01*
X012804Y006923D01*
X012834Y006921D01*
X016584Y006921D01*
X016614Y006923D01*
X016644Y006928D01*
X016673Y006937D01*
X016700Y006950D01*
X016726Y006965D01*
X016750Y006984D01*
X016771Y007005D01*
X016790Y007029D01*
X016805Y007055D01*
X016818Y007082D01*
X016827Y007111D01*
X016832Y007141D01*
X016834Y007171D01*
X016834Y008146D01*
X016834Y009921D02*
X016834Y010921D01*
X016832Y010951D01*
X016827Y010981D01*
X016818Y011010D01*
X016805Y011037D01*
X016790Y011063D01*
X016771Y011087D01*
X016750Y011108D01*
X016726Y011127D01*
X016700Y011142D01*
X016673Y011155D01*
X016644Y011164D01*
X016614Y011169D01*
X016584Y011171D01*
X022009Y016946D02*
X022409Y016946D01*
X022286Y016743D02*
X022082Y016743D01*
X022209Y016746D02*
X022209Y017146D01*
X022286Y016299D02*
X022082Y016299D01*
X023984Y016421D02*
X024384Y016421D01*
X024397Y015146D02*
X024447Y015146D01*
X024447Y013896D01*
X024347Y013896D01*
X024297Y013896D01*
X024297Y013646D01*
X024347Y013646D02*
X024347Y013896D01*
X024297Y013896D02*
X024247Y013896D01*
X024247Y013646D01*
X024197Y013646D01*
X024197Y013896D01*
X024247Y013896D01*
X024197Y013896D02*
X024147Y013896D01*
X024147Y013646D01*
X024097Y013646D01*
X024097Y013896D01*
X024147Y013896D01*
X024097Y013896D02*
X024047Y013896D01*
X024047Y013646D01*
X023997Y013646D01*
X023997Y013896D01*
X024047Y013896D01*
X023997Y013896D02*
X023947Y013896D01*
X023947Y013646D01*
X023897Y013646D01*
X023897Y013896D01*
X023947Y013896D01*
X024447Y013896D02*
X024447Y013646D01*
X024397Y013646D02*
X024397Y014896D01*
X024347Y014896D01*
X024297Y014896D01*
X024297Y015146D01*
X024347Y015146D02*
X024347Y014896D01*
X024397Y014896D02*
X024397Y015146D01*
X024247Y015146D02*
X024247Y014896D01*
X024297Y014896D01*
X024247Y014896D02*
X024197Y014896D01*
X024197Y015146D01*
X024247Y015146D01*
X024147Y015146D02*
X024147Y014896D01*
X024197Y014896D01*
X024147Y014896D02*
X024097Y014896D01*
X024097Y015146D01*
X024147Y015146D01*
X024047Y015146D02*
X024047Y014896D01*
X024097Y014896D01*
X024047Y014896D02*
X023997Y014896D01*
X023997Y015146D01*
X024047Y015146D01*
X023947Y015146D02*
X023947Y014896D01*
X023997Y014896D01*
X023947Y014896D02*
X023897Y014896D01*
X023897Y015146D01*
X023947Y015146D01*
X025047Y015146D02*
X025047Y013646D01*
X025097Y013646D02*
X025597Y013646D01*
X025597Y013696D01*
X025097Y013696D01*
X025097Y013646D01*
X025097Y013696D02*
X025097Y013746D01*
X025597Y013746D01*
X025597Y013696D01*
X025597Y013746D02*
X025597Y013796D01*
X025097Y013796D01*
X025097Y013746D01*
X025097Y013796D02*
X025097Y013846D01*
X025597Y013846D01*
X025597Y013796D01*
X025597Y013846D02*
X025597Y013896D01*
X025097Y013896D01*
X025097Y013846D01*
X025097Y013896D02*
X025097Y014896D01*
X025597Y014896D01*
X025597Y014946D01*
X025597Y015096D01*
X025597Y015146D01*
X025097Y015146D01*
X025097Y015096D01*
X025597Y015096D01*
X025597Y015046D02*
X025097Y015046D01*
X025097Y015096D01*
X025097Y015146D02*
X025047Y015146D01*
X025097Y015046D02*
X025097Y014996D01*
X025597Y014996D01*
X025597Y015046D01*
X025597Y014946D02*
X025097Y014946D01*
X025097Y014996D01*
X025097Y014946D02*
X025097Y014896D01*
X026159Y016746D02*
X026159Y017146D01*
X025959Y016946D02*
X026359Y016946D01*
X026772Y014021D02*
X027272Y014021D01*
X027272Y013971D01*
X026772Y013971D01*
X026772Y013921D01*
X027272Y013921D01*
X027272Y013871D01*
X026772Y013871D01*
X026772Y013821D01*
X027272Y013821D01*
X027272Y013771D01*
X026772Y013771D01*
X026772Y013821D01*
X026772Y013871D02*
X026772Y013921D01*
X026772Y013971D02*
X026772Y014021D01*
X027272Y013971D02*
X027272Y013921D01*
X027272Y013871D02*
X027272Y013821D01*
X027272Y013771D02*
X027272Y012771D01*
X026772Y012771D01*
X026772Y012721D01*
X026772Y012571D01*
X026772Y012521D01*
X027272Y012521D01*
X027272Y012571D01*
X026772Y012571D01*
X026772Y012621D02*
X027272Y012621D01*
X027272Y012571D01*
X027272Y012621D02*
X027272Y012671D01*
X026772Y012671D01*
X026772Y012621D01*
X026772Y012721D02*
X027272Y012721D01*
X027272Y012671D01*
X027272Y012721D02*
X027272Y012771D01*
X027272Y012521D02*
X027322Y012521D01*
X027322Y014021D01*
X027922Y014021D02*
X027922Y013771D01*
X028022Y013771D01*
X028072Y013771D01*
X028072Y014021D01*
X028122Y014021D02*
X028122Y013771D01*
X028072Y013771D01*
X028122Y013771D02*
X028172Y013771D01*
X028172Y014021D01*
X028122Y014021D01*
X028222Y014021D02*
X028222Y013771D01*
X028172Y013771D01*
X028222Y013771D02*
X028272Y013771D01*
X028272Y014021D01*
X028222Y014021D01*
X028322Y014021D02*
X028322Y013771D01*
X028272Y013771D01*
X028322Y013771D02*
X028372Y013771D01*
X028372Y014021D01*
X028322Y014021D01*
X028422Y014021D02*
X028422Y013771D01*
X028372Y013771D01*
X028422Y013771D02*
X028472Y013771D01*
X028472Y014021D01*
X028422Y014021D01*
X028022Y014021D02*
X028022Y013771D01*
X027922Y013771D02*
X027922Y012521D01*
X027972Y012521D01*
X027972Y012771D01*
X028022Y012771D01*
X028072Y012771D01*
X028072Y012521D01*
X028122Y012521D02*
X028122Y012771D01*
X028072Y012771D01*
X028122Y012771D02*
X028172Y012771D01*
X028172Y012521D01*
X028122Y012521D01*
X028222Y012521D02*
X028222Y012771D01*
X028172Y012771D01*
X028222Y012771D02*
X028272Y012771D01*
X028272Y012521D01*
X028222Y012521D01*
X028322Y012521D02*
X028322Y012771D01*
X028272Y012771D01*
X028322Y012771D02*
X028372Y012771D01*
X028372Y012521D01*
X028322Y012521D01*
X028422Y012521D02*
X028422Y012771D01*
X028372Y012771D01*
X028422Y012771D02*
X028472Y012771D01*
X028472Y012521D01*
X028422Y012521D01*
X028022Y012521D02*
X028022Y012771D01*
X027972Y012771D02*
X027972Y014021D01*
X025411Y010962D02*
X025207Y010962D01*
X025207Y010517D02*
X025411Y010517D01*
X025497Y009802D02*
X025497Y009177D01*
X025184Y009177D02*
X025184Y009802D01*
X024559Y009802D02*
X024559Y009177D01*
X024022Y009702D02*
X023872Y009702D01*
X023797Y009777D01*
X024022Y009702D02*
X024097Y009777D01*
X024097Y010077D01*
X024022Y010152D01*
X023872Y010152D01*
X023797Y010077D01*
X026122Y009802D02*
X026122Y009177D01*
X027090Y007996D02*
X027316Y007996D01*
X027316Y007546D01*
X027090Y007546D01*
X027015Y007621D01*
X027015Y007921D01*
X027090Y007996D01*
X010753Y007934D02*
X010528Y007934D01*
X010453Y007859D01*
X010453Y007709D01*
X010528Y007633D01*
X010753Y007633D01*
X010753Y007483D02*
X010753Y007934D01*
X010603Y007633D02*
X010453Y007483D01*
X025712Y037294D02*
X025712Y037498D01*
X026157Y037498D02*
X026157Y037294D01*
D13*
X027908Y031390D02*
X027908Y031237D01*
X027985Y031160D01*
X028139Y031314D02*
X028446Y031314D01*
X028446Y030853D01*
X028139Y030853D01*
X028292Y031084D02*
X028446Y031084D01*
X026493Y024156D02*
X026262Y024156D01*
X026186Y024079D01*
X026186Y024003D01*
X026262Y023926D01*
X026493Y023926D01*
X026493Y023696D02*
X026493Y024156D01*
X026262Y023926D02*
X026186Y023849D01*
X026186Y023773D01*
X026262Y023696D01*
X026493Y023696D01*
X026032Y023773D02*
X025955Y023696D01*
X025802Y023696D01*
X025725Y023773D01*
X025725Y023849D01*
X025802Y023926D01*
X025879Y023926D01*
X025802Y023926D02*
X025725Y024003D01*
X025725Y024079D01*
X025802Y024156D01*
X025955Y024156D01*
X026032Y024079D01*
X025802Y023156D02*
X026032Y022926D01*
X025725Y022926D01*
X025802Y022696D02*
X025802Y023156D01*
X026186Y023079D02*
X026186Y023003D01*
X026262Y022926D01*
X026493Y022926D01*
X026493Y022696D02*
X026493Y023156D01*
X026262Y023156D01*
X026186Y023079D01*
X026262Y022926D02*
X026186Y022849D01*
X026186Y022773D01*
X026262Y022696D01*
X026493Y022696D01*
X026493Y022156D02*
X026262Y022156D01*
X026186Y022079D01*
X026186Y022003D01*
X026262Y021926D01*
X026493Y021926D01*
X026493Y021696D02*
X026493Y022156D01*
X026262Y021926D02*
X026186Y021849D01*
X026186Y021773D01*
X026262Y021696D01*
X026493Y021696D01*
X026032Y021773D02*
X025955Y021696D01*
X025802Y021696D01*
X025725Y021773D01*
X025725Y021926D01*
X025802Y022003D01*
X025879Y022003D01*
X026032Y021926D01*
X026032Y022156D01*
X025725Y022156D01*
X025725Y021156D02*
X025879Y021079D01*
X026032Y020926D01*
X025802Y020926D01*
X025725Y020849D01*
X025725Y020773D01*
X025802Y020696D01*
X025955Y020696D01*
X026032Y020773D01*
X026032Y020926D01*
X026186Y020849D02*
X026262Y020926D01*
X026493Y020926D01*
X026493Y020696D02*
X026493Y021156D01*
X026262Y021156D01*
X026186Y021079D01*
X026186Y021003D01*
X026262Y020926D01*
X026186Y020849D02*
X026186Y020773D01*
X026262Y020696D01*
X026493Y020696D01*
X025629Y015152D02*
X023865Y015152D01*
X023865Y013640D02*
X025629Y013640D01*
X026740Y014027D02*
X028504Y014027D01*
X028504Y012515D02*
X026740Y012515D01*
X022887Y009552D02*
X021107Y009552D01*
X019949Y009396D02*
X018169Y009396D01*
X018169Y007896D02*
X019949Y007896D01*
X021107Y008052D02*
X022887Y008052D01*
X020199Y011271D02*
X018419Y011271D01*
X018419Y012771D02*
X020199Y012771D01*
X019622Y016193D02*
X019622Y017973D01*
X021122Y017973D02*
X021122Y016193D01*
X015691Y020202D02*
X013927Y020202D01*
X013927Y021714D02*
X015691Y021714D01*
X014632Y023323D02*
X014402Y023323D01*
X014325Y023400D01*
X014325Y023477D01*
X014402Y023554D01*
X014632Y023554D01*
X014632Y023784D02*
X014402Y023784D01*
X014325Y023707D01*
X014325Y023630D01*
X014402Y023554D01*
X014171Y023707D02*
X014095Y023784D01*
X013941Y023784D01*
X013864Y023707D01*
X013864Y023630D01*
X014171Y023323D01*
X013864Y023323D01*
X014632Y023323D02*
X014632Y023784D01*
X012538Y021627D02*
X012538Y021167D01*
X012308Y021167D01*
X012231Y021244D01*
X012231Y021321D01*
X012308Y021397D01*
X012538Y021397D01*
X012308Y021397D02*
X012231Y021474D01*
X012231Y021551D01*
X012308Y021627D01*
X012538Y021627D01*
X012078Y021474D02*
X011924Y021627D01*
X011924Y021167D01*
X011771Y021167D02*
X012078Y021167D01*
D14*
X026122Y020521D02*
X026372Y020271D01*
X027747Y020271D01*
X027966Y020490D01*
X027966Y024333D02*
X027747Y024552D01*
X026372Y024552D01*
X026122Y024302D01*
D15*
X027872Y024146D02*
X027872Y023646D01*
X028122Y023396D01*
X027872Y023146D01*
X027872Y022646D01*
X028122Y022396D01*
X027872Y022146D01*
X027872Y021646D01*
X028122Y021396D01*
X027872Y021146D01*
X027872Y020646D01*
X028122Y020396D01*
X028622Y020396D01*
X028872Y020646D01*
X028872Y021146D01*
X028622Y021396D01*
X028122Y021396D01*
X028622Y021396D01*
X028872Y021646D01*
X028872Y022146D01*
X028622Y022396D01*
X028122Y022396D01*
X028622Y022396D01*
X028872Y022646D01*
X028872Y023146D01*
X028622Y023396D01*
X028122Y023396D01*
X028622Y023396D01*
X028872Y023646D01*
X028872Y024146D01*
X028622Y024396D01*
X028122Y024396D01*
X027872Y024146D01*
X027997Y029896D02*
X027497Y029896D01*
X027247Y030146D01*
X027247Y030646D01*
X027497Y030896D01*
X027997Y030896D01*
X028247Y030646D01*
X028247Y030146D01*
X027997Y029896D01*
X022997Y023290D02*
X022997Y023240D01*
X022997Y023215D02*
X022997Y023140D01*
X022997Y023110D02*
X022997Y021695D01*
X022522Y021690D02*
X022472Y021690D01*
X022022Y021690D02*
X021972Y021690D01*
X021522Y021715D02*
X021472Y021715D01*
X021022Y021715D02*
X020997Y021715D01*
X020997Y021720D02*
X020997Y022290D01*
X020997Y022690D01*
X020997Y023285D01*
X020997Y023290D02*
X021022Y023290D01*
X021472Y023290D02*
X021522Y023290D01*
X021972Y023290D02*
X022022Y023290D01*
X022472Y023290D02*
X022522Y023290D01*
X022972Y023290D02*
X022997Y023290D01*
X020997Y022690D02*
X021024Y022688D01*
X021051Y022683D01*
X021077Y022673D01*
X021101Y022661D01*
X021123Y022645D01*
X021143Y022627D01*
X021160Y022605D01*
X021175Y022582D01*
X021185Y022557D01*
X021193Y022531D01*
X021197Y022504D01*
X021197Y022476D01*
X021193Y022449D01*
X021185Y022423D01*
X021175Y022398D01*
X021160Y022375D01*
X021143Y022353D01*
X021123Y022335D01*
X021101Y022319D01*
X021077Y022307D01*
X021051Y022297D01*
X021024Y022292D01*
X020997Y022290D01*
X014809Y022396D02*
X014559Y022146D01*
X014059Y022146D01*
X013809Y022396D01*
X013809Y022896D01*
X014059Y023146D01*
X014559Y023146D01*
X014809Y022896D01*
X014809Y022396D01*
X012028Y023240D02*
X011778Y022990D01*
X011278Y022990D01*
X011028Y023240D01*
X011028Y023740D01*
X011278Y023990D01*
X011778Y023990D01*
X012028Y023740D01*
X012028Y023240D01*
X011434Y021896D02*
X010934Y021896D01*
X010684Y021646D01*
X010684Y021146D01*
X010934Y020896D01*
X011434Y020896D01*
X011684Y021146D01*
X011684Y021646D01*
X011434Y021896D01*
X011309Y030208D02*
X011809Y030208D01*
X012059Y030458D01*
X012059Y030958D01*
X011809Y031208D01*
X011309Y031208D01*
X011059Y030958D01*
X011059Y030458D01*
X011309Y030208D01*
X023716Y009552D02*
X023466Y009302D01*
X023466Y008802D01*
X023716Y008552D01*
X024216Y008552D01*
X024466Y008802D01*
X024466Y009302D01*
X024216Y009552D01*
X023716Y009552D01*
X026684Y007146D02*
X026684Y006646D01*
X026934Y006396D01*
X027434Y006396D01*
X027684Y006646D01*
X027684Y007146D01*
X027434Y007396D01*
X026934Y007396D01*
X026684Y007146D01*
X011684Y007146D02*
X011684Y006646D01*
X011434Y006396D01*
X010934Y006396D01*
X010684Y006646D01*
X010684Y007146D01*
X010934Y007396D01*
X011434Y007396D01*
X011684Y007146D01*
D16*
X020997Y023120D02*
X022997Y023120D01*
D17*
X020766Y017359D02*
X019978Y017359D01*
X020372Y016807D01*
X020766Y017359D01*
X019585Y012415D02*
X019033Y012021D01*
X019585Y011627D01*
X019585Y012415D01*
X019335Y009040D02*
X019335Y008252D01*
X018783Y008646D01*
X019335Y009040D01*
X021721Y009196D02*
X021721Y008408D01*
X022274Y008802D01*
X021721Y009196D01*
D18*
X021222Y034833D03*
M02*
