G75*
G70*
%OFA0B0*%
%FSLAX24Y24*%
%IPPOS*%
%LPD*%
%AMOC8*
5,1,8,0,0,1.08239X$1,22.5*
%
%ADD10C,0.0320*%
%ADD11C,0.0600*%
%ADD12R,0.0236X0.0866*%
%ADD13R,0.0260X0.0800*%
%ADD14C,0.0760*%
%ADD15C,0.0650*%
%ADD16R,0.0560X0.0400*%
%ADD17R,0.0400X0.0560*%
%ADD18R,0.0670X0.0450*%
%ADD19R,0.0945X0.0945*%
%ADD20R,0.1610X0.1610*%
%ADD21C,0.0760*%
%ADD22R,0.0760X0.0760*%
%ADD23C,0.0700*%
%ADD24C,0.0827*%
%ADD25OC8,0.0760*%
%ADD26OC8,0.0600*%
%ADD27R,0.0900X0.0850*%
%ADD28OC8,0.0560*%
%ADD29R,0.0560X0.0560*%
%ADD30C,0.0660*%
%ADD31R,0.0860X0.0860*%
%ADD32R,0.0550X0.0670*%
%ADD33R,0.0866X0.0236*%
%ADD34C,0.0515*%
%ADD35C,0.0500*%
%ADD36R,0.0394X0.0551*%
%ADD37R,0.0551X0.0394*%
%ADD38OC8,0.0827*%
%ADD39C,0.0400*%
%ADD40R,0.0436X0.0436*%
%ADD41C,0.0240*%
%ADD42C,0.0160*%
%ADD43C,0.0700*%
%ADD44C,0.0100*%
D10*
X008734Y010271D02*
X008736Y010341D01*
X008742Y010411D01*
X008752Y010480D01*
X008765Y010549D01*
X008783Y010617D01*
X008804Y010684D01*
X008829Y010749D01*
X008858Y010813D01*
X008890Y010876D01*
X008926Y010936D01*
X008965Y010994D01*
X009007Y011050D01*
X009052Y011104D01*
X009100Y011155D01*
X009151Y011203D01*
X009205Y011248D01*
X009261Y011290D01*
X009319Y011329D01*
X009379Y011365D01*
X009442Y011397D01*
X009506Y011426D01*
X009571Y011451D01*
X009638Y011472D01*
X009706Y011490D01*
X009775Y011503D01*
X009844Y011513D01*
X009914Y011519D01*
X009984Y011521D01*
X010054Y011519D01*
X010124Y011513D01*
X010193Y011503D01*
X010262Y011490D01*
X010330Y011472D01*
X010397Y011451D01*
X010462Y011426D01*
X010526Y011397D01*
X010589Y011365D01*
X010649Y011329D01*
X010707Y011290D01*
X010763Y011248D01*
X010817Y011203D01*
X010868Y011155D01*
X010916Y011104D01*
X010961Y011050D01*
X011003Y010994D01*
X011042Y010936D01*
X011078Y010876D01*
X011110Y010813D01*
X011139Y010749D01*
X011164Y010684D01*
X011185Y010617D01*
X011203Y010549D01*
X011216Y010480D01*
X011226Y010411D01*
X011232Y010341D01*
X011234Y010271D01*
X011232Y010201D01*
X011226Y010131D01*
X011216Y010062D01*
X011203Y009993D01*
X011185Y009925D01*
X011164Y009858D01*
X011139Y009793D01*
X011110Y009729D01*
X011078Y009666D01*
X011042Y009606D01*
X011003Y009548D01*
X010961Y009492D01*
X010916Y009438D01*
X010868Y009387D01*
X010817Y009339D01*
X010763Y009294D01*
X010707Y009252D01*
X010649Y009213D01*
X010589Y009177D01*
X010526Y009145D01*
X010462Y009116D01*
X010397Y009091D01*
X010330Y009070D01*
X010262Y009052D01*
X010193Y009039D01*
X010124Y009029D01*
X010054Y009023D01*
X009984Y009021D01*
X009914Y009023D01*
X009844Y009029D01*
X009775Y009039D01*
X009706Y009052D01*
X009638Y009070D01*
X009571Y009091D01*
X009506Y009116D01*
X009442Y009145D01*
X009379Y009177D01*
X009319Y009213D01*
X009261Y009252D01*
X009205Y009294D01*
X009151Y009339D01*
X009100Y009387D01*
X009052Y009438D01*
X009007Y009492D01*
X008965Y009548D01*
X008926Y009606D01*
X008890Y009666D01*
X008858Y009729D01*
X008829Y009793D01*
X008804Y009858D01*
X008783Y009925D01*
X008765Y009993D01*
X008752Y010062D01*
X008742Y010131D01*
X008736Y010201D01*
X008734Y010271D01*
X011684Y012083D02*
X011684Y007833D01*
X017247Y007833D01*
X018068Y008396D02*
X018122Y008396D01*
X019497Y009771D01*
X020997Y010458D02*
X021059Y010458D01*
X022863Y008802D02*
X023184Y008802D01*
X023184Y009708D01*
X023966Y009052D02*
X023966Y008583D01*
X024872Y008333D02*
X024184Y007646D01*
X024184Y007615D01*
X024872Y008333D02*
X024872Y008865D01*
X025809Y008865D02*
X026184Y008865D01*
X026184Y006896D01*
X026484Y010271D02*
X026486Y010341D01*
X026492Y010411D01*
X026502Y010480D01*
X026515Y010549D01*
X026533Y010617D01*
X026554Y010684D01*
X026579Y010749D01*
X026608Y010813D01*
X026640Y010876D01*
X026676Y010936D01*
X026715Y010994D01*
X026757Y011050D01*
X026802Y011104D01*
X026850Y011155D01*
X026901Y011203D01*
X026955Y011248D01*
X027011Y011290D01*
X027069Y011329D01*
X027129Y011365D01*
X027192Y011397D01*
X027256Y011426D01*
X027321Y011451D01*
X027388Y011472D01*
X027456Y011490D01*
X027525Y011503D01*
X027594Y011513D01*
X027664Y011519D01*
X027734Y011521D01*
X027804Y011519D01*
X027874Y011513D01*
X027943Y011503D01*
X028012Y011490D01*
X028080Y011472D01*
X028147Y011451D01*
X028212Y011426D01*
X028276Y011397D01*
X028339Y011365D01*
X028399Y011329D01*
X028457Y011290D01*
X028513Y011248D01*
X028567Y011203D01*
X028618Y011155D01*
X028666Y011104D01*
X028711Y011050D01*
X028753Y010994D01*
X028792Y010936D01*
X028828Y010876D01*
X028860Y010813D01*
X028889Y010749D01*
X028914Y010684D01*
X028935Y010617D01*
X028953Y010549D01*
X028966Y010480D01*
X028976Y010411D01*
X028982Y010341D01*
X028984Y010271D01*
X028982Y010201D01*
X028976Y010131D01*
X028966Y010062D01*
X028953Y009993D01*
X028935Y009925D01*
X028914Y009858D01*
X028889Y009793D01*
X028860Y009729D01*
X028828Y009666D01*
X028792Y009606D01*
X028753Y009548D01*
X028711Y009492D01*
X028666Y009438D01*
X028618Y009387D01*
X028567Y009339D01*
X028513Y009294D01*
X028457Y009252D01*
X028399Y009213D01*
X028339Y009177D01*
X028276Y009145D01*
X028212Y009116D01*
X028147Y009091D01*
X028080Y009070D01*
X028012Y009052D01*
X027943Y009039D01*
X027874Y009029D01*
X027804Y009023D01*
X027734Y009021D01*
X027664Y009023D01*
X027594Y009029D01*
X027525Y009039D01*
X027456Y009052D01*
X027388Y009070D01*
X027321Y009091D01*
X027256Y009116D01*
X027192Y009145D01*
X027129Y009177D01*
X027069Y009213D01*
X027011Y009252D01*
X026955Y009294D01*
X026901Y009339D01*
X026850Y009387D01*
X026802Y009438D01*
X026757Y009492D01*
X026715Y009548D01*
X026676Y009606D01*
X026640Y009666D01*
X026608Y009729D01*
X026579Y009793D01*
X026554Y009858D01*
X026533Y009925D01*
X026515Y009993D01*
X026502Y010062D01*
X026492Y010131D01*
X026486Y010201D01*
X026484Y010271D01*
X024934Y010740D02*
X024872Y010802D01*
X024872Y010740D01*
X023848Y014608D02*
X023247Y014608D01*
X023247Y015208D01*
X022559Y016521D02*
X024184Y016521D01*
X024184Y017583D01*
X025184Y018708D02*
X025184Y020583D01*
X022247Y020583D01*
X022247Y021280D01*
X022247Y022208D01*
X022684Y022208D01*
X022247Y022208D02*
X022216Y022208D01*
X022216Y022896D01*
X020497Y022896D01*
X020497Y022146D02*
X019934Y022146D01*
X019934Y023646D01*
X019184Y024396D01*
X019184Y026115D01*
X019966Y026896D01*
X023184Y026896D01*
X023528Y026333D02*
X023778Y026583D01*
X023778Y027396D01*
X023528Y026333D02*
X023309Y026333D01*
X022684Y025708D01*
X022684Y025427D01*
X023684Y025427D02*
X023684Y025552D01*
X023684Y025427D02*
X023684Y023396D01*
X024059Y022646D02*
X025184Y022646D01*
X025341Y024052D02*
X026153Y024052D01*
X026153Y024521D01*
X027184Y024521D01*
X027184Y026083D01*
X026184Y026115D02*
X026184Y024771D01*
X026484Y028271D02*
X026486Y028341D01*
X026492Y028411D01*
X026502Y028480D01*
X026515Y028549D01*
X026533Y028617D01*
X026554Y028684D01*
X026579Y028749D01*
X026608Y028813D01*
X026640Y028876D01*
X026676Y028936D01*
X026715Y028994D01*
X026757Y029050D01*
X026802Y029104D01*
X026850Y029155D01*
X026901Y029203D01*
X026955Y029248D01*
X027011Y029290D01*
X027069Y029329D01*
X027129Y029365D01*
X027192Y029397D01*
X027256Y029426D01*
X027321Y029451D01*
X027388Y029472D01*
X027456Y029490D01*
X027525Y029503D01*
X027594Y029513D01*
X027664Y029519D01*
X027734Y029521D01*
X027804Y029519D01*
X027874Y029513D01*
X027943Y029503D01*
X028012Y029490D01*
X028080Y029472D01*
X028147Y029451D01*
X028212Y029426D01*
X028276Y029397D01*
X028339Y029365D01*
X028399Y029329D01*
X028457Y029290D01*
X028513Y029248D01*
X028567Y029203D01*
X028618Y029155D01*
X028666Y029104D01*
X028711Y029050D01*
X028753Y028994D01*
X028792Y028936D01*
X028828Y028876D01*
X028860Y028813D01*
X028889Y028749D01*
X028914Y028684D01*
X028935Y028617D01*
X028953Y028549D01*
X028966Y028480D01*
X028976Y028411D01*
X028982Y028341D01*
X028984Y028271D01*
X028982Y028201D01*
X028976Y028131D01*
X028966Y028062D01*
X028953Y027993D01*
X028935Y027925D01*
X028914Y027858D01*
X028889Y027793D01*
X028860Y027729D01*
X028828Y027666D01*
X028792Y027606D01*
X028753Y027548D01*
X028711Y027492D01*
X028666Y027438D01*
X028618Y027387D01*
X028567Y027339D01*
X028513Y027294D01*
X028457Y027252D01*
X028399Y027213D01*
X028339Y027177D01*
X028276Y027145D01*
X028212Y027116D01*
X028147Y027091D01*
X028080Y027070D01*
X028012Y027052D01*
X027943Y027039D01*
X027874Y027029D01*
X027804Y027023D01*
X027734Y027021D01*
X027664Y027023D01*
X027594Y027029D01*
X027525Y027039D01*
X027456Y027052D01*
X027388Y027070D01*
X027321Y027091D01*
X027256Y027116D01*
X027192Y027145D01*
X027129Y027177D01*
X027069Y027213D01*
X027011Y027252D01*
X026955Y027294D01*
X026901Y027339D01*
X026850Y027387D01*
X026802Y027438D01*
X026757Y027492D01*
X026715Y027548D01*
X026676Y027606D01*
X026640Y027666D01*
X026608Y027729D01*
X026579Y027793D01*
X026554Y027858D01*
X026533Y027925D01*
X026515Y027993D01*
X026502Y028062D01*
X026492Y028131D01*
X026486Y028201D01*
X026484Y028271D01*
X026872Y029896D02*
X026872Y030396D01*
X026867Y030396D01*
X022184Y029646D02*
X018747Y029646D01*
X018247Y030146D02*
X017934Y029833D01*
X018247Y030146D02*
X021184Y030146D01*
X022184Y029646D02*
X022184Y034021D01*
X022309Y034833D02*
X021684Y034833D01*
X021684Y032021D01*
X019684Y032021D01*
X020684Y034833D02*
X018434Y034833D01*
X019997Y035521D02*
X021184Y035521D01*
X021184Y037677D01*
X022184Y037677D01*
X022184Y038677D02*
X021497Y038677D01*
X021184Y038021D02*
X021184Y037872D01*
X021184Y037677D01*
X020184Y038208D02*
X020184Y036771D01*
X019684Y036833D02*
X019622Y036833D01*
X019684Y036833D02*
X019684Y037872D01*
X019684Y038271D01*
X019684Y038646D01*
X018184Y038646D01*
X018184Y039146D01*
X018153Y039146D01*
X019684Y039919D02*
X019684Y040396D01*
X020184Y040396D02*
X020184Y039919D01*
X020684Y039919D02*
X020684Y040396D01*
X021184Y040396D02*
X021184Y039919D01*
X022184Y039919D02*
X022184Y039677D01*
X026484Y042021D02*
X026486Y042091D01*
X026492Y042161D01*
X026502Y042230D01*
X026515Y042299D01*
X026533Y042367D01*
X026554Y042434D01*
X026579Y042499D01*
X026608Y042563D01*
X026640Y042626D01*
X026676Y042686D01*
X026715Y042744D01*
X026757Y042800D01*
X026802Y042854D01*
X026850Y042905D01*
X026901Y042953D01*
X026955Y042998D01*
X027011Y043040D01*
X027069Y043079D01*
X027129Y043115D01*
X027192Y043147D01*
X027256Y043176D01*
X027321Y043201D01*
X027388Y043222D01*
X027456Y043240D01*
X027525Y043253D01*
X027594Y043263D01*
X027664Y043269D01*
X027734Y043271D01*
X027804Y043269D01*
X027874Y043263D01*
X027943Y043253D01*
X028012Y043240D01*
X028080Y043222D01*
X028147Y043201D01*
X028212Y043176D01*
X028276Y043147D01*
X028339Y043115D01*
X028399Y043079D01*
X028457Y043040D01*
X028513Y042998D01*
X028567Y042953D01*
X028618Y042905D01*
X028666Y042854D01*
X028711Y042800D01*
X028753Y042744D01*
X028792Y042686D01*
X028828Y042626D01*
X028860Y042563D01*
X028889Y042499D01*
X028914Y042434D01*
X028935Y042367D01*
X028953Y042299D01*
X028966Y042230D01*
X028976Y042161D01*
X028982Y042091D01*
X028984Y042021D01*
X028982Y041951D01*
X028976Y041881D01*
X028966Y041812D01*
X028953Y041743D01*
X028935Y041675D01*
X028914Y041608D01*
X028889Y041543D01*
X028860Y041479D01*
X028828Y041416D01*
X028792Y041356D01*
X028753Y041298D01*
X028711Y041242D01*
X028666Y041188D01*
X028618Y041137D01*
X028567Y041089D01*
X028513Y041044D01*
X028457Y041002D01*
X028399Y040963D01*
X028339Y040927D01*
X028276Y040895D01*
X028212Y040866D01*
X028147Y040841D01*
X028080Y040820D01*
X028012Y040802D01*
X027943Y040789D01*
X027874Y040779D01*
X027804Y040773D01*
X027734Y040771D01*
X027664Y040773D01*
X027594Y040779D01*
X027525Y040789D01*
X027456Y040802D01*
X027388Y040820D01*
X027321Y040841D01*
X027256Y040866D01*
X027192Y040895D01*
X027129Y040927D01*
X027069Y040963D01*
X027011Y041002D01*
X026955Y041044D01*
X026901Y041089D01*
X026850Y041137D01*
X026802Y041188D01*
X026757Y041242D01*
X026715Y041298D01*
X026676Y041356D01*
X026640Y041416D01*
X026608Y041479D01*
X026579Y041543D01*
X026554Y041608D01*
X026533Y041675D01*
X026515Y041743D01*
X026502Y041812D01*
X026492Y041881D01*
X026486Y041951D01*
X026484Y042021D01*
X022184Y029146D02*
X014559Y029146D01*
X014559Y026990D01*
X014559Y026396D01*
X014559Y025427D01*
X014684Y025427D01*
X015184Y026021D02*
X015184Y024771D01*
X015184Y022958D02*
X015184Y021833D01*
X012934Y021833D01*
X011528Y023490D02*
X011528Y023525D01*
X010371Y023525D01*
X012184Y024771D02*
X012184Y026021D01*
X013184Y026021D02*
X013184Y024771D01*
X010559Y026396D02*
X011934Y027771D01*
X011934Y029708D01*
X015184Y029708D01*
X015184Y030396D01*
X015122Y034583D02*
X015122Y035083D01*
X014809Y035396D01*
X014395Y035396D01*
X012747Y035396D01*
X012372Y035396D01*
X012348Y035396D01*
X012348Y035896D01*
X012348Y036396D01*
X012348Y036896D02*
X011028Y036896D01*
X012348Y036896D02*
X012653Y036896D01*
X013372Y036896D01*
X013372Y035896D01*
X014395Y035896D01*
X014395Y036896D02*
X015247Y036896D01*
X015247Y036958D01*
X013470Y037900D02*
X013403Y037833D01*
X013403Y038490D01*
X013466Y038490D01*
X013470Y039053D02*
X013470Y037900D01*
X012653Y037833D02*
X012653Y036896D01*
X008734Y042021D02*
X008736Y042091D01*
X008742Y042161D01*
X008752Y042230D01*
X008765Y042299D01*
X008783Y042367D01*
X008804Y042434D01*
X008829Y042499D01*
X008858Y042563D01*
X008890Y042626D01*
X008926Y042686D01*
X008965Y042744D01*
X009007Y042800D01*
X009052Y042854D01*
X009100Y042905D01*
X009151Y042953D01*
X009205Y042998D01*
X009261Y043040D01*
X009319Y043079D01*
X009379Y043115D01*
X009442Y043147D01*
X009506Y043176D01*
X009571Y043201D01*
X009638Y043222D01*
X009706Y043240D01*
X009775Y043253D01*
X009844Y043263D01*
X009914Y043269D01*
X009984Y043271D01*
X010054Y043269D01*
X010124Y043263D01*
X010193Y043253D01*
X010262Y043240D01*
X010330Y043222D01*
X010397Y043201D01*
X010462Y043176D01*
X010526Y043147D01*
X010589Y043115D01*
X010649Y043079D01*
X010707Y043040D01*
X010763Y042998D01*
X010817Y042953D01*
X010868Y042905D01*
X010916Y042854D01*
X010961Y042800D01*
X011003Y042744D01*
X011042Y042686D01*
X011078Y042626D01*
X011110Y042563D01*
X011139Y042499D01*
X011164Y042434D01*
X011185Y042367D01*
X011203Y042299D01*
X011216Y042230D01*
X011226Y042161D01*
X011232Y042091D01*
X011234Y042021D01*
X011232Y041951D01*
X011226Y041881D01*
X011216Y041812D01*
X011203Y041743D01*
X011185Y041675D01*
X011164Y041608D01*
X011139Y041543D01*
X011110Y041479D01*
X011078Y041416D01*
X011042Y041356D01*
X011003Y041298D01*
X010961Y041242D01*
X010916Y041188D01*
X010868Y041137D01*
X010817Y041089D01*
X010763Y041044D01*
X010707Y041002D01*
X010649Y040963D01*
X010589Y040927D01*
X010526Y040895D01*
X010462Y040866D01*
X010397Y040841D01*
X010330Y040820D01*
X010262Y040802D01*
X010193Y040789D01*
X010124Y040779D01*
X010054Y040773D01*
X009984Y040771D01*
X009914Y040773D01*
X009844Y040779D01*
X009775Y040789D01*
X009706Y040802D01*
X009638Y040820D01*
X009571Y040841D01*
X009506Y040866D01*
X009442Y040895D01*
X009379Y040927D01*
X009319Y040963D01*
X009261Y041002D01*
X009205Y041044D01*
X009151Y041089D01*
X009100Y041137D01*
X009052Y041188D01*
X009007Y041242D01*
X008965Y041298D01*
X008926Y041356D01*
X008890Y041416D01*
X008858Y041479D01*
X008829Y041543D01*
X008804Y041608D01*
X008783Y041675D01*
X008765Y041743D01*
X008752Y041812D01*
X008742Y041881D01*
X008736Y041951D01*
X008734Y042021D01*
X010216Y031833D02*
X010309Y031833D01*
X010216Y031833D02*
X010216Y031021D01*
X010216Y030271D02*
X011122Y030271D01*
X011559Y030708D01*
X008734Y028271D02*
X008736Y028341D01*
X008742Y028411D01*
X008752Y028480D01*
X008765Y028549D01*
X008783Y028617D01*
X008804Y028684D01*
X008829Y028749D01*
X008858Y028813D01*
X008890Y028876D01*
X008926Y028936D01*
X008965Y028994D01*
X009007Y029050D01*
X009052Y029104D01*
X009100Y029155D01*
X009151Y029203D01*
X009205Y029248D01*
X009261Y029290D01*
X009319Y029329D01*
X009379Y029365D01*
X009442Y029397D01*
X009506Y029426D01*
X009571Y029451D01*
X009638Y029472D01*
X009706Y029490D01*
X009775Y029503D01*
X009844Y029513D01*
X009914Y029519D01*
X009984Y029521D01*
X010054Y029519D01*
X010124Y029513D01*
X010193Y029503D01*
X010262Y029490D01*
X010330Y029472D01*
X010397Y029451D01*
X010462Y029426D01*
X010526Y029397D01*
X010589Y029365D01*
X010649Y029329D01*
X010707Y029290D01*
X010763Y029248D01*
X010817Y029203D01*
X010868Y029155D01*
X010916Y029104D01*
X010961Y029050D01*
X011003Y028994D01*
X011042Y028936D01*
X011078Y028876D01*
X011110Y028813D01*
X011139Y028749D01*
X011164Y028684D01*
X011185Y028617D01*
X011203Y028549D01*
X011216Y028480D01*
X011226Y028411D01*
X011232Y028341D01*
X011234Y028271D01*
X011232Y028201D01*
X011226Y028131D01*
X011216Y028062D01*
X011203Y027993D01*
X011185Y027925D01*
X011164Y027858D01*
X011139Y027793D01*
X011110Y027729D01*
X011078Y027666D01*
X011042Y027606D01*
X011003Y027548D01*
X010961Y027492D01*
X010916Y027438D01*
X010868Y027387D01*
X010817Y027339D01*
X010763Y027294D01*
X010707Y027252D01*
X010649Y027213D01*
X010589Y027177D01*
X010526Y027145D01*
X010462Y027116D01*
X010397Y027091D01*
X010330Y027070D01*
X010262Y027052D01*
X010193Y027039D01*
X010124Y027029D01*
X010054Y027023D01*
X009984Y027021D01*
X009914Y027023D01*
X009844Y027029D01*
X009775Y027039D01*
X009706Y027052D01*
X009638Y027070D01*
X009571Y027091D01*
X009506Y027116D01*
X009442Y027145D01*
X009379Y027177D01*
X009319Y027213D01*
X009261Y027252D01*
X009205Y027294D01*
X009151Y027339D01*
X009100Y027387D01*
X009052Y027438D01*
X009007Y027492D01*
X008965Y027548D01*
X008926Y027606D01*
X008890Y027666D01*
X008858Y027729D01*
X008829Y027793D01*
X008804Y027858D01*
X008783Y027925D01*
X008765Y027993D01*
X008752Y028062D01*
X008742Y028131D01*
X008736Y028201D01*
X008734Y028271D01*
X009059Y026396D02*
X010559Y026396D01*
X009059Y026396D02*
X009059Y019396D01*
X009684Y019396D01*
X009684Y019427D01*
X011684Y019427D02*
X011684Y019583D01*
X016184Y020021D02*
X016184Y017521D01*
X016247Y017521D01*
X016684Y015896D02*
X017872Y015896D01*
X017872Y013896D02*
X016684Y013896D01*
X015997Y013896D01*
X015997Y013208D01*
X014934Y013208D01*
X011809Y012083D02*
X011684Y012083D01*
X016747Y020396D02*
X017247Y020396D01*
X017247Y021208D01*
X019434Y021771D02*
X020684Y020521D01*
X021747Y020208D02*
X021747Y021280D01*
X021747Y022177D01*
X021716Y022208D01*
X022684Y022833D02*
X022747Y022833D01*
X022747Y023700D01*
X021153Y023740D02*
X020684Y023740D01*
X020684Y023990D01*
X020684Y025427D01*
X021747Y027396D02*
X019528Y027396D01*
X018684Y026552D01*
X018684Y025427D01*
X018184Y026083D02*
X018184Y024646D01*
X019434Y023396D01*
X019434Y021771D01*
X017184Y024771D02*
X017184Y026021D01*
X020372Y016521D02*
X020372Y016217D01*
X026184Y018833D02*
X026184Y019958D01*
X026184Y020208D02*
X027684Y020208D01*
X027684Y019365D01*
D11*
X027484Y020896D02*
X026884Y020896D01*
X026884Y021896D02*
X027484Y021896D01*
X027484Y022896D02*
X026884Y022896D01*
X026884Y023896D02*
X027484Y023896D01*
X019984Y031021D02*
X019384Y031021D01*
X019384Y032021D02*
X019984Y032021D01*
X019984Y033021D02*
X019384Y033021D01*
X019384Y034021D02*
X019984Y034021D01*
X021884Y037677D02*
X022484Y037677D01*
X022484Y038677D02*
X021884Y038677D01*
X021884Y039677D02*
X022484Y039677D01*
X022484Y040677D02*
X021884Y040677D01*
X021809Y041721D02*
X021809Y042321D01*
X020809Y042321D02*
X020809Y041721D01*
X019809Y041721D02*
X019809Y042321D01*
X017934Y042321D02*
X017934Y041721D01*
X016934Y041721D02*
X016934Y042321D01*
X015934Y042321D02*
X015934Y041721D01*
X014934Y041721D02*
X014934Y042321D01*
X013934Y042321D02*
X013934Y041721D01*
X012934Y041721D02*
X012934Y042321D01*
X014884Y033396D02*
X015484Y033396D01*
X015484Y032396D02*
X014884Y032396D01*
X014884Y031396D02*
X015484Y031396D01*
X015484Y030396D02*
X014884Y030396D01*
X015934Y028321D02*
X015934Y027721D01*
X016934Y027721D02*
X016934Y028321D01*
X017934Y028321D02*
X017934Y027721D01*
X018934Y027721D02*
X018934Y028321D01*
X022809Y041721D02*
X022809Y042321D01*
X023809Y042321D02*
X023809Y041721D01*
X024809Y041721D02*
X024809Y042321D01*
D12*
X021184Y039919D03*
X020684Y039919D03*
X020184Y039919D03*
X019684Y039919D03*
X019684Y037872D03*
X020184Y037872D03*
X020684Y037872D03*
X021184Y037872D03*
X023309Y032076D03*
X023809Y032076D03*
X024309Y032076D03*
X024809Y032076D03*
X024809Y030028D03*
X024309Y030028D03*
X023809Y030028D03*
X023309Y030028D03*
D13*
X022747Y023700D03*
X022247Y023700D03*
X021747Y023700D03*
X021247Y023700D03*
X021247Y021280D03*
X021747Y021280D03*
X022247Y021280D03*
X022747Y021280D03*
D14*
X022184Y007276D02*
X022184Y006516D01*
X024184Y006516D02*
X024184Y007276D01*
X026184Y007276D02*
X026184Y006516D01*
X028184Y006516D02*
X028184Y007276D01*
D15*
X024509Y015846D02*
X023860Y015846D01*
X022534Y017596D02*
X021885Y017596D01*
X025835Y017596D02*
X026484Y017596D01*
X011509Y020396D02*
X010860Y020396D01*
X010860Y022396D02*
X011509Y022396D01*
X011509Y024396D02*
X010860Y024396D01*
D16*
X010216Y030271D03*
X010216Y031021D03*
X018153Y039146D03*
X018153Y039896D03*
X025934Y037771D03*
X025934Y037021D03*
X024059Y022646D03*
X024059Y021896D03*
X020497Y022146D03*
X020497Y022896D03*
X016684Y015896D03*
X016684Y015146D03*
X016684Y014646D03*
X016684Y013896D03*
X014434Y015396D03*
X014434Y016146D03*
D17*
X016497Y021208D03*
X017247Y021208D03*
X021809Y016521D03*
X022559Y016521D03*
X024934Y010740D03*
X025684Y010740D03*
X025341Y024052D03*
X024591Y024052D03*
X015122Y034583D03*
X014372Y034583D03*
X013403Y037833D03*
X012653Y037833D03*
X016434Y040896D03*
X017184Y040896D03*
X010309Y021708D03*
X009559Y021708D03*
D18*
X024872Y010115D03*
X025809Y010115D03*
X025809Y008865D03*
X024872Y008865D03*
D19*
X022863Y008802D03*
X021131Y008802D03*
X019925Y008646D03*
X018193Y008646D03*
X018443Y012021D03*
X020175Y012021D03*
X020372Y016217D03*
X020372Y017949D03*
D20*
X016584Y009021D03*
X012784Y009021D03*
D21*
X021059Y010458D03*
X021059Y013771D03*
D22*
X022434Y013771D03*
X022434Y010458D03*
D23*
X011589Y014529D03*
X011589Y015513D03*
X010809Y015513D03*
X010809Y014529D03*
D24*
X010153Y012651D02*
X009326Y012651D01*
X009326Y017391D02*
X010153Y017391D01*
D25*
X017872Y015896D03*
X017872Y013896D03*
D26*
X009184Y008333D03*
X010184Y006896D03*
X011184Y006896D03*
X017309Y011146D03*
X019497Y013771D03*
X023966Y009052D03*
X023184Y006896D03*
X025184Y006896D03*
X027184Y006896D03*
X024809Y013021D03*
X020184Y006896D03*
X011372Y017896D03*
X011184Y021396D03*
X011528Y023490D03*
X013122Y027083D03*
X011559Y030708D03*
X014309Y022646D03*
X027747Y030396D03*
X028372Y023896D03*
X028372Y022896D03*
X028372Y021896D03*
X028372Y020896D03*
D27*
X025650Y014396D03*
X026719Y013271D03*
X028521Y013271D03*
X023848Y014396D03*
X015709Y020958D03*
X013906Y020958D03*
D28*
X011184Y031833D03*
X011184Y032833D03*
X011184Y033833D03*
X012184Y033833D03*
X012184Y032833D03*
D29*
X012184Y031833D03*
D30*
X016654Y037958D02*
X017314Y037958D01*
D31*
X014384Y037958D03*
D32*
X020684Y034833D03*
X022309Y034833D03*
D33*
X014395Y035396D03*
X014395Y035896D03*
X014395Y036396D03*
X014395Y036896D03*
X012348Y036896D03*
X012348Y036396D03*
X012348Y035896D03*
X012348Y035396D03*
D34*
X012684Y025685D02*
X012684Y025170D01*
X013684Y025170D02*
X013684Y025685D01*
X014684Y025685D02*
X014684Y025170D01*
X015684Y025170D02*
X015684Y025685D01*
X016684Y025685D02*
X016684Y025170D01*
X017684Y025170D02*
X017684Y025685D01*
X018684Y025685D02*
X018684Y025170D01*
X019684Y025170D02*
X019684Y025685D01*
X020684Y025685D02*
X020684Y025170D01*
X021684Y025170D02*
X021684Y025685D01*
X022684Y025685D02*
X022684Y025170D01*
X023684Y025170D02*
X023684Y025685D01*
X024684Y025685D02*
X024684Y025170D01*
X025684Y025170D02*
X025684Y025685D01*
X026684Y025685D02*
X026684Y025170D01*
X027684Y025170D02*
X027684Y025685D01*
X028684Y025685D02*
X028684Y025170D01*
X028684Y019685D02*
X028684Y019170D01*
X027684Y019170D02*
X027684Y019685D01*
X026684Y019685D02*
X026684Y019170D01*
X025684Y019170D02*
X025684Y019685D01*
X024684Y019685D02*
X024684Y019170D01*
X023684Y019170D02*
X023684Y019685D01*
X022684Y019685D02*
X022684Y019170D01*
X021684Y019170D02*
X021684Y019685D01*
X020684Y019685D02*
X020684Y019170D01*
X019684Y019170D02*
X019684Y019685D01*
X018684Y019685D02*
X018684Y019170D01*
X017684Y019170D02*
X017684Y019685D01*
X016684Y019685D02*
X016684Y019170D01*
X015684Y019170D02*
X015684Y019685D01*
X014684Y019685D02*
X014684Y019170D01*
X013684Y019170D02*
X013684Y019685D01*
X012684Y019685D02*
X012684Y019170D01*
X011684Y019170D02*
X011684Y019685D01*
X010684Y019685D02*
X010684Y019170D01*
X009684Y019170D02*
X009684Y019685D01*
X009684Y025170D02*
X009684Y025685D01*
X010684Y025685D02*
X010684Y025170D01*
X011684Y025170D02*
X011684Y025685D01*
D35*
X010278Y035333D02*
X010278Y035396D01*
X012747Y035396D01*
X015934Y036833D02*
X016372Y036833D01*
X016372Y037146D01*
X015934Y037083D02*
X015934Y036833D01*
X015934Y037083D02*
X015934Y037646D01*
X015997Y037646D01*
X015934Y037646D02*
X015934Y038583D01*
X019434Y038583D01*
X019559Y038583D01*
X019559Y037646D01*
X018622Y037646D01*
X018622Y037708D02*
X018622Y038083D01*
X018622Y037708D02*
X019059Y037708D01*
X019059Y038208D01*
X018247Y038208D01*
X018247Y037458D01*
X019434Y037458D01*
X019434Y038583D01*
X019559Y037083D02*
X015934Y037083D01*
X018934Y028021D02*
X022684Y028021D01*
X025247Y028021D01*
X026809Y031396D02*
X027309Y031396D01*
X027309Y032021D02*
X026809Y032021D01*
X026809Y032646D02*
X027309Y032646D01*
X027309Y033271D02*
X026809Y033271D01*
X027184Y023896D02*
X028372Y023896D01*
X028372Y022896D02*
X027184Y022896D01*
X027184Y021896D02*
X028372Y021896D01*
X028372Y020896D02*
X027184Y020896D01*
X025872Y014021D02*
X025872Y013271D01*
X026719Y013271D01*
X025184Y007083D02*
X025184Y006708D01*
X023184Y006708D02*
X023184Y006896D01*
X023184Y007083D01*
X022184Y007052D02*
X022184Y006896D01*
X022184Y007052D02*
X021122Y008115D01*
X021122Y008793D01*
X021131Y008802D01*
X020622Y006896D02*
X020184Y006896D01*
X019809Y006896D01*
X011184Y006896D02*
X009872Y006896D01*
D36*
X009623Y023525D03*
X009997Y024391D03*
X010371Y023525D03*
D37*
X013470Y039053D03*
X013470Y039801D03*
X014336Y039427D03*
X026001Y030770D03*
X026001Y030022D03*
X026867Y030396D03*
D38*
X024184Y017583D03*
D39*
X025184Y016646D02*
X028559Y016646D01*
X028559Y013271D01*
X028521Y013271D01*
X028434Y013271D01*
X028434Y012146D01*
X026997Y012146D01*
X025809Y010958D01*
X025809Y010740D01*
X025809Y010115D01*
X024872Y010115D02*
X024872Y010740D01*
X024872Y010833D01*
X023747Y010833D01*
X023747Y014021D01*
X023848Y014122D01*
X023848Y014396D01*
X023848Y014608D01*
X024184Y015846D02*
X025872Y015846D01*
X027872Y015846D01*
X027872Y015833D01*
X027684Y018396D02*
X026184Y018396D01*
X026184Y018833D01*
X025184Y018708D02*
X025184Y016646D01*
X025872Y015846D02*
X025872Y014021D01*
X025650Y014243D01*
X025650Y014396D01*
X024184Y015846D02*
X022434Y015846D01*
X022434Y015146D01*
X018622Y015146D01*
X016684Y015146D01*
X016684Y014646D01*
X016809Y014646D01*
X018559Y014646D01*
X018497Y014896D02*
X016809Y014896D01*
X016809Y014646D01*
X016684Y015896D02*
X015309Y015896D01*
X015309Y014146D01*
X014434Y014146D01*
X014434Y014771D02*
X014434Y015396D01*
X014434Y016146D02*
X014434Y016708D01*
X014809Y016708D01*
X018622Y016708D01*
X018622Y015146D01*
X018622Y015083D02*
X018622Y013771D01*
X019497Y013771D01*
X018622Y013771D02*
X018622Y013083D01*
X016622Y013083D01*
X016622Y012646D01*
X014559Y012646D01*
X012184Y012646D01*
X010809Y014021D01*
X010809Y014529D01*
X010809Y014708D01*
X009739Y014708D01*
X009739Y017391D01*
X011372Y017896D02*
X011372Y016771D01*
X012184Y016521D02*
X012184Y018146D01*
X011559Y018521D02*
X011372Y018521D01*
X011372Y018333D01*
X011372Y017896D01*
X012184Y016521D02*
X012809Y015896D01*
X012809Y013583D01*
X012559Y012083D02*
X012559Y010271D01*
X017309Y010271D01*
X017309Y010396D01*
X017309Y011146D01*
X017309Y010396D02*
X017934Y010396D01*
X018434Y009646D02*
X017184Y009646D01*
X018193Y008646D02*
X018122Y008574D01*
X018122Y008396D01*
X018372Y007646D02*
X019800Y007646D01*
X019925Y007771D01*
X020434Y007771D01*
X019925Y007771D02*
X019925Y008646D01*
X019497Y009771D02*
X021747Y009771D01*
X021747Y011458D01*
X022434Y012021D02*
X022434Y010458D01*
X023184Y009708D02*
X023184Y012146D01*
X022434Y012021D02*
X020175Y012021D01*
X020997Y010458D02*
X018934Y010458D01*
X018934Y010396D01*
X018434Y009646D02*
X018434Y011521D01*
X018443Y011530D01*
X018443Y012021D01*
X018434Y012396D02*
X018434Y011521D01*
X018434Y012396D02*
X017309Y012396D01*
X019184Y015958D02*
X019184Y017521D01*
X016247Y017521D01*
X015684Y017396D02*
X015684Y019427D01*
X016184Y020021D02*
X016184Y020958D01*
X015709Y020958D01*
X016122Y020958D01*
X016122Y022896D01*
X015247Y023771D01*
X015184Y024771D02*
X017747Y022208D01*
X017747Y020271D01*
X019684Y020271D01*
X019684Y019427D01*
X018872Y020896D02*
X018872Y023083D01*
X017184Y024771D01*
X017184Y026021D02*
X016934Y026271D01*
X016934Y028021D01*
X015934Y028021D02*
X015184Y028021D01*
X015184Y026021D01*
X013809Y026646D02*
X013809Y028458D01*
X012997Y028458D01*
X012903Y029146D02*
X012497Y029146D01*
X012497Y027521D01*
X012184Y027208D01*
X012184Y026021D01*
X013184Y026021D02*
X013809Y026646D01*
X013184Y024771D02*
X013184Y022396D01*
X012372Y022396D01*
X012372Y020271D01*
X011684Y019583D01*
X012809Y018521D02*
X014684Y018521D01*
X014684Y019427D01*
X013906Y020958D02*
X013184Y020958D01*
X013184Y020208D01*
X011184Y021396D02*
X011184Y022396D01*
X012184Y022958D02*
X012184Y024771D01*
X012184Y022958D02*
X012434Y022958D01*
X016184Y021208D02*
X016184Y020958D01*
X016184Y021208D02*
X016497Y021208D01*
X017247Y021208D02*
X017247Y021708D01*
X016872Y022083D01*
X018184Y026083D02*
X018184Y026771D01*
X017934Y027021D01*
X017934Y028021D01*
X016184Y032396D02*
X015184Y032396D01*
X014884Y032396D01*
X013447Y033833D01*
X012184Y033833D01*
X012184Y032833D02*
X013309Y032833D01*
X014247Y031896D01*
X014434Y031896D01*
X015184Y033396D02*
X014059Y034521D01*
X014372Y034521D01*
X014372Y034583D01*
X014059Y034521D02*
X010309Y034521D01*
X009684Y034521D01*
X009684Y036896D01*
X011028Y036896D01*
X012653Y037833D02*
X012653Y039801D01*
X012653Y042021D01*
X012934Y042021D01*
X012934Y043021D01*
X016934Y043021D01*
X018559Y043021D01*
X018559Y041396D01*
X018059Y040896D01*
X018059Y040208D01*
X018059Y039919D01*
X019684Y039919D01*
X020184Y039919D01*
X020684Y039919D01*
X021184Y039919D01*
X022184Y039919D01*
X023411Y039919D01*
X023434Y039896D01*
X023434Y034833D01*
X022309Y034833D01*
X022309Y034708D01*
X019622Y036833D02*
X016997Y036833D01*
X016184Y036833D01*
X016184Y034583D01*
X015122Y034583D01*
X016184Y034583D02*
X016184Y032396D01*
X014247Y030271D02*
X013809Y030271D01*
X012247Y031833D01*
X012184Y031833D01*
X011559Y031208D01*
X011559Y030708D01*
X011184Y031833D02*
X010309Y031833D01*
X010309Y034521D01*
X011184Y032833D02*
X011622Y032396D01*
X014372Y037958D02*
X014384Y037958D01*
X014384Y039427D01*
X014336Y039427D01*
X015122Y039833D02*
X016984Y039833D01*
X016984Y037958D01*
X016984Y038646D01*
X016997Y038646D01*
X018153Y038646D01*
X018153Y039146D01*
X017434Y039833D02*
X017434Y041146D01*
X017184Y040896D01*
X017434Y041146D02*
X017872Y041583D01*
X017872Y041958D01*
X017934Y042021D01*
X016934Y042021D02*
X016934Y041708D01*
X016434Y041208D01*
X016434Y040896D01*
X016984Y039833D02*
X017434Y039833D01*
X018809Y040646D02*
X019059Y040896D01*
X022809Y040896D01*
X025059Y040896D01*
X025059Y036708D01*
X025059Y033396D01*
X026059Y033396D01*
X026059Y032021D01*
X027059Y032021D01*
X025247Y028021D02*
X026184Y027083D01*
X027184Y026083D01*
X026184Y026115D02*
X026184Y027083D01*
X026184Y024771D02*
X026184Y021146D01*
X026184Y020208D01*
X026184Y019958D01*
X026184Y021146D02*
X024059Y021146D01*
X024059Y021896D01*
X024059Y021208D01*
X022997Y021208D01*
X022809Y021208D01*
X021184Y021490D02*
X021184Y020146D01*
X020684Y020521D02*
X020684Y019427D01*
X021184Y018708D02*
X021184Y017949D01*
X020372Y017949D01*
X020372Y016521D02*
X021809Y016521D01*
X022434Y015146D02*
X022434Y013771D01*
X022434Y012021D01*
X023184Y009708D02*
X023184Y008811D01*
X024184Y007615D02*
X024184Y006896D01*
X018372Y007646D02*
X017997Y007271D01*
X011966Y007271D01*
X012559Y009021D02*
X012559Y010271D01*
X012809Y017146D02*
X012809Y017396D01*
X015684Y017396D01*
X020497Y022146D02*
X021184Y022146D01*
X021184Y021490D01*
X027684Y019427D02*
X027684Y019365D01*
X027684Y018396D01*
X025934Y037021D02*
X025184Y037021D01*
X025934Y037771D02*
X025934Y038646D01*
X022809Y040896D02*
X022809Y042021D01*
X016934Y042021D02*
X016934Y043021D01*
X013934Y041021D02*
X015122Y039833D01*
X013934Y041021D02*
X013934Y042021D01*
X013470Y039801D02*
X012653Y039801D01*
D40*
X013466Y038490D03*
X015247Y036958D03*
X015497Y035708D03*
X016747Y034458D03*
X017809Y034021D03*
X018434Y034833D03*
X017809Y035521D03*
X016997Y036833D03*
X016997Y038646D03*
X018809Y040646D03*
X019684Y036208D03*
X019997Y035521D03*
X022184Y034021D03*
X025059Y033396D03*
X025684Y031271D03*
X026872Y029896D03*
X025372Y029208D03*
X024309Y028677D03*
X023778Y027396D03*
X023184Y026896D03*
X022684Y028021D03*
X021747Y027396D03*
X021184Y028583D03*
X022184Y029146D03*
X021184Y030146D03*
X019934Y028583D03*
X018747Y029646D03*
X017934Y029833D03*
X017809Y030896D03*
X016809Y031896D03*
X014247Y030271D03*
X012903Y029146D03*
X012997Y028458D03*
X015247Y023771D03*
X015184Y022958D03*
X016434Y024396D03*
X016872Y022083D03*
X018309Y021521D03*
X018872Y020896D03*
X016747Y020396D03*
X014809Y016708D03*
X014434Y014771D03*
X014434Y014146D03*
X014934Y013208D03*
X014559Y012646D03*
X012809Y013583D03*
X012559Y012083D03*
X011809Y012083D03*
X011372Y016771D03*
X012184Y018146D03*
X012809Y017146D03*
X013184Y020208D03*
X012934Y021833D03*
X012434Y022958D03*
X019184Y015958D03*
X017309Y012396D03*
X017934Y010396D03*
X018934Y010396D03*
X020434Y007771D03*
X021747Y011458D03*
X023184Y012146D03*
X023247Y015208D03*
X023247Y017083D03*
X022684Y022208D03*
X022684Y022833D03*
X021716Y022208D03*
X020684Y023990D03*
X021747Y024521D03*
X023684Y023396D03*
X025184Y022646D03*
X027872Y015833D03*
X017247Y007833D03*
X011966Y007271D03*
X010278Y035333D03*
X023434Y039896D03*
X025934Y038646D03*
X025059Y036708D03*
D41*
X025059Y037021D01*
X025184Y037021D01*
X025059Y033396D02*
X023809Y033396D01*
X023809Y032076D01*
X024309Y032076D02*
X024309Y031271D01*
X025684Y031271D01*
X026001Y031271D01*
X026001Y030770D01*
X025372Y030802D02*
X025372Y030022D01*
X026001Y030022D01*
X025372Y030022D02*
X025372Y029208D01*
X024809Y030028D02*
X024809Y028021D01*
X022684Y028021D01*
X022778Y028583D02*
X022778Y030802D01*
X023809Y030802D01*
X023809Y030028D01*
X023309Y030028D02*
X023309Y028677D01*
X024309Y028677D01*
X024309Y030028D02*
X024309Y030802D01*
X025372Y030802D01*
X022778Y028583D02*
X021184Y028583D01*
X019934Y028583D01*
X017809Y030896D02*
X014247Y030896D01*
X012809Y032333D01*
X011684Y032333D01*
X011622Y032396D01*
X011247Y035396D02*
X012372Y035396D01*
X012372Y035896D02*
X012348Y035896D01*
X011247Y035896D01*
X011247Y036396D02*
X012348Y036396D01*
X012372Y036396D01*
X014395Y036396D02*
X015247Y036396D01*
X015497Y036146D01*
X015497Y035708D01*
X016747Y034458D02*
X016997Y034458D01*
X016997Y036208D01*
X019684Y036208D01*
X020684Y036208D01*
X020684Y037872D01*
X020684Y038677D01*
X021497Y038677D01*
X020184Y038208D02*
X020184Y039919D01*
X020184Y038208D02*
X020184Y037872D01*
X019997Y035521D02*
X017809Y035521D01*
X017809Y034021D01*
X019684Y034021D01*
X019684Y033021D02*
X016997Y033021D01*
X016997Y034458D01*
X016997Y033021D02*
X016997Y031896D01*
X016809Y031896D01*
X014434Y031896D01*
X016434Y024396D02*
X018309Y022521D01*
X018309Y021521D01*
X021184Y021490D02*
X021184Y021342D01*
X021247Y021280D01*
X021184Y020146D02*
X021184Y018708D01*
X022184Y018271D02*
X022184Y020177D01*
X021747Y020177D01*
X021747Y020208D01*
X022747Y021280D02*
X022997Y021280D01*
X022997Y021208D01*
X023684Y023396D02*
X023684Y024052D01*
X024591Y024052D01*
X022747Y024333D02*
X022747Y023700D01*
X022247Y023700D02*
X021747Y023700D01*
X021747Y024521D01*
X021684Y025396D02*
X021684Y025427D01*
X021684Y025396D02*
X022747Y024333D01*
X021247Y023740D02*
X021247Y023700D01*
X021247Y023740D02*
X021153Y023740D01*
X022184Y018271D02*
X022903Y018271D01*
X023247Y017927D01*
X023247Y017083D01*
X023966Y008583D02*
X023966Y008208D01*
X023184Y007427D01*
X023184Y007083D01*
X017184Y009021D02*
X017184Y009646D01*
X017184Y009021D02*
X016584Y009021D01*
X012784Y009021D02*
X012559Y009021D01*
X012809Y018521D02*
X012809Y018583D01*
X011559Y018583D01*
X011559Y018521D01*
X011184Y021052D02*
X009559Y021052D01*
X009559Y021708D01*
X009623Y021708D01*
X009623Y023525D01*
X009997Y024391D02*
X009997Y024396D01*
X011184Y024396D01*
X010371Y023525D02*
X010371Y023146D01*
X010184Y023146D01*
X010184Y021708D01*
X010309Y021708D01*
X011184Y021052D02*
X011184Y022396D01*
X012809Y042021D02*
X012934Y042021D01*
D42*
X018059Y040208D02*
X018153Y040208D01*
X018153Y039896D01*
X021184Y021490D02*
X021184Y021373D01*
X025684Y010740D02*
X025809Y010740D01*
D43*
X017809Y037208D02*
X016984Y037208D01*
X016984Y037958D01*
X016984Y037208D02*
X016059Y037208D01*
X016059Y037708D01*
X017809Y037708D01*
X017809Y038333D01*
X016059Y038333D01*
X016059Y037708D01*
X017809Y037708D02*
X017809Y037208D01*
D44*
X019684Y038271D02*
X019684Y038583D01*
X019559Y038583D01*
M02*
