G75*
G70*
%OFA0B0*%
%FSLAX24Y24*%
%IPPOS*%
%LPD*%
%AMOC8*
5,1,8,0,0,1.08239X$1,22.5*
%
%ADD10C,0.1340*%
%ADD11R,0.0375X0.0875*%
%ADD12R,0.0375X0.0187*%
%ADD13R,0.3750X0.2250*%
%ADD14C,0.0500*%
%ADD15R,0.0813X0.0313*%
%ADD16C,0.0680*%
%ADD17R,0.0316X0.0946*%
%ADD18R,0.0340X0.0880*%
%ADD19C,0.0840*%
%ADD20C,0.0434*%
%ADD21C,0.0730*%
%ADD22R,0.0640X0.0480*%
%ADD23R,0.0480X0.0640*%
%ADD24R,0.0750X0.0530*%
%ADD25R,0.1025X0.1025*%
%ADD26R,0.1690X0.1690*%
%ADD27C,0.0840*%
%ADD28R,0.0840X0.0840*%
%ADD29C,0.0780*%
%ADD30C,0.0907*%
%ADD31OC8,0.0840*%
%ADD32OC8,0.0680*%
%ADD33R,0.0980X0.0930*%
%ADD34OC8,0.0640*%
%ADD35R,0.0640X0.0640*%
%ADD36C,0.0740*%
%ADD37R,0.0940X0.0940*%
%ADD38R,0.0630X0.0750*%
%ADD39R,0.0946X0.0316*%
%ADD40C,0.0595*%
%ADD41C,0.0580*%
%ADD42R,0.0474X0.0631*%
%ADD43R,0.0631X0.0474*%
%ADD44OC8,0.0907*%
%ADD45R,0.0516X0.0516*%
D10*
X009984Y010271D03*
X009984Y028271D03*
X009984Y042021D03*
X027734Y042021D03*
X027734Y028271D03*
X027734Y010271D03*
D11*
X021184Y037021D03*
X020684Y037021D03*
X020184Y037021D03*
X019684Y037021D03*
D12*
X019684Y040427D03*
X020184Y040427D03*
X020684Y040427D03*
X021184Y040427D03*
D13*
X017559Y037708D03*
D14*
X023184Y007083D02*
X023184Y006708D01*
X025184Y006708D02*
X025184Y007083D01*
X020622Y006896D02*
X019809Y006896D01*
X010372Y006896D02*
X009872Y006896D01*
D15*
X011497Y035396D03*
X011497Y035896D03*
X011497Y036396D03*
X011497Y036896D03*
D16*
X012934Y041721D02*
X012934Y042321D01*
X013934Y042321D02*
X013934Y041721D01*
X014934Y041721D02*
X014934Y042321D01*
X015934Y042321D02*
X015934Y041721D01*
X016934Y041721D02*
X016934Y042321D01*
X017934Y042321D02*
X017934Y041721D01*
X019809Y041721D02*
X019809Y042321D01*
X020809Y042321D02*
X020809Y041721D01*
X021809Y041721D02*
X021809Y042321D01*
X022809Y042321D02*
X022809Y041721D01*
X023809Y041721D02*
X023809Y042321D01*
X024809Y042321D02*
X024809Y041721D01*
X022484Y040677D02*
X021884Y040677D01*
X021884Y039677D02*
X022484Y039677D01*
X022484Y038677D02*
X021884Y038677D01*
X021884Y037677D02*
X022484Y037677D01*
X019984Y034021D02*
X019384Y034021D01*
X019384Y033021D02*
X019984Y033021D01*
X019984Y032021D02*
X019384Y032021D01*
X019384Y031021D02*
X019984Y031021D01*
X018934Y028321D02*
X018934Y027721D01*
X017934Y027721D02*
X017934Y028321D01*
X016934Y028321D02*
X016934Y027721D01*
X015934Y027721D02*
X015934Y028321D01*
X015484Y030396D02*
X014884Y030396D01*
X014884Y031396D02*
X015484Y031396D01*
X015484Y032396D02*
X014884Y032396D01*
X014884Y033396D02*
X015484Y033396D01*
X026884Y023896D02*
X027484Y023896D01*
X027484Y022896D02*
X026884Y022896D01*
X026884Y021896D02*
X027484Y021896D01*
X027484Y020896D02*
X026884Y020896D01*
D17*
X024809Y030028D03*
X024309Y030028D03*
X023809Y030028D03*
X023309Y030028D03*
X023309Y032076D03*
X023809Y032076D03*
X024309Y032076D03*
X024809Y032076D03*
X021184Y037872D03*
X020684Y037872D03*
X020184Y037872D03*
X019684Y037872D03*
X019684Y039919D03*
X020184Y039919D03*
X020684Y039919D03*
X021184Y039919D03*
D18*
X021247Y023700D03*
X021747Y023700D03*
X022247Y023700D03*
X022747Y023700D03*
X022747Y021280D03*
X022247Y021280D03*
X021747Y021280D03*
X021247Y021280D03*
D19*
X022184Y007276D02*
X022184Y006516D01*
X024184Y006516D02*
X024184Y007276D01*
X026184Y007276D02*
X026184Y006516D01*
X028184Y006516D02*
X028184Y007276D01*
D20*
X028572Y035196D03*
X028572Y038346D03*
D21*
X026484Y017596D02*
X025835Y017596D01*
X024509Y015846D02*
X023860Y015846D01*
X022534Y017596D02*
X021885Y017596D01*
X011509Y020396D02*
X010860Y020396D01*
X010860Y022396D02*
X011509Y022396D01*
X011509Y024396D02*
X010860Y024396D01*
D22*
X010216Y030271D03*
X010216Y031021D03*
X018153Y039146D03*
X018153Y039896D03*
X025934Y037771D03*
X025934Y037021D03*
X024059Y022646D03*
X024059Y021896D03*
X020497Y022146D03*
X020497Y022896D03*
X016684Y015896D03*
X016684Y015146D03*
X016684Y014646D03*
X016684Y013896D03*
X014434Y015396D03*
X014434Y016146D03*
D23*
X016497Y021208D03*
X017247Y021208D03*
X021809Y016521D03*
X022559Y016521D03*
X024934Y010740D03*
X025684Y010740D03*
X025341Y024052D03*
X024591Y024052D03*
X015122Y034583D03*
X014372Y034583D03*
X013403Y037833D03*
X012653Y037833D03*
X016434Y040896D03*
X017184Y040896D03*
X010309Y021708D03*
X009559Y021708D03*
D24*
X024872Y010115D03*
X025809Y010115D03*
X025809Y008865D03*
X024872Y008865D03*
D25*
X022863Y008802D03*
X021131Y008802D03*
X019925Y008646D03*
X018193Y008646D03*
X018443Y012021D03*
X020175Y012021D03*
X020372Y016217D03*
X020372Y017949D03*
D26*
X016584Y009021D03*
X012784Y009021D03*
D27*
X021059Y010458D03*
X021059Y013771D03*
D28*
X022434Y013771D03*
X022434Y010458D03*
D29*
X011589Y014529D03*
X011589Y015513D03*
X010809Y015513D03*
X010809Y014529D03*
D30*
X010153Y012651D02*
X009326Y012651D01*
X009326Y017391D02*
X010153Y017391D01*
D31*
X017872Y015896D03*
X017872Y013896D03*
D32*
X009184Y008333D03*
X010184Y006896D03*
X011184Y006896D03*
X017309Y011146D03*
X019497Y013771D03*
X023966Y009052D03*
X023184Y006896D03*
X025184Y006896D03*
X027184Y006896D03*
X024809Y013021D03*
X020184Y006896D03*
X011372Y017896D03*
X011184Y021396D03*
X011528Y023490D03*
X013122Y027083D03*
X011559Y030708D03*
X014309Y022646D03*
X027747Y030396D03*
X028372Y023896D03*
X028372Y022896D03*
X028372Y021896D03*
X028372Y020896D03*
D33*
X025650Y014396D03*
X026719Y013271D03*
X028521Y013271D03*
X023848Y014396D03*
X015709Y020958D03*
X013906Y020958D03*
D34*
X011184Y031833D03*
X011184Y032833D03*
X011184Y033833D03*
X012184Y033833D03*
X012184Y032833D03*
D35*
X012184Y031833D03*
D36*
X016654Y037958D02*
X017314Y037958D01*
D37*
X014384Y037958D03*
D38*
X020684Y034833D03*
X022309Y034833D03*
D39*
X014395Y035396D03*
X014395Y035896D03*
X014395Y036396D03*
X014395Y036896D03*
X012348Y036896D03*
X012348Y036396D03*
X012348Y035896D03*
X012348Y035396D03*
D40*
X012684Y025685D02*
X012684Y025170D01*
X013684Y025170D02*
X013684Y025685D01*
X014684Y025685D02*
X014684Y025170D01*
X015684Y025170D02*
X015684Y025685D01*
X016684Y025685D02*
X016684Y025170D01*
X017684Y025170D02*
X017684Y025685D01*
X018684Y025685D02*
X018684Y025170D01*
X019684Y025170D02*
X019684Y025685D01*
X020684Y025685D02*
X020684Y025170D01*
X021684Y025170D02*
X021684Y025685D01*
X022684Y025685D02*
X022684Y025170D01*
X023684Y025170D02*
X023684Y025685D01*
X024684Y025685D02*
X024684Y025170D01*
X025684Y025170D02*
X025684Y025685D01*
X026684Y025685D02*
X026684Y025170D01*
X027684Y025170D02*
X027684Y025685D01*
X028684Y025685D02*
X028684Y025170D01*
X028684Y019685D02*
X028684Y019170D01*
X027684Y019170D02*
X027684Y019685D01*
X026684Y019685D02*
X026684Y019170D01*
X025684Y019170D02*
X025684Y019685D01*
X024684Y019685D02*
X024684Y019170D01*
X023684Y019170D02*
X023684Y019685D01*
X022684Y019685D02*
X022684Y019170D01*
X021684Y019170D02*
X021684Y019685D01*
X020684Y019685D02*
X020684Y019170D01*
X019684Y019170D02*
X019684Y019685D01*
X018684Y019685D02*
X018684Y019170D01*
X017684Y019170D02*
X017684Y019685D01*
X016684Y019685D02*
X016684Y019170D01*
X015684Y019170D02*
X015684Y019685D01*
X014684Y019685D02*
X014684Y019170D01*
X013684Y019170D02*
X013684Y019685D01*
X012684Y019685D02*
X012684Y019170D01*
X011684Y019170D02*
X011684Y019685D01*
X010684Y019685D02*
X010684Y019170D01*
X009684Y019170D02*
X009684Y019685D01*
X009684Y025170D02*
X009684Y025685D01*
X010684Y025685D02*
X010684Y025170D01*
X011684Y025170D02*
X011684Y025685D01*
D41*
X026809Y031396D02*
X027309Y031396D01*
X027309Y032021D02*
X026809Y032021D01*
X026809Y032646D02*
X027309Y032646D01*
X027309Y033271D02*
X026809Y033271D01*
D42*
X010371Y023525D03*
X009997Y024391D03*
X009623Y023525D03*
D43*
X013470Y039053D03*
X013470Y039801D03*
X014336Y039427D03*
X026001Y030770D03*
X026001Y030022D03*
X026867Y030396D03*
D44*
X024184Y017583D03*
D45*
X023247Y017083D03*
X023247Y015208D03*
X023184Y012146D03*
X021747Y011458D03*
X018934Y010396D03*
X017934Y010396D03*
X017309Y012396D03*
X014934Y013208D03*
X014559Y012646D03*
X014434Y014146D03*
X014434Y014771D03*
X014809Y016708D03*
X012809Y017146D03*
X012184Y018146D03*
X011372Y016771D03*
X012809Y013583D03*
X012559Y012083D03*
X011809Y012083D03*
X011966Y007271D03*
X017247Y007833D03*
X020434Y007771D03*
X019184Y015958D03*
X016747Y020396D03*
X016872Y022083D03*
X018309Y021521D03*
X018872Y020896D03*
X020684Y023990D03*
X021747Y024521D03*
X022684Y022833D03*
X022684Y022208D03*
X021716Y022208D03*
X023684Y023396D03*
X025184Y022646D03*
X023184Y026896D03*
X023778Y027396D03*
X024309Y028677D03*
X025372Y029208D03*
X026872Y029896D03*
X025684Y031271D03*
X025059Y033396D03*
X025059Y036708D03*
X025934Y038646D03*
X023434Y039896D03*
X019997Y035521D03*
X019684Y036208D03*
X018434Y034833D03*
X017809Y035521D03*
X016997Y036833D03*
X016997Y038646D03*
X015247Y036958D03*
X015497Y035708D03*
X016747Y034458D03*
X017809Y034021D03*
X016809Y031896D03*
X017809Y030896D03*
X017934Y029833D03*
X018747Y029646D03*
X019934Y028583D03*
X021184Y028583D03*
X021747Y027396D03*
X022684Y028021D03*
X022184Y029146D03*
X021184Y030146D03*
X022184Y034021D03*
X018809Y040646D03*
X013466Y038490D03*
X010278Y035333D03*
X014247Y030271D03*
X012903Y029146D03*
X012997Y028458D03*
X015247Y023771D03*
X015184Y022958D03*
X016434Y024396D03*
X013184Y020208D03*
X012934Y021833D03*
X012434Y022958D03*
X027872Y015833D03*
M02*
