G75*
G70*
%OFA0B0*%
%FSLAX24Y24*%
%IPPOS*%
%LPD*%
%AMOC8*
5,1,8,0,0,1.08239X$1,22.5*
%
%ADD10C,0.0320*%
%ADD11C,0.0600*%
%ADD12C,0.0760*%
%ADD13R,0.0660X0.0280*%
%ADD14R,0.0660X0.0300*%
%ADD15R,0.0650X0.0600*%
%ADD16R,0.0750X0.0500*%
%ADD17R,0.0900X0.0500*%
%ADD18C,0.0650*%
%ADD19R,0.4500X0.4400*%
%ADD20R,0.0420X0.0850*%
%ADD21R,0.0560X0.0400*%
%ADD22C,0.0760*%
%ADD23R,0.0760X0.0760*%
%ADD24C,0.0700*%
%ADD25C,0.0827*%
%ADD26R,0.0600X0.0250*%
%ADD27R,0.0400X0.0560*%
%ADD28OC8,0.0760*%
%ADD29R,0.0550X0.0670*%
%ADD30OC8,0.0600*%
%ADD31R,0.0945X0.0945*%
%ADD32OC8,0.0560*%
%ADD33R,0.0560X0.0560*%
%ADD34R,0.0700X0.1240*%
%ADD35C,0.0660*%
%ADD36R,0.0860X0.0860*%
%ADD37C,0.0515*%
%ADD38C,0.0500*%
%ADD39OC8,0.0827*%
%ADD40R,0.0436X0.0436*%
%ADD41C,0.0240*%
%ADD42C,0.0400*%
%ADD43C,0.0700*%
%ADD44C,0.0560*%
D10*
X009184Y006083D02*
X016684Y006083D01*
X016684Y006271D01*
X014559Y006271D01*
X014559Y008371D01*
X015184Y011801D02*
X015184Y012646D01*
X017309Y012646D01*
X017309Y012396D01*
X019997Y011208D02*
X021716Y012927D01*
X021747Y012958D01*
X021747Y014271D01*
X017559Y018458D01*
X014997Y018458D01*
X014997Y017708D01*
X014184Y017708D01*
X014122Y017708D01*
X014122Y017646D01*
X015131Y017646D01*
X014184Y017708D02*
X014184Y020208D01*
X013184Y020208D02*
X013184Y017646D01*
X012247Y017646D01*
X012247Y017240D01*
X009747Y017240D01*
X009747Y017391D01*
X009739Y017391D01*
X010809Y016208D02*
X010809Y015513D01*
X010809Y016208D02*
X011809Y016208D01*
X012809Y016583D02*
X012809Y017146D01*
X012809Y016583D02*
X013184Y016208D01*
X013372Y016708D02*
X013372Y017646D01*
X013184Y017646D01*
X013372Y016708D02*
X013623Y016708D01*
X011589Y014529D02*
X011559Y014499D01*
X011559Y012333D01*
X011809Y012083D01*
X012559Y012083D02*
X012559Y012771D01*
X012559Y013583D01*
X012809Y013583D01*
X012559Y012771D02*
X013889Y012771D01*
X013889Y011801D01*
X011747Y008333D02*
X011122Y008333D01*
X010372Y008333D02*
X009184Y008333D01*
X009184Y006083D01*
X008734Y010271D02*
X008736Y010341D01*
X008742Y010411D01*
X008752Y010480D01*
X008765Y010549D01*
X008783Y010617D01*
X008804Y010684D01*
X008829Y010749D01*
X008858Y010813D01*
X008890Y010876D01*
X008926Y010936D01*
X008965Y010994D01*
X009007Y011050D01*
X009052Y011104D01*
X009100Y011155D01*
X009151Y011203D01*
X009205Y011248D01*
X009261Y011290D01*
X009319Y011329D01*
X009379Y011365D01*
X009442Y011397D01*
X009506Y011426D01*
X009571Y011451D01*
X009638Y011472D01*
X009706Y011490D01*
X009775Y011503D01*
X009844Y011513D01*
X009914Y011519D01*
X009984Y011521D01*
X010054Y011519D01*
X010124Y011513D01*
X010193Y011503D01*
X010262Y011490D01*
X010330Y011472D01*
X010397Y011451D01*
X010462Y011426D01*
X010526Y011397D01*
X010589Y011365D01*
X010649Y011329D01*
X010707Y011290D01*
X010763Y011248D01*
X010817Y011203D01*
X010868Y011155D01*
X010916Y011104D01*
X010961Y011050D01*
X011003Y010994D01*
X011042Y010936D01*
X011078Y010876D01*
X011110Y010813D01*
X011139Y010749D01*
X011164Y010684D01*
X011185Y010617D01*
X011203Y010549D01*
X011216Y010480D01*
X011226Y010411D01*
X011232Y010341D01*
X011234Y010271D01*
X011232Y010201D01*
X011226Y010131D01*
X011216Y010062D01*
X011203Y009993D01*
X011185Y009925D01*
X011164Y009858D01*
X011139Y009793D01*
X011110Y009729D01*
X011078Y009666D01*
X011042Y009606D01*
X011003Y009548D01*
X010961Y009492D01*
X010916Y009438D01*
X010868Y009387D01*
X010817Y009339D01*
X010763Y009294D01*
X010707Y009252D01*
X010649Y009213D01*
X010589Y009177D01*
X010526Y009145D01*
X010462Y009116D01*
X010397Y009091D01*
X010330Y009070D01*
X010262Y009052D01*
X010193Y009039D01*
X010124Y009029D01*
X010054Y009023D01*
X009984Y009021D01*
X009914Y009023D01*
X009844Y009029D01*
X009775Y009039D01*
X009706Y009052D01*
X009638Y009070D01*
X009571Y009091D01*
X009506Y009116D01*
X009442Y009145D01*
X009379Y009177D01*
X009319Y009213D01*
X009261Y009252D01*
X009205Y009294D01*
X009151Y009339D01*
X009100Y009387D01*
X009052Y009438D01*
X009007Y009492D01*
X008965Y009548D01*
X008926Y009606D01*
X008890Y009666D01*
X008858Y009729D01*
X008829Y009793D01*
X008804Y009858D01*
X008783Y009925D01*
X008765Y009993D01*
X008752Y010062D01*
X008742Y010131D01*
X008736Y010201D01*
X008734Y010271D01*
X010684Y019427D02*
X010684Y019583D01*
X012684Y021771D02*
X012684Y021833D01*
X013184Y024771D02*
X013184Y026021D01*
X015184Y022958D02*
X015997Y022958D01*
X017559Y024521D01*
X021747Y024521D01*
X019684Y025740D02*
X020684Y026740D01*
X020684Y034927D01*
X023328Y037571D01*
X024222Y037571D01*
X024222Y037146D02*
X023716Y037146D01*
X021184Y034615D01*
X021184Y030146D01*
X022184Y029146D02*
X022184Y033146D01*
X023584Y034546D01*
X024222Y034546D01*
X024222Y035396D02*
X023528Y035396D01*
X022184Y034052D01*
X022184Y034021D01*
X021684Y034333D02*
X021684Y027396D01*
X021747Y027396D01*
X023184Y026896D02*
X023184Y032146D01*
X024434Y033396D01*
X025059Y033396D01*
X024559Y032646D02*
X023778Y031865D01*
X023778Y027396D01*
X026309Y029896D02*
X026309Y030646D01*
X026309Y029896D02*
X026872Y029896D01*
X027059Y030646D02*
X027747Y030646D01*
X027747Y030396D01*
X026484Y028271D02*
X026486Y028341D01*
X026492Y028411D01*
X026502Y028480D01*
X026515Y028549D01*
X026533Y028617D01*
X026554Y028684D01*
X026579Y028749D01*
X026608Y028813D01*
X026640Y028876D01*
X026676Y028936D01*
X026715Y028994D01*
X026757Y029050D01*
X026802Y029104D01*
X026850Y029155D01*
X026901Y029203D01*
X026955Y029248D01*
X027011Y029290D01*
X027069Y029329D01*
X027129Y029365D01*
X027192Y029397D01*
X027256Y029426D01*
X027321Y029451D01*
X027388Y029472D01*
X027456Y029490D01*
X027525Y029503D01*
X027594Y029513D01*
X027664Y029519D01*
X027734Y029521D01*
X027804Y029519D01*
X027874Y029513D01*
X027943Y029503D01*
X028012Y029490D01*
X028080Y029472D01*
X028147Y029451D01*
X028212Y029426D01*
X028276Y029397D01*
X028339Y029365D01*
X028399Y029329D01*
X028457Y029290D01*
X028513Y029248D01*
X028567Y029203D01*
X028618Y029155D01*
X028666Y029104D01*
X028711Y029050D01*
X028753Y028994D01*
X028792Y028936D01*
X028828Y028876D01*
X028860Y028813D01*
X028889Y028749D01*
X028914Y028684D01*
X028935Y028617D01*
X028953Y028549D01*
X028966Y028480D01*
X028976Y028411D01*
X028982Y028341D01*
X028984Y028271D01*
X028982Y028201D01*
X028976Y028131D01*
X028966Y028062D01*
X028953Y027993D01*
X028935Y027925D01*
X028914Y027858D01*
X028889Y027793D01*
X028860Y027729D01*
X028828Y027666D01*
X028792Y027606D01*
X028753Y027548D01*
X028711Y027492D01*
X028666Y027438D01*
X028618Y027387D01*
X028567Y027339D01*
X028513Y027294D01*
X028457Y027252D01*
X028399Y027213D01*
X028339Y027177D01*
X028276Y027145D01*
X028212Y027116D01*
X028147Y027091D01*
X028080Y027070D01*
X028012Y027052D01*
X027943Y027039D01*
X027874Y027029D01*
X027804Y027023D01*
X027734Y027021D01*
X027664Y027023D01*
X027594Y027029D01*
X027525Y027039D01*
X027456Y027052D01*
X027388Y027070D01*
X027321Y027091D01*
X027256Y027116D01*
X027192Y027145D01*
X027129Y027177D01*
X027069Y027213D01*
X027011Y027252D01*
X026955Y027294D01*
X026901Y027339D01*
X026850Y027387D01*
X026802Y027438D01*
X026757Y027492D01*
X026715Y027548D01*
X026676Y027606D01*
X026640Y027666D01*
X026608Y027729D01*
X026579Y027793D01*
X026554Y027858D01*
X026533Y027925D01*
X026515Y027993D01*
X026502Y028062D01*
X026492Y028131D01*
X026486Y028201D01*
X026484Y028271D01*
X021684Y034333D02*
X023622Y036271D01*
X024222Y036271D01*
X024222Y036708D02*
X025059Y036708D01*
X024222Y035833D02*
X026747Y035833D01*
X024028Y039771D02*
X024028Y039896D01*
X024028Y039771D02*
X023809Y039771D01*
X022809Y040677D02*
X022809Y040740D01*
X022809Y040677D02*
X022184Y040677D01*
X022184Y040927D01*
X021122Y040927D01*
X020481Y041411D02*
X020809Y041740D01*
X020809Y042021D01*
X020481Y041411D02*
X020481Y040146D01*
X020512Y040177D01*
X021122Y040177D01*
X020481Y040146D02*
X020481Y036005D01*
X019997Y035521D01*
X019122Y036271D02*
X019122Y034646D01*
X018622Y034146D01*
X018622Y031021D01*
X019684Y031021D01*
X018747Y029646D02*
X018747Y028958D01*
X018434Y028646D01*
X017434Y029333D02*
X017934Y029833D01*
X017434Y029333D02*
X017434Y028771D01*
X017434Y027396D02*
X017434Y026646D01*
X016684Y025896D01*
X016684Y025427D01*
X017684Y025427D02*
X018028Y025771D01*
X018028Y026865D01*
X018434Y027271D01*
X018434Y027396D01*
X019684Y025740D02*
X019684Y025427D01*
X016434Y026615D02*
X015684Y025865D01*
X015684Y025427D01*
X016434Y028646D02*
X016434Y029021D01*
X017309Y029896D01*
X017309Y034833D01*
X018434Y034833D01*
X018434Y036271D02*
X019122Y036271D01*
X016153Y033740D02*
X013466Y036427D01*
X013466Y038490D01*
X008734Y042021D02*
X008736Y042091D01*
X008742Y042161D01*
X008752Y042230D01*
X008765Y042299D01*
X008783Y042367D01*
X008804Y042434D01*
X008829Y042499D01*
X008858Y042563D01*
X008890Y042626D01*
X008926Y042686D01*
X008965Y042744D01*
X009007Y042800D01*
X009052Y042854D01*
X009100Y042905D01*
X009151Y042953D01*
X009205Y042998D01*
X009261Y043040D01*
X009319Y043079D01*
X009379Y043115D01*
X009442Y043147D01*
X009506Y043176D01*
X009571Y043201D01*
X009638Y043222D01*
X009706Y043240D01*
X009775Y043253D01*
X009844Y043263D01*
X009914Y043269D01*
X009984Y043271D01*
X010054Y043269D01*
X010124Y043263D01*
X010193Y043253D01*
X010262Y043240D01*
X010330Y043222D01*
X010397Y043201D01*
X010462Y043176D01*
X010526Y043147D01*
X010589Y043115D01*
X010649Y043079D01*
X010707Y043040D01*
X010763Y042998D01*
X010817Y042953D01*
X010868Y042905D01*
X010916Y042854D01*
X010961Y042800D01*
X011003Y042744D01*
X011042Y042686D01*
X011078Y042626D01*
X011110Y042563D01*
X011139Y042499D01*
X011164Y042434D01*
X011185Y042367D01*
X011203Y042299D01*
X011216Y042230D01*
X011226Y042161D01*
X011232Y042091D01*
X011234Y042021D01*
X011232Y041951D01*
X011226Y041881D01*
X011216Y041812D01*
X011203Y041743D01*
X011185Y041675D01*
X011164Y041608D01*
X011139Y041543D01*
X011110Y041479D01*
X011078Y041416D01*
X011042Y041356D01*
X011003Y041298D01*
X010961Y041242D01*
X010916Y041188D01*
X010868Y041137D01*
X010817Y041089D01*
X010763Y041044D01*
X010707Y041002D01*
X010649Y040963D01*
X010589Y040927D01*
X010526Y040895D01*
X010462Y040866D01*
X010397Y040841D01*
X010330Y040820D01*
X010262Y040802D01*
X010193Y040789D01*
X010124Y040779D01*
X010054Y040773D01*
X009984Y040771D01*
X009914Y040773D01*
X009844Y040779D01*
X009775Y040789D01*
X009706Y040802D01*
X009638Y040820D01*
X009571Y040841D01*
X009506Y040866D01*
X009442Y040895D01*
X009379Y040927D01*
X009319Y040963D01*
X009261Y041002D01*
X009205Y041044D01*
X009151Y041089D01*
X009100Y041137D01*
X009052Y041188D01*
X009007Y041242D01*
X008965Y041298D01*
X008926Y041356D01*
X008890Y041416D01*
X008858Y041479D01*
X008829Y041543D01*
X008804Y041608D01*
X008783Y041675D01*
X008765Y041743D01*
X008752Y041812D01*
X008742Y041881D01*
X008736Y041951D01*
X008734Y042021D01*
X008734Y028271D02*
X008736Y028341D01*
X008742Y028411D01*
X008752Y028480D01*
X008765Y028549D01*
X008783Y028617D01*
X008804Y028684D01*
X008829Y028749D01*
X008858Y028813D01*
X008890Y028876D01*
X008926Y028936D01*
X008965Y028994D01*
X009007Y029050D01*
X009052Y029104D01*
X009100Y029155D01*
X009151Y029203D01*
X009205Y029248D01*
X009261Y029290D01*
X009319Y029329D01*
X009379Y029365D01*
X009442Y029397D01*
X009506Y029426D01*
X009571Y029451D01*
X009638Y029472D01*
X009706Y029490D01*
X009775Y029503D01*
X009844Y029513D01*
X009914Y029519D01*
X009984Y029521D01*
X010054Y029519D01*
X010124Y029513D01*
X010193Y029503D01*
X010262Y029490D01*
X010330Y029472D01*
X010397Y029451D01*
X010462Y029426D01*
X010526Y029397D01*
X010589Y029365D01*
X010649Y029329D01*
X010707Y029290D01*
X010763Y029248D01*
X010817Y029203D01*
X010868Y029155D01*
X010916Y029104D01*
X010961Y029050D01*
X011003Y028994D01*
X011042Y028936D01*
X011078Y028876D01*
X011110Y028813D01*
X011139Y028749D01*
X011164Y028684D01*
X011185Y028617D01*
X011203Y028549D01*
X011216Y028480D01*
X011226Y028411D01*
X011232Y028341D01*
X011234Y028271D01*
X011232Y028201D01*
X011226Y028131D01*
X011216Y028062D01*
X011203Y027993D01*
X011185Y027925D01*
X011164Y027858D01*
X011139Y027793D01*
X011110Y027729D01*
X011078Y027666D01*
X011042Y027606D01*
X011003Y027548D01*
X010961Y027492D01*
X010916Y027438D01*
X010868Y027387D01*
X010817Y027339D01*
X010763Y027294D01*
X010707Y027252D01*
X010649Y027213D01*
X010589Y027177D01*
X010526Y027145D01*
X010462Y027116D01*
X010397Y027091D01*
X010330Y027070D01*
X010262Y027052D01*
X010193Y027039D01*
X010124Y027029D01*
X010054Y027023D01*
X009984Y027021D01*
X009914Y027023D01*
X009844Y027029D01*
X009775Y027039D01*
X009706Y027052D01*
X009638Y027070D01*
X009571Y027091D01*
X009506Y027116D01*
X009442Y027145D01*
X009379Y027177D01*
X009319Y027213D01*
X009261Y027252D01*
X009205Y027294D01*
X009151Y027339D01*
X009100Y027387D01*
X009052Y027438D01*
X009007Y027492D01*
X008965Y027548D01*
X008926Y027606D01*
X008890Y027666D01*
X008858Y027729D01*
X008829Y027793D01*
X008804Y027858D01*
X008783Y027925D01*
X008765Y027993D01*
X008752Y028062D01*
X008742Y028131D01*
X008736Y028201D01*
X008734Y028271D01*
X015372Y021271D02*
X015372Y020521D01*
X016122Y020521D02*
X016122Y020458D01*
X016747Y020458D01*
X016747Y020396D01*
X018184Y020271D02*
X018184Y018583D01*
X022184Y014583D01*
X023247Y015208D02*
X023247Y017083D01*
X024184Y017583D02*
X024184Y016521D01*
X024216Y016521D02*
X025497Y016521D01*
X025497Y013646D01*
X025925Y013217D01*
X026372Y013217D01*
X024809Y013021D02*
X023184Y013021D01*
X026372Y014949D02*
X026684Y014949D01*
X026684Y017596D01*
X026159Y017596D01*
X026184Y017583D02*
X026184Y019958D01*
X027684Y019427D02*
X027684Y019396D01*
X027872Y019396D01*
X026484Y010271D02*
X026486Y010341D01*
X026492Y010411D01*
X026502Y010480D01*
X026515Y010549D01*
X026533Y010617D01*
X026554Y010684D01*
X026579Y010749D01*
X026608Y010813D01*
X026640Y010876D01*
X026676Y010936D01*
X026715Y010994D01*
X026757Y011050D01*
X026802Y011104D01*
X026850Y011155D01*
X026901Y011203D01*
X026955Y011248D01*
X027011Y011290D01*
X027069Y011329D01*
X027129Y011365D01*
X027192Y011397D01*
X027256Y011426D01*
X027321Y011451D01*
X027388Y011472D01*
X027456Y011490D01*
X027525Y011503D01*
X027594Y011513D01*
X027664Y011519D01*
X027734Y011521D01*
X027804Y011519D01*
X027874Y011513D01*
X027943Y011503D01*
X028012Y011490D01*
X028080Y011472D01*
X028147Y011451D01*
X028212Y011426D01*
X028276Y011397D01*
X028339Y011365D01*
X028399Y011329D01*
X028457Y011290D01*
X028513Y011248D01*
X028567Y011203D01*
X028618Y011155D01*
X028666Y011104D01*
X028711Y011050D01*
X028753Y010994D01*
X028792Y010936D01*
X028828Y010876D01*
X028860Y010813D01*
X028889Y010749D01*
X028914Y010684D01*
X028935Y010617D01*
X028953Y010549D01*
X028966Y010480D01*
X028976Y010411D01*
X028982Y010341D01*
X028984Y010271D01*
X028982Y010201D01*
X028976Y010131D01*
X028966Y010062D01*
X028953Y009993D01*
X028935Y009925D01*
X028914Y009858D01*
X028889Y009793D01*
X028860Y009729D01*
X028828Y009666D01*
X028792Y009606D01*
X028753Y009548D01*
X028711Y009492D01*
X028666Y009438D01*
X028618Y009387D01*
X028567Y009339D01*
X028513Y009294D01*
X028457Y009252D01*
X028399Y009213D01*
X028339Y009177D01*
X028276Y009145D01*
X028212Y009116D01*
X028147Y009091D01*
X028080Y009070D01*
X028012Y009052D01*
X027943Y009039D01*
X027874Y009029D01*
X027804Y009023D01*
X027734Y009021D01*
X027664Y009023D01*
X027594Y009029D01*
X027525Y009039D01*
X027456Y009052D01*
X027388Y009070D01*
X027321Y009091D01*
X027256Y009116D01*
X027192Y009145D01*
X027129Y009177D01*
X027069Y009213D01*
X027011Y009252D01*
X026955Y009294D01*
X026901Y009339D01*
X026850Y009387D01*
X026802Y009438D01*
X026757Y009492D01*
X026715Y009548D01*
X026676Y009606D01*
X026640Y009666D01*
X026608Y009729D01*
X026579Y009793D01*
X026554Y009858D01*
X026533Y009925D01*
X026515Y009993D01*
X026502Y010062D01*
X026492Y010131D01*
X026486Y010201D01*
X026484Y010271D01*
X027184Y007615D02*
X027184Y006896D01*
X025184Y006896D02*
X025184Y007615D01*
X016863Y016708D02*
X016863Y017646D01*
X016863Y016708D02*
X015745Y016708D01*
X018684Y019427D02*
X018872Y019427D01*
X018872Y020896D01*
X026484Y042021D02*
X026486Y042091D01*
X026492Y042161D01*
X026502Y042230D01*
X026515Y042299D01*
X026533Y042367D01*
X026554Y042434D01*
X026579Y042499D01*
X026608Y042563D01*
X026640Y042626D01*
X026676Y042686D01*
X026715Y042744D01*
X026757Y042800D01*
X026802Y042854D01*
X026850Y042905D01*
X026901Y042953D01*
X026955Y042998D01*
X027011Y043040D01*
X027069Y043079D01*
X027129Y043115D01*
X027192Y043147D01*
X027256Y043176D01*
X027321Y043201D01*
X027388Y043222D01*
X027456Y043240D01*
X027525Y043253D01*
X027594Y043263D01*
X027664Y043269D01*
X027734Y043271D01*
X027804Y043269D01*
X027874Y043263D01*
X027943Y043253D01*
X028012Y043240D01*
X028080Y043222D01*
X028147Y043201D01*
X028212Y043176D01*
X028276Y043147D01*
X028339Y043115D01*
X028399Y043079D01*
X028457Y043040D01*
X028513Y042998D01*
X028567Y042953D01*
X028618Y042905D01*
X028666Y042854D01*
X028711Y042800D01*
X028753Y042744D01*
X028792Y042686D01*
X028828Y042626D01*
X028860Y042563D01*
X028889Y042499D01*
X028914Y042434D01*
X028935Y042367D01*
X028953Y042299D01*
X028966Y042230D01*
X028976Y042161D01*
X028982Y042091D01*
X028984Y042021D01*
X028982Y041951D01*
X028976Y041881D01*
X028966Y041812D01*
X028953Y041743D01*
X028935Y041675D01*
X028914Y041608D01*
X028889Y041543D01*
X028860Y041479D01*
X028828Y041416D01*
X028792Y041356D01*
X028753Y041298D01*
X028711Y041242D01*
X028666Y041188D01*
X028618Y041137D01*
X028567Y041089D01*
X028513Y041044D01*
X028457Y041002D01*
X028399Y040963D01*
X028339Y040927D01*
X028276Y040895D01*
X028212Y040866D01*
X028147Y040841D01*
X028080Y040820D01*
X028012Y040802D01*
X027943Y040789D01*
X027874Y040779D01*
X027804Y040773D01*
X027734Y040771D01*
X027664Y040773D01*
X027594Y040779D01*
X027525Y040789D01*
X027456Y040802D01*
X027388Y040820D01*
X027321Y040841D01*
X027256Y040866D01*
X027192Y040895D01*
X027129Y040927D01*
X027069Y040963D01*
X027011Y041002D01*
X026955Y041044D01*
X026901Y041089D01*
X026850Y041137D01*
X026802Y041188D01*
X026757Y041242D01*
X026715Y041298D01*
X026676Y041356D01*
X026640Y041416D01*
X026608Y041479D01*
X026579Y041543D01*
X026554Y041608D01*
X026533Y041675D01*
X026515Y041743D01*
X026502Y041812D01*
X026492Y041881D01*
X026486Y041951D01*
X026484Y042021D01*
D11*
X024809Y041721D02*
X024809Y042321D01*
X023809Y042321D02*
X023809Y041721D01*
X022809Y041721D02*
X022809Y042321D01*
X021809Y042321D02*
X021809Y041721D01*
X021884Y040677D02*
X022484Y040677D01*
X022484Y039677D02*
X021884Y039677D01*
X021884Y038677D02*
X022484Y038677D01*
X022484Y037677D02*
X021884Y037677D01*
X019984Y034021D02*
X019384Y034021D01*
X019384Y033021D02*
X019984Y033021D01*
X019984Y032021D02*
X019384Y032021D01*
X019384Y031021D02*
X019984Y031021D01*
X018934Y028321D02*
X018934Y027721D01*
X017934Y027721D02*
X017934Y028321D01*
X016934Y028321D02*
X016934Y027721D01*
X015934Y027721D02*
X015934Y028321D01*
X015484Y030396D02*
X014884Y030396D01*
X014884Y031396D02*
X015484Y031396D01*
X015484Y032396D02*
X014884Y032396D01*
X014884Y033396D02*
X015484Y033396D01*
X015934Y041721D02*
X015934Y042321D01*
X016934Y042321D02*
X016934Y041721D01*
X017934Y041721D02*
X017934Y042321D01*
X019809Y042321D02*
X019809Y041721D01*
X020809Y041721D02*
X020809Y042321D01*
X014934Y042321D02*
X014934Y041721D01*
X013934Y041721D02*
X013934Y042321D01*
X012934Y042321D02*
X012934Y041721D01*
X026884Y023896D02*
X027484Y023896D01*
X027484Y022896D02*
X026884Y022896D01*
X026884Y021896D02*
X027484Y021896D01*
X027484Y020896D02*
X026884Y020896D01*
D12*
X026184Y007276D02*
X026184Y006516D01*
X028184Y006516D02*
X028184Y007276D01*
X024184Y007276D02*
X024184Y006516D01*
X022184Y006516D02*
X022184Y007276D01*
D13*
X024222Y034546D03*
X024222Y034971D03*
X024222Y035396D03*
X024222Y036271D03*
X024222Y037146D03*
X024222Y037571D03*
X024222Y037996D03*
D14*
X024222Y036708D03*
X024222Y035833D03*
D15*
X024647Y039771D03*
D16*
X024672Y034046D03*
D17*
X028372Y034071D03*
X028372Y040221D03*
D18*
X026484Y017596D02*
X025835Y017596D01*
X024509Y015846D02*
X023860Y015846D01*
X022534Y017596D02*
X021885Y017596D01*
X011509Y020396D02*
X010860Y020396D01*
X010860Y022396D02*
X011509Y022396D01*
X011509Y024396D02*
X010860Y024396D01*
D19*
X014559Y008371D03*
D20*
X014559Y011801D03*
X013889Y011801D03*
X013219Y011801D03*
X015229Y011801D03*
X015899Y011801D03*
D21*
X025684Y029958D03*
X025684Y030708D03*
X021122Y040177D03*
X021122Y040927D03*
X018809Y039896D03*
X018809Y039146D03*
X018434Y036271D03*
X018434Y035521D03*
D22*
X021059Y013771D03*
X021059Y010458D03*
D23*
X022434Y010458D03*
X022434Y013771D03*
D24*
X011589Y014529D03*
X011589Y015513D03*
X010809Y015513D03*
X010809Y014529D03*
D25*
X010153Y012651D02*
X009326Y012651D01*
X009326Y017391D02*
X010153Y017391D01*
D26*
X013623Y016708D03*
X013623Y016208D03*
X013623Y015708D03*
X013623Y015208D03*
X013623Y014708D03*
X013623Y014208D03*
X013623Y013708D03*
X013623Y013208D03*
X015745Y013208D03*
X015745Y013708D03*
X015745Y014208D03*
X015745Y014708D03*
X015745Y015208D03*
X015745Y015708D03*
X015745Y016208D03*
X015745Y016708D03*
D27*
X014122Y017708D03*
X013372Y017708D03*
X015372Y020521D03*
X016122Y020521D03*
X024559Y032646D03*
X025309Y032646D03*
X026309Y030646D03*
X027059Y030646D03*
X024028Y040740D03*
X023278Y040740D03*
X011122Y008333D03*
X010372Y008333D03*
D28*
X017872Y013896D03*
X017872Y015896D03*
D29*
X015372Y021271D03*
X013747Y021271D03*
D30*
X014309Y022646D03*
X011528Y023490D03*
X011184Y021396D03*
X011372Y017896D03*
X017309Y011146D03*
X019497Y013771D03*
X023966Y009052D03*
X023184Y006896D03*
X025184Y006896D03*
X027184Y006896D03*
X024809Y013021D03*
X020184Y006896D03*
X011184Y006896D03*
X010184Y006896D03*
X009184Y008333D03*
X013122Y027083D03*
X011559Y030708D03*
X027747Y030396D03*
X028372Y023896D03*
X028372Y022896D03*
X028372Y021896D03*
X028372Y020896D03*
D31*
X026372Y014949D03*
X026372Y013217D03*
X016863Y017646D03*
X015131Y017646D03*
D32*
X011184Y031833D03*
X011184Y032833D03*
X011184Y033833D03*
X012184Y033833D03*
X012184Y032833D03*
D33*
X012184Y031833D03*
D34*
X012478Y023990D03*
X014578Y023990D03*
X017447Y009146D03*
X019547Y009146D03*
D35*
X017314Y037958D02*
X016654Y037958D01*
D36*
X014384Y037958D03*
D37*
X014684Y025685D02*
X014684Y025170D01*
X013684Y025170D02*
X013684Y025685D01*
X012684Y025685D02*
X012684Y025170D01*
X011684Y025170D02*
X011684Y025685D01*
X010684Y025685D02*
X010684Y025170D01*
X009684Y025170D02*
X009684Y025685D01*
X009684Y019685D02*
X009684Y019170D01*
X010684Y019170D02*
X010684Y019685D01*
X011684Y019685D02*
X011684Y019170D01*
X012684Y019170D02*
X012684Y019685D01*
X013684Y019685D02*
X013684Y019170D01*
X014684Y019170D02*
X014684Y019685D01*
X015684Y019685D02*
X015684Y019170D01*
X016684Y019170D02*
X016684Y019685D01*
X017684Y019685D02*
X017684Y019170D01*
X018684Y019170D02*
X018684Y019685D01*
X019684Y019685D02*
X019684Y019170D01*
X020684Y019170D02*
X020684Y019685D01*
X021684Y019685D02*
X021684Y019170D01*
X022684Y019170D02*
X022684Y019685D01*
X023684Y019685D02*
X023684Y019170D01*
X024684Y019170D02*
X024684Y019685D01*
X025684Y019685D02*
X025684Y019170D01*
X026684Y019170D02*
X026684Y019685D01*
X027684Y019685D02*
X027684Y019170D01*
X028684Y019170D02*
X028684Y019685D01*
X028684Y025170D02*
X028684Y025685D01*
X027684Y025685D02*
X027684Y025170D01*
X026684Y025170D02*
X026684Y025685D01*
X025684Y025685D02*
X025684Y025170D01*
X024684Y025170D02*
X024684Y025685D01*
X023684Y025685D02*
X023684Y025170D01*
X022684Y025170D02*
X022684Y025685D01*
X021684Y025685D02*
X021684Y025170D01*
X020684Y025170D02*
X020684Y025685D01*
X019684Y025685D02*
X019684Y025170D01*
X018684Y025170D02*
X018684Y025685D01*
X017684Y025685D02*
X017684Y025170D01*
X016684Y025170D02*
X016684Y025685D01*
X015684Y025685D02*
X015684Y025170D01*
D38*
X023184Y013021D02*
X023184Y012146D01*
X027278Y008396D02*
X027653Y008396D01*
X028184Y007865D01*
X028184Y006896D01*
X018934Y010396D02*
X017934Y010396D01*
X027184Y020896D02*
X028372Y020896D01*
X028372Y021896D02*
X027184Y021896D01*
X027184Y022896D02*
X028372Y022896D01*
X028372Y023896D02*
X027184Y023896D01*
X027309Y031396D02*
X026809Y031396D01*
X026809Y032021D02*
X027309Y032021D01*
X027309Y032646D02*
X026809Y032646D01*
X026809Y033271D02*
X027309Y033271D01*
D39*
X024184Y017583D03*
D40*
X023247Y017083D03*
X023247Y015208D03*
X023184Y012146D03*
X021747Y011458D03*
X018934Y010396D03*
X017934Y010396D03*
X017309Y012396D03*
X014934Y013208D03*
X014559Y012646D03*
X014434Y014146D03*
X014434Y014771D03*
X014809Y016708D03*
X012809Y017146D03*
X012184Y018146D03*
X011372Y016771D03*
X012809Y013583D03*
X012559Y012083D03*
X011809Y012083D03*
X011966Y007271D03*
X017247Y007833D03*
X020434Y007771D03*
X019184Y015958D03*
X016747Y020396D03*
X016872Y022083D03*
X018309Y021521D03*
X018872Y020896D03*
X020684Y023990D03*
X021747Y024521D03*
X022684Y022833D03*
X022684Y022208D03*
X021716Y022208D03*
X023684Y023396D03*
X025184Y022646D03*
X023184Y026896D03*
X023778Y027396D03*
X024309Y028677D03*
X025372Y029208D03*
X026872Y029896D03*
X025684Y031271D03*
X025059Y033396D03*
X025059Y036708D03*
X025934Y038646D03*
X023434Y039896D03*
X019997Y035521D03*
X019684Y036208D03*
X018434Y034833D03*
X017809Y035521D03*
X016997Y036833D03*
X016997Y038646D03*
X015247Y036958D03*
X015497Y035708D03*
X016747Y034458D03*
X017809Y034021D03*
X016809Y031896D03*
X017809Y030896D03*
X017934Y029833D03*
X018747Y029646D03*
X019934Y028583D03*
X021184Y028583D03*
X021747Y027396D03*
X022684Y028021D03*
X022184Y029146D03*
X021184Y030146D03*
X022184Y034021D03*
X018809Y040646D03*
X013466Y038490D03*
X010278Y035333D03*
X014247Y030271D03*
X012903Y029146D03*
X012997Y028458D03*
X015247Y023771D03*
X015184Y022958D03*
X016434Y024396D03*
X013184Y020208D03*
X012934Y021833D03*
X012434Y022958D03*
X027872Y015833D03*
D41*
X025184Y018271D02*
X023622Y018271D01*
X023247Y017896D01*
X023247Y017083D01*
X024184Y016521D02*
X024216Y016521D01*
X025184Y018271D02*
X025184Y022646D01*
X024247Y023771D02*
X023966Y024052D01*
X023184Y024052D01*
X023184Y026333D01*
X021184Y026333D01*
X021184Y028583D01*
X019934Y028583D02*
X019934Y030333D01*
X018372Y030333D01*
X017809Y030896D01*
X017809Y034021D01*
X016747Y034458D02*
X015497Y035708D01*
X016684Y035521D02*
X015247Y036958D01*
X016684Y035521D02*
X017809Y035521D01*
X016809Y031896D02*
X016809Y030083D01*
X015184Y028458D01*
X015184Y024708D01*
X015497Y024396D01*
X016434Y024396D01*
X018309Y021521D02*
X021872Y021521D01*
X022684Y020708D01*
X022684Y019427D01*
X022684Y018677D01*
X024216Y018677D01*
X024216Y020271D01*
X024684Y020740D01*
X024684Y024052D01*
X024184Y024552D01*
X024184Y026146D01*
X024309Y026271D01*
X024309Y028677D01*
X025372Y029208D02*
X025684Y029208D01*
X025684Y029958D01*
X025684Y030708D02*
X025684Y031271D01*
X025309Y032646D02*
X025309Y032771D01*
X024059Y034021D02*
X026809Y034021D01*
X026809Y034083D01*
X026747Y035833D02*
X026809Y035896D01*
X028372Y034071D02*
X028372Y034046D01*
X025747Y029208D02*
X025372Y029208D01*
X025747Y029208D02*
X025747Y027521D01*
X026184Y027083D01*
X026184Y024521D01*
X024247Y023771D02*
X024247Y020990D01*
X023684Y020427D01*
X023684Y019427D01*
X018434Y027396D02*
X018434Y028646D01*
X017434Y028771D02*
X017434Y027396D01*
X016434Y027271D02*
X016434Y028646D01*
X015872Y030896D02*
X014091Y030896D01*
X013528Y030333D01*
X013528Y029833D01*
X011684Y033333D02*
X012184Y033833D01*
X011684Y033333D02*
X010122Y033333D01*
X010122Y033302D01*
X015434Y040958D02*
X016247Y040958D01*
X016434Y041146D01*
X019809Y041146D01*
X024059Y039771D02*
X024647Y039771D01*
X012434Y022958D02*
X012434Y022927D01*
X009809Y022927D01*
X009809Y020458D01*
X010684Y019583D01*
X011372Y016771D02*
X011934Y016771D01*
X012997Y015708D01*
X013623Y015708D01*
X013623Y015208D02*
X014434Y015208D01*
X014434Y014771D01*
X014434Y014146D02*
X013997Y013708D01*
X013623Y013708D01*
X013623Y013208D02*
X014934Y013208D01*
X015184Y011801D02*
X015229Y011801D01*
X013623Y014208D02*
X012872Y014208D01*
X011589Y015491D01*
X011589Y015513D01*
X011809Y016208D02*
X012997Y015021D01*
X012997Y014708D01*
X013623Y014708D01*
X013623Y016208D02*
X013184Y016208D01*
X013623Y016708D02*
X014809Y016708D01*
X013219Y011801D02*
X013219Y011646D01*
X025184Y007615D02*
X025466Y007896D01*
X026903Y007896D01*
X027184Y007615D01*
D42*
X027278Y008396D02*
X022434Y008396D01*
X022434Y010458D01*
X022872Y011458D02*
X021747Y011458D01*
X021059Y010458D02*
X021059Y006896D01*
X020184Y006896D01*
X020434Y007771D02*
X019547Y007771D01*
X019547Y009146D01*
X019547Y009333D01*
X019559Y009333D01*
X019559Y010771D01*
X021716Y012927D01*
X021059Y013771D02*
X019184Y015646D01*
X019184Y015958D01*
X021059Y013771D02*
X019122Y011833D01*
X015899Y011833D01*
X015899Y011801D01*
X014559Y011801D02*
X014559Y012646D01*
X014559Y011801D02*
X014559Y008371D01*
X013219Y011396D02*
X011747Y011396D01*
X011747Y008333D01*
X011747Y007490D01*
X011966Y007271D01*
X011184Y006896D02*
X010184Y006896D01*
X013219Y011396D02*
X013219Y011646D01*
X017247Y007833D02*
X017447Y007833D01*
X017447Y009146D01*
X022184Y014583D02*
X023184Y014583D01*
X023184Y013021D01*
X022872Y011458D02*
X023497Y010833D01*
X025684Y010833D01*
X027309Y012458D01*
X027309Y018146D01*
X026684Y018771D01*
X026684Y019427D01*
X026184Y019958D02*
X026184Y024521D01*
X028684Y024521D01*
X028684Y025427D01*
X027872Y019396D02*
X027872Y015833D01*
X026184Y017583D02*
X026159Y017583D01*
X026159Y017596D01*
X023684Y023396D02*
X018184Y023396D01*
X016872Y022083D01*
X016747Y021271D02*
X016059Y021958D01*
X013747Y021958D01*
X013309Y022396D01*
X011184Y022396D01*
X011184Y024396D02*
X012322Y024396D01*
X012716Y024396D01*
X012478Y024158D01*
X012478Y023990D01*
X012322Y024271D02*
X012322Y024396D01*
X012716Y024396D02*
X013122Y024396D01*
X013153Y024365D01*
X013153Y023458D01*
X013966Y022646D01*
X014309Y022646D01*
X014578Y023771D02*
X014578Y023990D01*
X014578Y023771D02*
X015247Y023771D01*
X013716Y025427D02*
X013684Y025427D01*
X013716Y025427D02*
X013716Y025833D01*
X014247Y026365D01*
X014247Y030271D01*
X013528Y029833D02*
X013528Y027833D01*
X012497Y027833D01*
X012497Y025427D01*
X012684Y025427D01*
X013184Y026021D02*
X013184Y027083D01*
X013122Y027083D01*
X012997Y028458D02*
X012309Y028458D01*
X012309Y030771D01*
X013184Y031646D01*
X013184Y034552D01*
X011184Y034552D01*
X011184Y033833D01*
X010122Y033302D02*
X010122Y030646D01*
X011684Y029083D01*
X011684Y026396D01*
X011684Y025427D01*
X011684Y026396D02*
X009059Y026396D01*
X009059Y018521D01*
X012184Y018521D01*
X012184Y018146D01*
X013372Y017708D02*
X013372Y017646D01*
X012684Y019427D02*
X012684Y021833D01*
X012934Y021833D01*
X013122Y024396D02*
X013184Y024396D01*
X013184Y024771D01*
X016434Y026615D02*
X016434Y027271D01*
X016153Y030896D02*
X015872Y030896D01*
X016153Y030896D02*
X016153Y033740D01*
X015184Y031396D02*
X013872Y031396D01*
X012903Y030427D01*
X012903Y029146D01*
X010122Y033302D02*
X010122Y035333D01*
X010278Y035333D01*
X015434Y040958D02*
X015434Y041271D01*
X015434Y042833D02*
X015434Y043021D01*
X020809Y043021D01*
X020809Y042021D01*
X019809Y042021D02*
X019809Y041146D01*
X019809Y039146D01*
X018809Y039146D01*
X018809Y039896D02*
X018809Y040646D01*
X016984Y040646D01*
X016984Y037958D01*
X016984Y036271D01*
X018434Y036271D01*
X018434Y035521D02*
X018434Y034833D01*
X018434Y034771D01*
X019684Y036208D02*
X019809Y036208D01*
X019809Y039146D01*
X022809Y040740D02*
X022809Y042021D01*
X023809Y042021D02*
X024028Y042021D01*
X024028Y040740D01*
X024028Y039896D01*
X023434Y039896D01*
X023809Y039771D02*
X024647Y039771D01*
X026809Y039771D01*
X027184Y039771D01*
X027184Y034052D01*
X026809Y034083D02*
X026809Y035896D01*
X026809Y038646D01*
X025934Y038646D01*
X026809Y038646D02*
X026809Y039771D01*
X027184Y039771D02*
X028372Y039771D01*
X028372Y040221D01*
X028372Y034046D02*
X027966Y034046D01*
X027966Y032646D01*
X027059Y032646D01*
X027059Y033271D02*
X025997Y033271D01*
X025372Y032646D01*
X025309Y032646D01*
X024672Y034021D02*
X024672Y034046D01*
X024684Y034046D01*
X024684Y034083D01*
X024672Y034046D02*
X027966Y034046D01*
X024672Y034021D02*
X024059Y034021D01*
X022684Y032646D01*
X022684Y028021D01*
X017184Y021271D02*
X018184Y020271D01*
X017184Y021271D02*
X016747Y021271D01*
X022809Y040740D02*
X023278Y040740D01*
D43*
X017809Y038333D02*
X017809Y037208D01*
X016059Y037208D01*
X016059Y037833D01*
X017684Y037833D01*
X017809Y038333D02*
X016984Y038333D01*
X016984Y037958D01*
X016984Y038333D02*
X016059Y038333D01*
X016059Y037833D01*
D44*
X014184Y021271D02*
X013747Y021271D01*
X014184Y021271D02*
X014184Y020208D01*
M02*
