G75*
G70*
%OFA0B0*%
%FSLAX24Y24*%
%IPPOS*%
%LPD*%
%AMOC8*
5,1,8,0,0,1.08239X$1,22.5*
%
%ADD10C,0.0000*%
%ADD11C,0.0030*%
%ADD12C,0.0050*%
%ADD13C,0.0040*%
%ADD14C,0.0400*%
%ADD15C,0.0120*%
%ADD16C,0.0160*%
%ADD17C,0.0060*%
%ADD18C,0.0080*%
%ADD19R,0.0380X0.0660*%
%ADD20R,0.0148X0.1152*%
%ADD21C,0.0010*%
%ADD22R,0.0140X0.0500*%
D10*
X008434Y005521D02*
X008434Y043641D01*
X029426Y043641D01*
X029426Y033083D01*
X028684Y033083D01*
X028684Y030021D01*
X029434Y030021D01*
X029426Y005521D01*
X008434Y005521D01*
X009354Y010271D02*
X009356Y010321D01*
X009362Y010371D01*
X009372Y010420D01*
X009386Y010468D01*
X009403Y010515D01*
X009424Y010560D01*
X009449Y010604D01*
X009477Y010645D01*
X009509Y010684D01*
X009543Y010721D01*
X009580Y010755D01*
X009620Y010785D01*
X009662Y010812D01*
X009706Y010836D01*
X009752Y010857D01*
X009799Y010873D01*
X009847Y010886D01*
X009897Y010895D01*
X009946Y010900D01*
X009997Y010901D01*
X010047Y010898D01*
X010096Y010891D01*
X010145Y010880D01*
X010193Y010865D01*
X010239Y010847D01*
X010284Y010825D01*
X010327Y010799D01*
X010368Y010770D01*
X010407Y010738D01*
X010443Y010703D01*
X010475Y010665D01*
X010505Y010625D01*
X010532Y010582D01*
X010555Y010538D01*
X010574Y010492D01*
X010590Y010444D01*
X010602Y010395D01*
X010610Y010346D01*
X010614Y010296D01*
X010614Y010246D01*
X010610Y010196D01*
X010602Y010147D01*
X010590Y010098D01*
X010574Y010050D01*
X010555Y010004D01*
X010532Y009960D01*
X010505Y009917D01*
X010475Y009877D01*
X010443Y009839D01*
X010407Y009804D01*
X010368Y009772D01*
X010327Y009743D01*
X010284Y009717D01*
X010239Y009695D01*
X010193Y009677D01*
X010145Y009662D01*
X010096Y009651D01*
X010047Y009644D01*
X009997Y009641D01*
X009946Y009642D01*
X009897Y009647D01*
X009847Y009656D01*
X009799Y009669D01*
X009752Y009685D01*
X009706Y009706D01*
X009662Y009730D01*
X009620Y009757D01*
X009580Y009787D01*
X009543Y009821D01*
X009509Y009858D01*
X009477Y009897D01*
X009449Y009938D01*
X009424Y009982D01*
X009403Y010027D01*
X009386Y010074D01*
X009372Y010122D01*
X009362Y010171D01*
X009356Y010221D01*
X009354Y010271D01*
X009354Y028271D02*
X009356Y028321D01*
X009362Y028371D01*
X009372Y028420D01*
X009386Y028468D01*
X009403Y028515D01*
X009424Y028560D01*
X009449Y028604D01*
X009477Y028645D01*
X009509Y028684D01*
X009543Y028721D01*
X009580Y028755D01*
X009620Y028785D01*
X009662Y028812D01*
X009706Y028836D01*
X009752Y028857D01*
X009799Y028873D01*
X009847Y028886D01*
X009897Y028895D01*
X009946Y028900D01*
X009997Y028901D01*
X010047Y028898D01*
X010096Y028891D01*
X010145Y028880D01*
X010193Y028865D01*
X010239Y028847D01*
X010284Y028825D01*
X010327Y028799D01*
X010368Y028770D01*
X010407Y028738D01*
X010443Y028703D01*
X010475Y028665D01*
X010505Y028625D01*
X010532Y028582D01*
X010555Y028538D01*
X010574Y028492D01*
X010590Y028444D01*
X010602Y028395D01*
X010610Y028346D01*
X010614Y028296D01*
X010614Y028246D01*
X010610Y028196D01*
X010602Y028147D01*
X010590Y028098D01*
X010574Y028050D01*
X010555Y028004D01*
X010532Y027960D01*
X010505Y027917D01*
X010475Y027877D01*
X010443Y027839D01*
X010407Y027804D01*
X010368Y027772D01*
X010327Y027743D01*
X010284Y027717D01*
X010239Y027695D01*
X010193Y027677D01*
X010145Y027662D01*
X010096Y027651D01*
X010047Y027644D01*
X009997Y027641D01*
X009946Y027642D01*
X009897Y027647D01*
X009847Y027656D01*
X009799Y027669D01*
X009752Y027685D01*
X009706Y027706D01*
X009662Y027730D01*
X009620Y027757D01*
X009580Y027787D01*
X009543Y027821D01*
X009509Y027858D01*
X009477Y027897D01*
X009449Y027938D01*
X009424Y027982D01*
X009403Y028027D01*
X009386Y028074D01*
X009372Y028122D01*
X009362Y028171D01*
X009356Y028221D01*
X009354Y028271D01*
X009354Y042021D02*
X009356Y042071D01*
X009362Y042121D01*
X009372Y042170D01*
X009386Y042218D01*
X009403Y042265D01*
X009424Y042310D01*
X009449Y042354D01*
X009477Y042395D01*
X009509Y042434D01*
X009543Y042471D01*
X009580Y042505D01*
X009620Y042535D01*
X009662Y042562D01*
X009706Y042586D01*
X009752Y042607D01*
X009799Y042623D01*
X009847Y042636D01*
X009897Y042645D01*
X009946Y042650D01*
X009997Y042651D01*
X010047Y042648D01*
X010096Y042641D01*
X010145Y042630D01*
X010193Y042615D01*
X010239Y042597D01*
X010284Y042575D01*
X010327Y042549D01*
X010368Y042520D01*
X010407Y042488D01*
X010443Y042453D01*
X010475Y042415D01*
X010505Y042375D01*
X010532Y042332D01*
X010555Y042288D01*
X010574Y042242D01*
X010590Y042194D01*
X010602Y042145D01*
X010610Y042096D01*
X010614Y042046D01*
X010614Y041996D01*
X010610Y041946D01*
X010602Y041897D01*
X010590Y041848D01*
X010574Y041800D01*
X010555Y041754D01*
X010532Y041710D01*
X010505Y041667D01*
X010475Y041627D01*
X010443Y041589D01*
X010407Y041554D01*
X010368Y041522D01*
X010327Y041493D01*
X010284Y041467D01*
X010239Y041445D01*
X010193Y041427D01*
X010145Y041412D01*
X010096Y041401D01*
X010047Y041394D01*
X009997Y041391D01*
X009946Y041392D01*
X009897Y041397D01*
X009847Y041406D01*
X009799Y041419D01*
X009752Y041435D01*
X009706Y041456D01*
X009662Y041480D01*
X009620Y041507D01*
X009580Y041537D01*
X009543Y041571D01*
X009509Y041608D01*
X009477Y041647D01*
X009449Y041688D01*
X009424Y041732D01*
X009403Y041777D01*
X009386Y041824D01*
X009372Y041872D01*
X009362Y041921D01*
X009356Y041971D01*
X009354Y042021D01*
X027104Y042021D02*
X027106Y042071D01*
X027112Y042121D01*
X027122Y042170D01*
X027136Y042218D01*
X027153Y042265D01*
X027174Y042310D01*
X027199Y042354D01*
X027227Y042395D01*
X027259Y042434D01*
X027293Y042471D01*
X027330Y042505D01*
X027370Y042535D01*
X027412Y042562D01*
X027456Y042586D01*
X027502Y042607D01*
X027549Y042623D01*
X027597Y042636D01*
X027647Y042645D01*
X027696Y042650D01*
X027747Y042651D01*
X027797Y042648D01*
X027846Y042641D01*
X027895Y042630D01*
X027943Y042615D01*
X027989Y042597D01*
X028034Y042575D01*
X028077Y042549D01*
X028118Y042520D01*
X028157Y042488D01*
X028193Y042453D01*
X028225Y042415D01*
X028255Y042375D01*
X028282Y042332D01*
X028305Y042288D01*
X028324Y042242D01*
X028340Y042194D01*
X028352Y042145D01*
X028360Y042096D01*
X028364Y042046D01*
X028364Y041996D01*
X028360Y041946D01*
X028352Y041897D01*
X028340Y041848D01*
X028324Y041800D01*
X028305Y041754D01*
X028282Y041710D01*
X028255Y041667D01*
X028225Y041627D01*
X028193Y041589D01*
X028157Y041554D01*
X028118Y041522D01*
X028077Y041493D01*
X028034Y041467D01*
X027989Y041445D01*
X027943Y041427D01*
X027895Y041412D01*
X027846Y041401D01*
X027797Y041394D01*
X027747Y041391D01*
X027696Y041392D01*
X027647Y041397D01*
X027597Y041406D01*
X027549Y041419D01*
X027502Y041435D01*
X027456Y041456D01*
X027412Y041480D01*
X027370Y041507D01*
X027330Y041537D01*
X027293Y041571D01*
X027259Y041608D01*
X027227Y041647D01*
X027199Y041688D01*
X027174Y041732D01*
X027153Y041777D01*
X027136Y041824D01*
X027122Y041872D01*
X027112Y041921D01*
X027106Y041971D01*
X027104Y042021D01*
X028395Y038346D02*
X028397Y038372D01*
X028403Y038398D01*
X028413Y038423D01*
X028426Y038446D01*
X028442Y038466D01*
X028462Y038484D01*
X028484Y038499D01*
X028507Y038511D01*
X028533Y038519D01*
X028559Y038523D01*
X028585Y038523D01*
X028611Y038519D01*
X028637Y038511D01*
X028661Y038499D01*
X028682Y038484D01*
X028702Y038466D01*
X028718Y038446D01*
X028731Y038423D01*
X028741Y038398D01*
X028747Y038372D01*
X028749Y038346D01*
X028747Y038320D01*
X028741Y038294D01*
X028731Y038269D01*
X028718Y038246D01*
X028702Y038226D01*
X028682Y038208D01*
X028660Y038193D01*
X028637Y038181D01*
X028611Y038173D01*
X028585Y038169D01*
X028559Y038169D01*
X028533Y038173D01*
X028507Y038181D01*
X028483Y038193D01*
X028462Y038208D01*
X028442Y038226D01*
X028426Y038246D01*
X028413Y038269D01*
X028403Y038294D01*
X028397Y038320D01*
X028395Y038346D01*
X028395Y035196D02*
X028397Y035222D01*
X028403Y035248D01*
X028413Y035273D01*
X028426Y035296D01*
X028442Y035316D01*
X028462Y035334D01*
X028484Y035349D01*
X028507Y035361D01*
X028533Y035369D01*
X028559Y035373D01*
X028585Y035373D01*
X028611Y035369D01*
X028637Y035361D01*
X028661Y035349D01*
X028682Y035334D01*
X028702Y035316D01*
X028718Y035296D01*
X028731Y035273D01*
X028741Y035248D01*
X028747Y035222D01*
X028749Y035196D01*
X028747Y035170D01*
X028741Y035144D01*
X028731Y035119D01*
X028718Y035096D01*
X028702Y035076D01*
X028682Y035058D01*
X028660Y035043D01*
X028637Y035031D01*
X028611Y035023D01*
X028585Y035019D01*
X028559Y035019D01*
X028533Y035023D01*
X028507Y035031D01*
X028483Y035043D01*
X028462Y035058D01*
X028442Y035076D01*
X028426Y035096D01*
X028413Y035119D01*
X028403Y035144D01*
X028397Y035170D01*
X028395Y035196D01*
X027104Y028271D02*
X027106Y028321D01*
X027112Y028371D01*
X027122Y028420D01*
X027136Y028468D01*
X027153Y028515D01*
X027174Y028560D01*
X027199Y028604D01*
X027227Y028645D01*
X027259Y028684D01*
X027293Y028721D01*
X027330Y028755D01*
X027370Y028785D01*
X027412Y028812D01*
X027456Y028836D01*
X027502Y028857D01*
X027549Y028873D01*
X027597Y028886D01*
X027647Y028895D01*
X027696Y028900D01*
X027747Y028901D01*
X027797Y028898D01*
X027846Y028891D01*
X027895Y028880D01*
X027943Y028865D01*
X027989Y028847D01*
X028034Y028825D01*
X028077Y028799D01*
X028118Y028770D01*
X028157Y028738D01*
X028193Y028703D01*
X028225Y028665D01*
X028255Y028625D01*
X028282Y028582D01*
X028305Y028538D01*
X028324Y028492D01*
X028340Y028444D01*
X028352Y028395D01*
X028360Y028346D01*
X028364Y028296D01*
X028364Y028246D01*
X028360Y028196D01*
X028352Y028147D01*
X028340Y028098D01*
X028324Y028050D01*
X028305Y028004D01*
X028282Y027960D01*
X028255Y027917D01*
X028225Y027877D01*
X028193Y027839D01*
X028157Y027804D01*
X028118Y027772D01*
X028077Y027743D01*
X028034Y027717D01*
X027989Y027695D01*
X027943Y027677D01*
X027895Y027662D01*
X027846Y027651D01*
X027797Y027644D01*
X027747Y027641D01*
X027696Y027642D01*
X027647Y027647D01*
X027597Y027656D01*
X027549Y027669D01*
X027502Y027685D01*
X027456Y027706D01*
X027412Y027730D01*
X027370Y027757D01*
X027330Y027787D01*
X027293Y027821D01*
X027259Y027858D01*
X027227Y027897D01*
X027199Y027938D01*
X027174Y027982D01*
X027153Y028027D01*
X027136Y028074D01*
X027122Y028122D01*
X027112Y028171D01*
X027106Y028221D01*
X027104Y028271D01*
X027104Y010271D02*
X027106Y010321D01*
X027112Y010371D01*
X027122Y010420D01*
X027136Y010468D01*
X027153Y010515D01*
X027174Y010560D01*
X027199Y010604D01*
X027227Y010645D01*
X027259Y010684D01*
X027293Y010721D01*
X027330Y010755D01*
X027370Y010785D01*
X027412Y010812D01*
X027456Y010836D01*
X027502Y010857D01*
X027549Y010873D01*
X027597Y010886D01*
X027647Y010895D01*
X027696Y010900D01*
X027747Y010901D01*
X027797Y010898D01*
X027846Y010891D01*
X027895Y010880D01*
X027943Y010865D01*
X027989Y010847D01*
X028034Y010825D01*
X028077Y010799D01*
X028118Y010770D01*
X028157Y010738D01*
X028193Y010703D01*
X028225Y010665D01*
X028255Y010625D01*
X028282Y010582D01*
X028305Y010538D01*
X028324Y010492D01*
X028340Y010444D01*
X028352Y010395D01*
X028360Y010346D01*
X028364Y010296D01*
X028364Y010246D01*
X028360Y010196D01*
X028352Y010147D01*
X028340Y010098D01*
X028324Y010050D01*
X028305Y010004D01*
X028282Y009960D01*
X028255Y009917D01*
X028225Y009877D01*
X028193Y009839D01*
X028157Y009804D01*
X028118Y009772D01*
X028077Y009743D01*
X028034Y009717D01*
X027989Y009695D01*
X027943Y009677D01*
X027895Y009662D01*
X027846Y009651D01*
X027797Y009644D01*
X027747Y009641D01*
X027696Y009642D01*
X027647Y009647D01*
X027597Y009656D01*
X027549Y009669D01*
X027502Y009685D01*
X027456Y009706D01*
X027412Y009730D01*
X027370Y009757D01*
X027330Y009787D01*
X027293Y009821D01*
X027259Y009858D01*
X027227Y009897D01*
X027199Y009938D01*
X027174Y009982D01*
X027153Y010027D01*
X027136Y010074D01*
X027122Y010122D01*
X027112Y010171D01*
X027106Y010221D01*
X027104Y010271D01*
D11*
X019066Y026866D02*
X019114Y026915D01*
X019114Y027011D01*
X019066Y027060D01*
X018969Y027060D01*
X018969Y026963D01*
X018872Y027060D02*
X018824Y027011D01*
X018824Y026915D01*
X018872Y026866D01*
X019066Y026866D01*
X018114Y026842D02*
X018066Y026890D01*
X017872Y026890D01*
X017824Y026842D01*
X017824Y026745D01*
X017872Y026697D01*
X018066Y026697D01*
X018114Y026745D01*
X018114Y026842D01*
X018114Y026991D02*
X017824Y026991D01*
X017969Y027040D02*
X018114Y027185D01*
X018018Y026991D02*
X017824Y027185D01*
X017114Y026866D02*
X016824Y026866D01*
X016824Y027011D01*
X016872Y027060D01*
X016969Y027060D01*
X017018Y027011D01*
X017018Y026866D01*
X016114Y026866D02*
X015824Y026866D01*
X015921Y026963D01*
X015824Y027060D01*
X016114Y027060D01*
X016157Y030223D02*
X016205Y030272D01*
X016157Y030223D02*
X016060Y030223D01*
X016012Y030272D01*
X016012Y030465D01*
X016060Y030514D01*
X016157Y030514D01*
X016205Y030465D01*
X016306Y030514D02*
X016306Y030223D01*
X016500Y030223D01*
X016601Y030223D02*
X016601Y030514D01*
X016649Y030368D02*
X016795Y030223D01*
X016601Y030320D02*
X016795Y030514D01*
X016648Y031223D02*
X016551Y031223D01*
X016503Y031272D01*
X016503Y031465D01*
X016551Y031514D01*
X016648Y031514D01*
X016696Y031465D01*
X016696Y031272D01*
X016648Y031223D01*
X016403Y031223D02*
X016306Y031223D01*
X016355Y031223D02*
X016355Y031514D01*
X016403Y031514D02*
X016306Y031514D01*
X016205Y031465D02*
X016205Y031272D01*
X016157Y031223D01*
X016012Y031223D01*
X016012Y031514D01*
X016157Y031514D01*
X016205Y031465D01*
X016157Y032223D02*
X016060Y032223D01*
X016012Y032272D01*
X016109Y032368D02*
X016157Y032368D01*
X016205Y032320D01*
X016205Y032272D01*
X016157Y032223D01*
X016157Y032368D02*
X016205Y032417D01*
X016205Y032465D01*
X016157Y032514D01*
X016060Y032514D01*
X016012Y032465D01*
X016306Y032514D02*
X016306Y032320D01*
X016403Y032223D01*
X016500Y032320D01*
X016500Y032514D01*
X016601Y032465D02*
X016649Y032514D01*
X016746Y032514D01*
X016795Y032465D01*
X016795Y032417D01*
X016746Y032368D01*
X016795Y032320D01*
X016795Y032272D01*
X016746Y032223D01*
X016649Y032223D01*
X016601Y032272D01*
X016698Y032368D02*
X016746Y032368D01*
X016746Y033223D02*
X016601Y033223D01*
X016601Y033514D01*
X016746Y033514D01*
X016795Y033465D01*
X016795Y033272D01*
X016746Y033223D01*
X016500Y033223D02*
X016500Y033514D01*
X016306Y033514D02*
X016500Y033223D01*
X016306Y033223D02*
X016306Y033514D01*
X016205Y033465D02*
X016157Y033514D01*
X016060Y033514D01*
X016012Y033465D01*
X016012Y033272D01*
X016060Y033223D01*
X016157Y033223D01*
X016205Y033272D01*
X016205Y033368D01*
X016109Y033368D01*
X012482Y031383D02*
X012337Y031383D01*
X012240Y031479D01*
X012192Y031479D01*
X012337Y031383D02*
X012240Y031286D01*
X012192Y031286D01*
X012240Y031185D02*
X012192Y031136D01*
X012192Y030991D01*
X012482Y030991D01*
X012482Y031136D01*
X012433Y031185D01*
X012240Y031185D01*
X012240Y030890D02*
X012337Y030890D01*
X012385Y030842D01*
X012385Y030697D01*
X012385Y030793D02*
X012482Y030890D01*
X012482Y030697D02*
X012192Y030697D01*
X012192Y030842D01*
X012240Y030890D01*
X012530Y030595D02*
X012530Y030402D01*
X012482Y030301D02*
X012288Y030301D01*
X012192Y030204D01*
X012288Y030107D01*
X012482Y030107D01*
X012337Y030107D02*
X012337Y030301D01*
X012192Y030006D02*
X012192Y029813D01*
X012192Y029909D02*
X012482Y029909D01*
X012482Y029711D02*
X012288Y029711D01*
X012192Y029615D01*
X012288Y029518D01*
X012482Y029518D01*
X012433Y029417D02*
X012240Y029417D01*
X012192Y029368D01*
X012192Y029223D01*
X012482Y029223D01*
X012482Y029368D01*
X012433Y029417D01*
X012337Y029518D02*
X012337Y029711D01*
X020574Y030897D02*
X020623Y030848D01*
X020719Y030848D01*
X020768Y030897D01*
X020768Y030945D01*
X020719Y030993D01*
X020671Y030993D01*
X020719Y030993D02*
X020768Y031042D01*
X020768Y031090D01*
X020719Y031139D01*
X020623Y031139D01*
X020574Y031090D01*
X020869Y031139D02*
X020869Y030945D01*
X020966Y030848D01*
X021062Y030945D01*
X021062Y031139D01*
X021164Y031090D02*
X021212Y031139D01*
X021309Y031139D01*
X021357Y031090D01*
X021357Y031042D01*
X021309Y030993D01*
X021357Y030945D01*
X021357Y030897D01*
X021309Y030848D01*
X021212Y030848D01*
X021164Y030897D01*
X021260Y030993D02*
X021309Y030993D01*
X021309Y031848D02*
X021357Y031897D01*
X021357Y032090D01*
X021309Y032139D01*
X021164Y032139D01*
X021164Y031848D01*
X021309Y031848D01*
X021062Y031848D02*
X021062Y032139D01*
X020869Y032139D02*
X020869Y031848D01*
X020768Y031897D02*
X020719Y031848D01*
X020623Y031848D01*
X020574Y031897D01*
X020574Y032090D01*
X020623Y032139D01*
X020719Y032139D01*
X020768Y032090D01*
X020768Y031993D02*
X020671Y031993D01*
X020768Y031993D02*
X020768Y031897D01*
X020869Y032139D02*
X021062Y031848D01*
X021014Y032848D02*
X020917Y032848D01*
X020869Y032897D01*
X020869Y033090D01*
X020917Y033139D01*
X021014Y033139D01*
X021062Y033090D01*
X021164Y033139D02*
X021164Y032848D01*
X021357Y032848D01*
X021062Y032897D02*
X021014Y032848D01*
X020768Y032897D02*
X020719Y032848D01*
X020623Y032848D01*
X020574Y032897D01*
X020623Y032993D02*
X020574Y033042D01*
X020574Y033090D01*
X020623Y033139D01*
X020719Y033139D01*
X020768Y033090D01*
X020719Y032993D02*
X020768Y032945D01*
X020768Y032897D01*
X020719Y032993D02*
X020623Y032993D01*
X020657Y033911D02*
X020560Y033911D01*
X020512Y033959D01*
X020560Y034056D02*
X020657Y034056D01*
X020705Y034008D01*
X020705Y033959D01*
X020657Y033911D01*
X020806Y033911D02*
X020952Y033911D01*
X021000Y033959D01*
X021000Y034153D01*
X020952Y034201D01*
X020806Y034201D01*
X020806Y033911D01*
X020705Y034153D02*
X020657Y034201D01*
X020560Y034201D01*
X020512Y034153D01*
X020512Y034104D01*
X020560Y034056D01*
X021101Y034056D02*
X021295Y034056D01*
X021295Y034104D02*
X021295Y033911D01*
X021295Y034104D02*
X021198Y034201D01*
X021101Y034104D01*
X021101Y033911D01*
X021077Y037536D02*
X020931Y037536D01*
X020931Y037826D01*
X021077Y037826D01*
X021125Y037778D01*
X021125Y037584D01*
X021077Y037536D01*
X021226Y037536D02*
X021226Y037729D01*
X021323Y037826D01*
X021420Y037729D01*
X021420Y037536D01*
X021420Y037681D02*
X021226Y037681D01*
X020830Y037633D02*
X020830Y037584D01*
X020782Y037536D01*
X020685Y037536D01*
X020637Y037584D01*
X020685Y037681D02*
X020782Y037681D01*
X020830Y037633D01*
X020830Y037778D02*
X020782Y037826D01*
X020685Y037826D01*
X020637Y037778D01*
X020637Y037729D01*
X020685Y037681D01*
X020685Y038536D02*
X020637Y038584D01*
X020685Y038536D02*
X020782Y038536D01*
X020830Y038584D01*
X020830Y038633D01*
X020782Y038681D01*
X020685Y038681D01*
X020637Y038729D01*
X020637Y038778D01*
X020685Y038826D01*
X020782Y038826D01*
X020830Y038778D01*
X020931Y038778D02*
X020931Y038584D01*
X020980Y038536D01*
X021077Y038536D01*
X021125Y038584D01*
X021226Y038536D02*
X021420Y038536D01*
X021226Y038536D02*
X021226Y038826D01*
X021125Y038778D02*
X021077Y038826D01*
X020980Y038826D01*
X020931Y038778D01*
X020931Y039536D02*
X020931Y039826D01*
X021125Y039536D01*
X021125Y039826D01*
X021226Y039826D02*
X021371Y039826D01*
X021420Y039778D01*
X021420Y039584D01*
X021371Y039536D01*
X021226Y039536D01*
X021226Y039826D01*
X020830Y039778D02*
X020782Y039826D01*
X020685Y039826D01*
X020637Y039778D01*
X020637Y039584D01*
X020685Y039536D01*
X020782Y039536D01*
X020830Y039584D01*
X020830Y039681D01*
X020734Y039681D01*
X020496Y040473D02*
X020399Y040473D01*
X020351Y040522D01*
X020250Y040570D02*
X020250Y040764D01*
X020351Y040715D02*
X020399Y040764D01*
X020496Y040764D01*
X020545Y040715D01*
X020545Y040667D01*
X020496Y040618D01*
X020545Y040570D01*
X020545Y040522D01*
X020496Y040473D01*
X020496Y040618D02*
X020448Y040618D01*
X020250Y040570D02*
X020153Y040473D01*
X020056Y040570D01*
X020056Y040764D01*
X019955Y040715D02*
X019955Y040667D01*
X019907Y040618D01*
X019955Y040570D01*
X019955Y040522D01*
X019907Y040473D01*
X019810Y040473D01*
X019762Y040522D01*
X019859Y040618D02*
X019907Y040618D01*
X019955Y040715D02*
X019907Y040764D01*
X019810Y040764D01*
X019762Y040715D01*
X019748Y042848D02*
X019844Y042848D01*
X019893Y042897D01*
X019748Y042848D02*
X019699Y042897D01*
X019699Y043090D01*
X019748Y043139D01*
X019844Y043139D01*
X019893Y043090D01*
X020699Y043139D02*
X020844Y043139D01*
X020893Y043090D01*
X020893Y042897D01*
X020844Y042848D01*
X020699Y042848D01*
X020699Y043139D01*
X021699Y043139D02*
X021796Y043139D01*
X021748Y043139D02*
X021748Y042848D01*
X021796Y042848D02*
X021699Y042848D01*
X022699Y042945D02*
X022796Y042848D01*
X022893Y042945D01*
X022893Y043139D01*
X022699Y043139D02*
X022699Y042945D01*
X023699Y042897D02*
X023748Y042848D01*
X023844Y042848D01*
X023893Y042897D01*
X023893Y042993D01*
X023796Y042993D01*
X023699Y042897D02*
X023699Y043090D01*
X023748Y043139D01*
X023844Y043139D01*
X023893Y043090D01*
X024512Y043139D02*
X024512Y042945D01*
X024609Y042848D01*
X024705Y042945D01*
X024705Y043139D01*
X024806Y043042D02*
X024855Y043042D01*
X024855Y042848D01*
X024903Y042848D02*
X024806Y042848D01*
X025003Y042848D02*
X025003Y043042D01*
X025148Y043042D01*
X025196Y042993D01*
X025196Y042848D01*
X024855Y043139D02*
X024855Y043187D01*
X025782Y037469D02*
X025879Y037372D01*
X025975Y037469D01*
X025975Y037178D01*
X026077Y037178D02*
X026173Y037178D01*
X026125Y037178D02*
X026125Y037372D01*
X026077Y037372D01*
X026125Y037469D02*
X026125Y037517D01*
X026321Y037372D02*
X026273Y037323D01*
X026273Y037227D01*
X026321Y037178D01*
X026466Y037178D01*
X026568Y037178D02*
X026568Y037372D01*
X026664Y037372D02*
X026713Y037372D01*
X026664Y037372D02*
X026568Y037275D01*
X026466Y037372D02*
X026321Y037372D01*
X026370Y036892D02*
X026322Y036843D01*
X026322Y036747D01*
X026370Y036698D01*
X026516Y036698D01*
X026617Y036747D02*
X026665Y036795D01*
X026810Y036795D01*
X026810Y036843D02*
X026810Y036698D01*
X026665Y036698D01*
X026617Y036747D01*
X026665Y036892D02*
X026762Y036892D01*
X026810Y036843D01*
X026911Y036795D02*
X027008Y036892D01*
X027056Y036892D01*
X027157Y036843D02*
X027205Y036892D01*
X027350Y036892D01*
X027350Y036989D02*
X027350Y036698D01*
X027205Y036698D01*
X027157Y036747D01*
X027157Y036843D01*
X026911Y036892D02*
X026911Y036698D01*
X026516Y036892D02*
X026370Y036892D01*
X025782Y037178D02*
X025782Y037469D01*
X026813Y037323D02*
X026813Y037227D01*
X026862Y037178D01*
X026958Y037178D01*
X027007Y037227D01*
X027007Y037323D01*
X026958Y037372D01*
X026862Y037372D01*
X026813Y037323D01*
X027402Y037372D02*
X027451Y037323D01*
X027548Y037323D01*
X027596Y037275D01*
X027596Y037227D01*
X027548Y037178D01*
X027451Y037178D01*
X027402Y037227D01*
X027402Y037372D02*
X027402Y037420D01*
X027451Y037469D01*
X027548Y037469D01*
X027596Y037420D01*
X027697Y037469D02*
X027842Y037469D01*
X027891Y037420D01*
X027891Y037227D01*
X027842Y037178D01*
X027697Y037178D01*
X027697Y037469D01*
X018018Y042945D02*
X018018Y043139D01*
X017824Y043139D02*
X017824Y042945D01*
X017921Y042848D01*
X018018Y042945D01*
X017018Y042897D02*
X017018Y042993D01*
X016921Y042993D01*
X016824Y042897D02*
X016873Y042848D01*
X016969Y042848D01*
X017018Y042897D01*
X017018Y043090D02*
X016969Y043139D01*
X016873Y043139D01*
X016824Y043090D01*
X016824Y042897D01*
X015955Y042897D02*
X015955Y043090D01*
X015907Y043139D01*
X015762Y043139D01*
X015762Y042848D01*
X015907Y042848D01*
X015955Y042897D01*
X015094Y041139D02*
X014998Y041139D01*
X014949Y041090D01*
X014949Y040897D01*
X014998Y040848D01*
X015094Y040848D01*
X015143Y040897D01*
X015143Y041090D02*
X015094Y041139D01*
X013907Y042848D02*
X013762Y042848D01*
X013762Y043139D01*
X013907Y043139D01*
X013955Y043090D01*
X013955Y043042D01*
X013907Y042993D01*
X013762Y042993D01*
X013907Y042993D02*
X013955Y042945D01*
X013955Y042897D01*
X013907Y042848D01*
X013018Y042897D02*
X013018Y042993D01*
X012921Y042993D01*
X012824Y042897D02*
X012873Y042848D01*
X012969Y042848D01*
X013018Y042897D01*
X013018Y043090D02*
X012969Y043139D01*
X012873Y043139D01*
X012824Y043090D01*
X012824Y042897D01*
D12*
X013309Y037958D02*
X013684Y037958D01*
X012934Y037958D02*
X012937Y038093D01*
X012947Y038228D01*
X012964Y038362D01*
X012987Y038494D01*
X013016Y038626D01*
X013052Y038756D01*
X013095Y038884D01*
X013143Y039010D01*
X013198Y039134D01*
X013259Y039254D01*
X013325Y039372D01*
X013397Y039486D01*
X013475Y039596D01*
X013558Y039703D01*
X013646Y039805D01*
X013739Y039903D01*
X013837Y039996D01*
X013939Y040084D01*
X014046Y040167D01*
X014156Y040245D01*
X014270Y040317D01*
X014388Y040383D01*
X014508Y040444D01*
X014632Y040499D01*
X014758Y040547D01*
X014886Y040590D01*
X015016Y040626D01*
X015148Y040655D01*
X015280Y040678D01*
X015414Y040695D01*
X015549Y040705D01*
X015684Y040708D01*
X015819Y040705D01*
X015954Y040695D01*
X016088Y040678D01*
X016220Y040655D01*
X016352Y040626D01*
X016482Y040590D01*
X016610Y040547D01*
X016736Y040499D01*
X016860Y040444D01*
X016980Y040383D01*
X017098Y040317D01*
X017212Y040245D01*
X017322Y040167D01*
X017429Y040084D01*
X017531Y039996D01*
X017629Y039903D01*
X017722Y039805D01*
X017810Y039703D01*
X017893Y039596D01*
X017971Y039486D01*
X018043Y039372D01*
X018109Y039254D01*
X018170Y039134D01*
X018225Y039010D01*
X018273Y038884D01*
X018316Y038756D01*
X018352Y038626D01*
X018381Y038494D01*
X018404Y038362D01*
X018421Y038228D01*
X018431Y038093D01*
X018434Y037958D01*
X018431Y037823D01*
X018421Y037688D01*
X018404Y037554D01*
X018381Y037422D01*
X018352Y037290D01*
X018316Y037160D01*
X018273Y037032D01*
X018225Y036906D01*
X018170Y036782D01*
X018109Y036662D01*
X018043Y036544D01*
X017971Y036430D01*
X017893Y036320D01*
X017810Y036213D01*
X017722Y036111D01*
X017629Y036013D01*
X017531Y035920D01*
X017429Y035832D01*
X017322Y035749D01*
X017212Y035671D01*
X017098Y035599D01*
X016980Y035533D01*
X016860Y035472D01*
X016736Y035417D01*
X016610Y035369D01*
X016482Y035326D01*
X016352Y035290D01*
X016220Y035261D01*
X016088Y035238D01*
X015954Y035221D01*
X015819Y035211D01*
X015684Y035208D01*
X015549Y035211D01*
X015414Y035221D01*
X015280Y035238D01*
X015148Y035261D01*
X015016Y035290D01*
X014886Y035326D01*
X014758Y035369D01*
X014632Y035417D01*
X014508Y035472D01*
X014388Y035533D01*
X014270Y035599D01*
X014156Y035671D01*
X014046Y035749D01*
X013939Y035832D01*
X013837Y035920D01*
X013739Y036013D01*
X013646Y036111D01*
X013558Y036213D01*
X013475Y036320D01*
X013397Y036430D01*
X013325Y036544D01*
X013259Y036662D01*
X013198Y036782D01*
X013143Y036906D01*
X013095Y037032D01*
X013052Y037160D01*
X013016Y037290D01*
X012987Y037422D01*
X012964Y037554D01*
X012947Y037688D01*
X012937Y037823D01*
X012934Y037958D01*
X010784Y035833D02*
X010784Y035033D01*
X010784Y034633D01*
X010884Y034633D01*
X010884Y035033D01*
X010784Y035033D01*
X010784Y034633D02*
X010784Y031033D01*
X010784Y030633D01*
X010884Y030633D01*
X010884Y031033D01*
X010784Y031033D01*
X010784Y030633D02*
X010784Y029833D01*
X007284Y029833D01*
X007284Y032033D01*
X010134Y032033D01*
X010134Y033633D01*
X007284Y033633D01*
X007284Y032033D01*
X007434Y032783D02*
X010084Y032783D01*
X010084Y032833D01*
X007434Y032833D01*
X007434Y032783D01*
X007434Y032833D02*
X007434Y032883D01*
X010084Y032883D01*
X010084Y032833D01*
X010834Y032783D02*
X010834Y032883D01*
X010834Y033783D02*
X010834Y033883D01*
X011534Y033883D02*
X011534Y033833D01*
X011834Y033833D01*
X011834Y033883D01*
X011534Y033883D01*
X011534Y033833D02*
X011534Y033783D01*
X011834Y033783D01*
X011834Y033833D01*
X011834Y032883D02*
X011534Y032883D01*
X011534Y032833D01*
X011834Y032833D01*
X011834Y032783D01*
X011534Y032783D01*
X011534Y032833D01*
X011834Y032833D02*
X011834Y032883D01*
X011834Y031883D02*
X011534Y031883D01*
X011534Y031833D01*
X011834Y031833D01*
X011834Y031783D01*
X011534Y031783D01*
X011534Y031833D01*
X011834Y031833D02*
X011834Y031883D01*
X010834Y031883D02*
X010834Y031783D01*
X010784Y035833D02*
X007284Y035833D01*
X007284Y033633D01*
X009184Y026427D02*
X028684Y026427D01*
X028728Y026425D01*
X028771Y026419D01*
X028813Y026410D01*
X028855Y026397D01*
X028895Y026380D01*
X028934Y026360D01*
X028971Y026337D01*
X029005Y026310D01*
X029038Y026281D01*
X029067Y026248D01*
X029094Y026214D01*
X029117Y026177D01*
X029137Y026138D01*
X029154Y026098D01*
X029167Y026056D01*
X029176Y026014D01*
X029182Y025971D01*
X029184Y025927D01*
X029184Y018927D01*
X029182Y018883D01*
X029176Y018840D01*
X029167Y018798D01*
X029154Y018756D01*
X029137Y018716D01*
X029117Y018677D01*
X029094Y018640D01*
X029067Y018606D01*
X029038Y018573D01*
X029005Y018544D01*
X028971Y018517D01*
X028934Y018494D01*
X028895Y018474D01*
X028855Y018457D01*
X028813Y018444D01*
X028771Y018435D01*
X028728Y018429D01*
X028684Y018427D01*
X012784Y018427D01*
X013645Y017931D02*
X013849Y017931D01*
X013849Y017486D02*
X013645Y017486D01*
X011634Y018427D02*
X009184Y018427D01*
X009140Y018429D01*
X009097Y018435D01*
X009055Y018444D01*
X009013Y018457D01*
X008973Y018474D01*
X008934Y018494D01*
X008897Y018517D01*
X008863Y018544D01*
X008830Y018573D01*
X008801Y018606D01*
X008774Y018640D01*
X008751Y018677D01*
X008731Y018716D01*
X008714Y018756D01*
X008701Y018798D01*
X008692Y018840D01*
X008686Y018883D01*
X008684Y018927D01*
X008684Y020927D01*
X010434Y020927D01*
X010434Y021177D01*
X010184Y021427D01*
X010184Y023427D01*
X010434Y023677D01*
X010434Y023927D01*
X008684Y023927D01*
X008684Y025927D01*
X008686Y025971D01*
X008692Y026014D01*
X008701Y026056D01*
X008714Y026098D01*
X008731Y026138D01*
X008751Y026177D01*
X008774Y026214D01*
X008801Y026248D01*
X008830Y026281D01*
X008863Y026310D01*
X008897Y026337D01*
X008934Y026360D01*
X008973Y026380D01*
X009013Y026397D01*
X009055Y026410D01*
X009097Y026419D01*
X009140Y026425D01*
X009184Y026427D01*
X009184Y024896D02*
X009184Y024396D01*
X010434Y024396D01*
X009184Y024396D02*
X009184Y024196D01*
X008684Y023927D02*
X008684Y023427D01*
X008684Y021427D01*
X008684Y020927D01*
X008709Y020954D01*
X008731Y020984D01*
X008749Y021016D01*
X008764Y021050D01*
X008776Y021085D01*
X008784Y021122D01*
X008788Y021158D01*
X008788Y021196D01*
X008784Y021232D01*
X008776Y021269D01*
X008764Y021304D01*
X008749Y021338D01*
X008731Y021370D01*
X008709Y021400D01*
X008684Y021427D01*
X009184Y022396D02*
X010434Y022396D01*
X009184Y020596D02*
X009184Y020396D01*
X009184Y019896D01*
X006634Y019896D01*
X006634Y021246D01*
X004584Y021246D01*
X004584Y022796D01*
X006634Y022796D01*
X006634Y024896D01*
X009184Y024896D01*
X008684Y023927D02*
X008709Y023900D01*
X008731Y023870D01*
X008749Y023838D01*
X008764Y023804D01*
X008776Y023769D01*
X008784Y023732D01*
X008788Y023696D01*
X008788Y023658D01*
X008784Y023622D01*
X008776Y023585D01*
X008764Y023550D01*
X008749Y023516D01*
X008731Y023484D01*
X008709Y023454D01*
X008684Y023427D01*
X006634Y022796D02*
X006634Y021246D01*
X009184Y020396D02*
X010434Y020396D01*
X013078Y023790D02*
X013078Y023990D01*
X013978Y023990D01*
X013978Y023790D01*
X013078Y023790D01*
X013078Y023990D02*
X012928Y023990D01*
X013078Y023990D02*
X013078Y024190D01*
X013978Y024190D01*
X013978Y023990D01*
X014128Y023990D01*
X014099Y021521D02*
X015022Y021521D01*
X015022Y021021D01*
X014099Y021021D01*
X014099Y021521D01*
X014434Y021458D02*
X014434Y021083D01*
X014809Y021271D01*
X014434Y021458D01*
X015645Y020743D02*
X015849Y020743D01*
X015849Y020299D02*
X015645Y020299D01*
X016934Y016146D02*
X016934Y013646D01*
X018809Y013646D02*
X018809Y016146D01*
X019634Y015546D02*
X019634Y017896D01*
X021584Y017896D01*
X021634Y017246D02*
X021634Y015546D01*
X019634Y015546D01*
X021634Y015546D02*
X023584Y015546D01*
X023984Y016421D02*
X024384Y016421D01*
X024784Y015546D02*
X026734Y015546D01*
X026734Y017246D01*
X026359Y016946D02*
X025959Y016946D01*
X026159Y016746D02*
X026159Y017146D01*
X025534Y017896D02*
X024784Y017896D01*
X023584Y017896D02*
X022834Y017896D01*
X022409Y016946D02*
X022009Y016946D01*
X022209Y016746D02*
X022209Y017146D01*
X021963Y014361D02*
X021963Y013180D01*
X021815Y013180D01*
X021815Y014361D01*
X021963Y014361D01*
X021697Y014371D02*
X021547Y014371D01*
X021547Y013171D01*
X021697Y013171D01*
X021697Y014371D01*
X020160Y013832D02*
X020162Y013911D01*
X020168Y013990D01*
X020178Y014069D01*
X020191Y014146D01*
X020209Y014224D01*
X020231Y014300D01*
X020256Y014375D01*
X020285Y014448D01*
X020317Y014521D01*
X020353Y014591D01*
X020393Y014660D01*
X020436Y014726D01*
X020482Y014790D01*
X020531Y014852D01*
X020584Y014911D01*
X020639Y014968D01*
X020697Y015022D01*
X020758Y015073D01*
X020821Y015121D01*
X020886Y015165D01*
X020954Y015206D01*
X021023Y015244D01*
X021094Y015279D01*
X021167Y015309D01*
X021242Y015336D01*
X021317Y015360D01*
X021394Y015379D01*
X021471Y015395D01*
X021550Y015407D01*
X021628Y015415D01*
X021707Y015419D01*
X021787Y015419D01*
X021866Y015415D01*
X021944Y015407D01*
X022023Y015395D01*
X022100Y015379D01*
X022177Y015360D01*
X022252Y015336D01*
X022327Y015309D01*
X022400Y015279D01*
X022471Y015244D01*
X022541Y015206D01*
X022608Y015165D01*
X022673Y015121D01*
X022736Y015073D01*
X022797Y015022D01*
X022855Y014968D01*
X022910Y014911D01*
X022963Y014852D01*
X023012Y014790D01*
X023058Y014726D01*
X023101Y014660D01*
X023141Y014591D01*
X023177Y014521D01*
X023209Y014448D01*
X023238Y014375D01*
X023263Y014300D01*
X023285Y014224D01*
X023303Y014146D01*
X023316Y014069D01*
X023326Y013990D01*
X023332Y013911D01*
X023334Y013832D01*
X023332Y013753D01*
X023326Y013674D01*
X023316Y013595D01*
X023303Y013518D01*
X023285Y013440D01*
X023263Y013364D01*
X023238Y013289D01*
X023209Y013216D01*
X023177Y013143D01*
X023141Y013073D01*
X023101Y013004D01*
X023058Y012938D01*
X023012Y012874D01*
X022963Y012812D01*
X022910Y012753D01*
X022855Y012696D01*
X022797Y012642D01*
X022736Y012591D01*
X022673Y012543D01*
X022608Y012499D01*
X022540Y012458D01*
X022471Y012420D01*
X022400Y012385D01*
X022327Y012355D01*
X022252Y012328D01*
X022177Y012304D01*
X022100Y012285D01*
X022023Y012269D01*
X021944Y012257D01*
X021866Y012249D01*
X021787Y012245D01*
X021707Y012245D01*
X021628Y012249D01*
X021550Y012257D01*
X021471Y012269D01*
X021394Y012285D01*
X021317Y012304D01*
X021242Y012328D01*
X021167Y012355D01*
X021094Y012385D01*
X021023Y012420D01*
X020953Y012458D01*
X020886Y012499D01*
X020821Y012543D01*
X020758Y012591D01*
X020697Y012642D01*
X020639Y012696D01*
X020584Y012753D01*
X020531Y012812D01*
X020482Y012874D01*
X020436Y012938D01*
X020393Y013004D01*
X020353Y013073D01*
X020317Y013143D01*
X020285Y013216D01*
X020256Y013289D01*
X020231Y013364D01*
X020209Y013440D01*
X020191Y013518D01*
X020178Y013595D01*
X020168Y013674D01*
X020162Y013753D01*
X020160Y013832D01*
X020982Y013160D02*
X021282Y013160D01*
X021132Y013310D02*
X021132Y013010D01*
X021547Y011058D02*
X021547Y009858D01*
X021697Y009858D01*
X021697Y011058D01*
X021547Y011058D01*
X021815Y011049D02*
X021815Y009868D01*
X021963Y009868D01*
X021963Y011049D01*
X021815Y011049D01*
X020160Y010519D02*
X020162Y010598D01*
X020168Y010677D01*
X020178Y010756D01*
X020191Y010833D01*
X020209Y010911D01*
X020231Y010987D01*
X020256Y011062D01*
X020285Y011135D01*
X020317Y011208D01*
X020353Y011278D01*
X020393Y011347D01*
X020436Y011413D01*
X020482Y011477D01*
X020531Y011539D01*
X020584Y011598D01*
X020639Y011655D01*
X020697Y011709D01*
X020758Y011760D01*
X020821Y011808D01*
X020886Y011852D01*
X020954Y011893D01*
X021023Y011931D01*
X021094Y011966D01*
X021167Y011996D01*
X021242Y012023D01*
X021317Y012047D01*
X021394Y012066D01*
X021471Y012082D01*
X021550Y012094D01*
X021628Y012102D01*
X021707Y012106D01*
X021787Y012106D01*
X021866Y012102D01*
X021944Y012094D01*
X022023Y012082D01*
X022100Y012066D01*
X022177Y012047D01*
X022252Y012023D01*
X022327Y011996D01*
X022400Y011966D01*
X022471Y011931D01*
X022541Y011893D01*
X022608Y011852D01*
X022673Y011808D01*
X022736Y011760D01*
X022797Y011709D01*
X022855Y011655D01*
X022910Y011598D01*
X022963Y011539D01*
X023012Y011477D01*
X023058Y011413D01*
X023101Y011347D01*
X023141Y011278D01*
X023177Y011208D01*
X023209Y011135D01*
X023238Y011062D01*
X023263Y010987D01*
X023285Y010911D01*
X023303Y010833D01*
X023316Y010756D01*
X023326Y010677D01*
X023332Y010598D01*
X023334Y010519D01*
X023332Y010440D01*
X023326Y010361D01*
X023316Y010282D01*
X023303Y010205D01*
X023285Y010127D01*
X023263Y010051D01*
X023238Y009976D01*
X023209Y009903D01*
X023177Y009830D01*
X023141Y009760D01*
X023101Y009691D01*
X023058Y009625D01*
X023012Y009561D01*
X022963Y009499D01*
X022910Y009440D01*
X022855Y009383D01*
X022797Y009329D01*
X022736Y009278D01*
X022673Y009230D01*
X022608Y009186D01*
X022540Y009145D01*
X022471Y009107D01*
X022400Y009072D01*
X022327Y009042D01*
X022252Y009015D01*
X022177Y008991D01*
X022100Y008972D01*
X022023Y008956D01*
X021944Y008944D01*
X021866Y008936D01*
X021787Y008932D01*
X021707Y008932D01*
X021628Y008936D01*
X021550Y008944D01*
X021471Y008956D01*
X021394Y008972D01*
X021317Y008991D01*
X021242Y009015D01*
X021167Y009042D01*
X021094Y009072D01*
X021023Y009107D01*
X020953Y009145D01*
X020886Y009186D01*
X020821Y009230D01*
X020758Y009278D01*
X020697Y009329D01*
X020639Y009383D01*
X020584Y009440D01*
X020531Y009499D01*
X020482Y009561D01*
X020436Y009625D01*
X020393Y009691D01*
X020353Y009760D01*
X020317Y009830D01*
X020285Y009903D01*
X020256Y009976D01*
X020231Y010051D01*
X020209Y010127D01*
X020191Y010205D01*
X020178Y010282D01*
X020168Y010361D01*
X020162Y010440D01*
X020160Y010519D01*
X020982Y009848D02*
X021282Y009848D01*
X021132Y009998D02*
X021132Y009698D01*
X021184Y008446D02*
X021184Y007746D01*
X021184Y006046D01*
X025184Y006046D01*
X025184Y007746D01*
X029184Y007746D01*
X029184Y006046D01*
X029184Y005496D01*
X025184Y005496D01*
X025184Y006046D01*
X029184Y006046D01*
X029384Y007712D02*
X029184Y007762D01*
X029184Y008112D01*
X029384Y008162D01*
X029384Y007712D01*
X029184Y007746D02*
X029184Y007762D01*
X029184Y008112D02*
X029184Y008446D01*
X025184Y008446D01*
X025184Y007746D01*
X025184Y006046D01*
X025184Y005496D01*
X021184Y005496D01*
X021184Y006046D01*
X021184Y007746D02*
X025184Y007746D01*
X025184Y007762D01*
X025184Y008112D01*
X025384Y008162D01*
X025384Y007712D01*
X025184Y007762D01*
X025184Y008112D02*
X025184Y008446D01*
X021184Y008446D01*
X021585Y008148D02*
X021698Y008261D01*
X021698Y007921D01*
X021585Y007921D02*
X021811Y007921D01*
X021994Y008096D02*
X021996Y008124D01*
X022002Y008151D01*
X022011Y008177D01*
X022024Y008202D01*
X022041Y008225D01*
X022060Y008245D01*
X022082Y008262D01*
X022106Y008276D01*
X022132Y008286D01*
X022159Y008293D01*
X022187Y008296D01*
X022215Y008295D01*
X022242Y008290D01*
X022269Y008281D01*
X022294Y008269D01*
X022317Y008254D01*
X022338Y008235D01*
X022356Y008214D01*
X022371Y008190D01*
X022382Y008164D01*
X022390Y008138D01*
X022394Y008110D01*
X022394Y008082D01*
X022390Y008054D01*
X022382Y008028D01*
X022371Y008002D01*
X022356Y007978D01*
X022338Y007957D01*
X022317Y007938D01*
X022294Y007923D01*
X022269Y007911D01*
X022242Y007902D01*
X022215Y007897D01*
X022187Y007896D01*
X022159Y007899D01*
X022132Y007906D01*
X022106Y007916D01*
X022082Y007930D01*
X022060Y007947D01*
X022041Y007967D01*
X022024Y007990D01*
X022011Y008015D01*
X022002Y008041D01*
X021996Y008068D01*
X021994Y008096D01*
X023522Y008204D02*
X023579Y008261D01*
X023692Y008261D01*
X023749Y008204D01*
X023749Y008148D01*
X023522Y007921D01*
X023749Y007921D01*
X023974Y008096D02*
X023976Y008124D01*
X023982Y008151D01*
X023991Y008177D01*
X024004Y008202D01*
X024021Y008225D01*
X024040Y008245D01*
X024062Y008262D01*
X024086Y008276D01*
X024112Y008286D01*
X024139Y008293D01*
X024167Y008296D01*
X024195Y008295D01*
X024222Y008290D01*
X024249Y008281D01*
X024274Y008269D01*
X024297Y008254D01*
X024318Y008235D01*
X024336Y008214D01*
X024351Y008190D01*
X024362Y008164D01*
X024370Y008138D01*
X024374Y008110D01*
X024374Y008082D01*
X024370Y008054D01*
X024362Y008028D01*
X024351Y008002D01*
X024336Y007978D01*
X024318Y007957D01*
X024297Y007938D01*
X024274Y007923D01*
X024249Y007911D01*
X024222Y007902D01*
X024195Y007897D01*
X024167Y007896D01*
X024139Y007899D01*
X024112Y007906D01*
X024086Y007916D01*
X024062Y007930D01*
X024040Y007947D01*
X024021Y007967D01*
X024004Y007990D01*
X023991Y008015D01*
X023982Y008041D01*
X023976Y008068D01*
X023974Y008096D01*
X025585Y008148D02*
X025698Y008261D01*
X025698Y007921D01*
X025585Y007921D02*
X025811Y007921D01*
X025994Y008096D02*
X025996Y008124D01*
X026002Y008151D01*
X026011Y008177D01*
X026024Y008202D01*
X026041Y008225D01*
X026060Y008245D01*
X026082Y008262D01*
X026106Y008276D01*
X026132Y008286D01*
X026159Y008293D01*
X026187Y008296D01*
X026215Y008295D01*
X026242Y008290D01*
X026269Y008281D01*
X026294Y008269D01*
X026317Y008254D01*
X026338Y008235D01*
X026356Y008214D01*
X026371Y008190D01*
X026382Y008164D01*
X026390Y008138D01*
X026394Y008110D01*
X026394Y008082D01*
X026390Y008054D01*
X026382Y008028D01*
X026371Y008002D01*
X026356Y007978D01*
X026338Y007957D01*
X026317Y007938D01*
X026294Y007923D01*
X026269Y007911D01*
X026242Y007902D01*
X026215Y007897D01*
X026187Y007896D01*
X026159Y007899D01*
X026132Y007906D01*
X026106Y007916D01*
X026082Y007930D01*
X026060Y007947D01*
X026041Y007967D01*
X026024Y007990D01*
X026011Y008015D01*
X026002Y008041D01*
X025996Y008068D01*
X025994Y008096D01*
X027522Y008204D02*
X027579Y008261D01*
X027692Y008261D01*
X027749Y008204D01*
X027749Y008148D01*
X027522Y007921D01*
X027749Y007921D01*
X027974Y008096D02*
X027976Y008124D01*
X027982Y008151D01*
X027991Y008177D01*
X028004Y008202D01*
X028021Y008225D01*
X028040Y008245D01*
X028062Y008262D01*
X028086Y008276D01*
X028112Y008286D01*
X028139Y008293D01*
X028167Y008296D01*
X028195Y008295D01*
X028222Y008290D01*
X028249Y008281D01*
X028274Y008269D01*
X028297Y008254D01*
X028318Y008235D01*
X028336Y008214D01*
X028351Y008190D01*
X028362Y008164D01*
X028370Y008138D01*
X028374Y008110D01*
X028374Y008082D01*
X028370Y008054D01*
X028362Y008028D01*
X028351Y008002D01*
X028336Y007978D01*
X028318Y007957D01*
X028297Y007938D01*
X028274Y007923D01*
X028249Y007911D01*
X028222Y007902D01*
X028195Y007897D01*
X028167Y007896D01*
X028139Y007899D01*
X028112Y007906D01*
X028086Y007916D01*
X028062Y007930D01*
X028040Y007947D01*
X028021Y007967D01*
X028004Y007990D01*
X027991Y008015D01*
X027982Y008041D01*
X027976Y008068D01*
X027974Y008096D01*
X028684Y015546D02*
X026734Y015546D01*
X026784Y017896D02*
X028684Y017896D01*
X028684Y015546D01*
X027434Y020396D02*
X026934Y020396D01*
X026834Y020496D01*
X027434Y020396D02*
X027534Y020496D01*
X027534Y021296D02*
X027434Y021396D01*
X027534Y021496D01*
X027434Y021396D02*
X026934Y021396D01*
X026834Y021496D01*
X026934Y021396D02*
X026834Y021296D01*
X026834Y022296D02*
X026934Y022396D01*
X026834Y022496D01*
X026934Y022396D02*
X027434Y022396D01*
X027534Y022496D01*
X027434Y022396D02*
X027534Y022296D01*
X027534Y023296D02*
X027434Y023396D01*
X027534Y023496D01*
X027434Y023396D02*
X026934Y023396D01*
X026834Y023496D01*
X026934Y023396D02*
X026834Y023296D01*
X026834Y024296D02*
X026934Y024396D01*
X027434Y024396D01*
X027534Y024296D01*
X024399Y029765D02*
X024399Y029823D01*
X024633Y030056D01*
X024633Y030115D01*
X024399Y030115D01*
X023905Y029998D02*
X023905Y029940D01*
X023847Y029940D01*
X023847Y029998D01*
X023905Y029998D01*
X023905Y029823D02*
X023847Y029823D01*
X023847Y029765D01*
X023905Y029765D01*
X023905Y029823D01*
X023715Y029998D02*
X023656Y029998D01*
X023540Y029881D01*
X023540Y029765D02*
X023540Y029998D01*
X023405Y029940D02*
X023405Y029881D01*
X023171Y029881D01*
X023171Y029823D02*
X023171Y029940D01*
X023230Y029998D01*
X023347Y029998D01*
X023405Y029940D01*
X023347Y029765D02*
X023230Y029765D01*
X023171Y029823D01*
X023037Y029881D02*
X023037Y030115D01*
X023037Y029881D02*
X022920Y029765D01*
X022803Y029881D01*
X022803Y030115D01*
X022886Y030640D02*
X022828Y030698D01*
X022828Y030931D01*
X022886Y030990D01*
X023003Y030990D01*
X023061Y030931D01*
X023061Y030698D01*
X023003Y030640D01*
X022886Y030640D01*
X022944Y030756D02*
X023061Y030640D01*
X023196Y030640D02*
X023196Y030990D01*
X023313Y030873D01*
X023429Y030990D01*
X023429Y030640D01*
X023564Y030815D02*
X023798Y030815D01*
X023933Y030815D02*
X024108Y030815D01*
X024166Y030756D01*
X024166Y030698D01*
X024108Y030640D01*
X023933Y030640D01*
X023933Y030990D01*
X024108Y030990D01*
X024166Y030931D01*
X024166Y030873D01*
X024108Y030815D01*
X024301Y030815D02*
X024534Y030815D01*
X024534Y030873D02*
X024534Y030640D01*
X024669Y030698D02*
X024728Y030640D01*
X024844Y030640D01*
X024903Y030698D01*
X024903Y030756D01*
X024844Y030815D01*
X024728Y030815D01*
X024669Y030873D01*
X024669Y030931D01*
X024728Y030990D01*
X024844Y030990D01*
X024903Y030931D01*
X024534Y030873D02*
X024418Y030990D01*
X024301Y030873D01*
X024301Y030640D01*
X025462Y030435D02*
X025462Y030231D01*
X025907Y030231D02*
X025907Y030435D01*
X026354Y031308D02*
X026484Y031308D01*
X026582Y030868D02*
X026786Y030868D01*
X026786Y030424D02*
X026582Y030424D01*
X027634Y031308D02*
X027784Y031308D01*
X027634Y031321D02*
X027691Y031356D01*
X027747Y031394D01*
X027799Y031436D01*
X027850Y031481D01*
X027897Y031528D01*
X027942Y031578D01*
X027984Y031631D01*
X028023Y031686D01*
X028058Y031743D01*
X028090Y031802D01*
X028118Y031863D01*
X028143Y031926D01*
X028164Y031989D01*
X028182Y032054D01*
X028195Y032120D01*
X028205Y032187D01*
X028211Y032254D01*
X028213Y032321D01*
X028211Y032388D01*
X028205Y032455D01*
X028195Y032522D01*
X028182Y032588D01*
X028164Y032653D01*
X028143Y032716D01*
X028118Y032779D01*
X028090Y032840D01*
X028058Y032899D01*
X028023Y032956D01*
X027984Y033011D01*
X027942Y033064D01*
X027897Y033114D01*
X027850Y033161D01*
X027799Y033206D01*
X027747Y033248D01*
X027691Y033286D01*
X027634Y033321D01*
X027847Y034246D02*
X025147Y034246D01*
X025036Y032868D02*
X024832Y032868D01*
X024832Y032424D02*
X025036Y032424D01*
X026484Y033321D02*
X026428Y033288D01*
X026373Y033251D01*
X026321Y033211D01*
X026271Y033168D01*
X026224Y033122D01*
X026180Y033074D01*
X026138Y033023D01*
X026099Y032970D01*
X026064Y032915D01*
X026031Y032858D01*
X026002Y032799D01*
X025977Y032738D01*
X025954Y032676D01*
X025936Y032613D01*
X025921Y032549D01*
X025910Y032485D01*
X025902Y032419D01*
X025898Y032354D01*
X025898Y032288D01*
X025902Y032223D01*
X025910Y032157D01*
X025921Y032093D01*
X025936Y032029D01*
X025954Y031966D01*
X025977Y031904D01*
X026002Y031843D01*
X026031Y031784D01*
X026064Y031727D01*
X026099Y031672D01*
X026138Y031619D01*
X026180Y031568D01*
X026224Y031520D01*
X026271Y031474D01*
X026321Y031431D01*
X026373Y031391D01*
X026428Y031354D01*
X026484Y031321D01*
X028897Y034246D02*
X030097Y034246D01*
X030097Y040046D01*
X028897Y040046D01*
X027847Y040046D02*
X025047Y040046D01*
X024397Y039396D02*
X024397Y038246D01*
X022534Y038277D02*
X022434Y038177D01*
X022534Y038077D01*
X022434Y038177D02*
X021934Y038177D01*
X021834Y038277D01*
X021934Y038177D02*
X021834Y038077D01*
X021834Y037277D02*
X021934Y037177D01*
X022434Y037177D01*
X022534Y037277D01*
X022534Y039077D02*
X022434Y039177D01*
X022534Y039277D01*
X022434Y039177D02*
X021934Y039177D01*
X021834Y039277D01*
X021934Y039177D02*
X021834Y039077D01*
X021834Y040077D02*
X021934Y040177D01*
X021834Y040277D01*
X021934Y040177D02*
X022434Y040177D01*
X022534Y040277D01*
X022434Y040177D02*
X022534Y040077D01*
X022534Y041077D02*
X022434Y041177D01*
X021934Y041177D01*
X021834Y041077D01*
X021344Y040654D02*
X021344Y040450D01*
X020900Y040450D02*
X020900Y040654D01*
X019032Y039623D02*
X019032Y039419D01*
X018587Y039419D02*
X018587Y039623D01*
X017922Y038146D02*
X017922Y037771D01*
X018109Y037958D02*
X017734Y037958D01*
X018212Y035998D02*
X018212Y035794D01*
X018657Y035794D02*
X018657Y035998D01*
X019434Y034521D02*
X019334Y034421D01*
X019434Y034521D02*
X019934Y034521D01*
X020034Y034421D01*
X020034Y033621D02*
X019934Y033521D01*
X020034Y033421D01*
X019934Y033521D02*
X019434Y033521D01*
X019334Y033421D01*
X019434Y033521D02*
X019334Y033621D01*
X019334Y032621D02*
X019434Y032521D01*
X019334Y032421D01*
X019434Y032521D02*
X019934Y032521D01*
X020034Y032421D01*
X019934Y032521D02*
X020034Y032621D01*
X020034Y031621D02*
X019934Y031521D01*
X020034Y031421D01*
X019934Y031521D02*
X019434Y031521D01*
X019334Y031421D01*
X019434Y031521D02*
X019334Y031621D01*
X019334Y030621D02*
X019434Y030521D01*
X019934Y030521D01*
X020034Y030621D01*
X019334Y028371D02*
X019434Y028271D01*
X019434Y027771D01*
X019334Y027671D01*
X018534Y027671D02*
X018434Y027771D01*
X018334Y027671D01*
X018434Y027771D02*
X018434Y028271D01*
X018534Y028371D01*
X018434Y028271D02*
X018334Y028371D01*
X017534Y028371D02*
X017434Y028271D01*
X017334Y028371D01*
X017434Y028271D02*
X017434Y027771D01*
X017534Y027671D01*
X017434Y027771D02*
X017334Y027671D01*
X016534Y027671D02*
X016434Y027771D01*
X016334Y027671D01*
X016434Y027771D02*
X016434Y028271D01*
X016534Y028371D01*
X016434Y028271D02*
X016334Y028371D01*
X015534Y028371D02*
X015434Y028271D01*
X015434Y027771D01*
X015534Y027671D01*
X015434Y029896D02*
X014934Y029896D01*
X014834Y029996D01*
X015434Y029896D02*
X015534Y029996D01*
X015534Y030796D02*
X015434Y030896D01*
X015534Y030996D01*
X015434Y030896D02*
X014934Y030896D01*
X014834Y030796D01*
X014934Y030896D02*
X014834Y030996D01*
X014834Y031796D02*
X014934Y031896D01*
X014834Y031996D01*
X014934Y031896D02*
X015434Y031896D01*
X015534Y031796D01*
X015434Y031896D02*
X015534Y031996D01*
X015534Y032796D02*
X015434Y032896D01*
X015534Y032996D01*
X015434Y032896D02*
X014934Y032896D01*
X014834Y032796D01*
X014934Y032896D02*
X014834Y032996D01*
X014834Y033796D02*
X014934Y033896D01*
X015434Y033896D01*
X015534Y033796D01*
X022459Y030931D02*
X022459Y030873D01*
X022518Y030815D01*
X022634Y030815D01*
X022693Y030756D01*
X022693Y030698D01*
X022634Y030640D01*
X022518Y030640D01*
X022459Y030698D01*
X022459Y030931D02*
X022518Y030990D01*
X022634Y030990D01*
X022693Y030931D01*
X023551Y040517D02*
X023755Y040517D01*
X023755Y040962D02*
X023551Y040962D01*
X018947Y009346D02*
X018047Y009346D01*
X018047Y009146D01*
X018947Y009146D01*
X019097Y009146D01*
X018947Y009146D02*
X018947Y009346D01*
X018947Y009146D02*
X018947Y008946D01*
X018047Y008946D01*
X018047Y009146D01*
X017897Y009146D01*
X010849Y008556D02*
X010645Y008556D01*
X010645Y008111D02*
X010849Y008111D01*
D13*
X009227Y008978D02*
X008766Y009285D01*
X008843Y009439D02*
X009150Y009439D01*
X009227Y009515D01*
X009227Y009669D01*
X009150Y009746D01*
X008997Y009746D01*
X008997Y009592D01*
X008843Y009439D02*
X008766Y009515D01*
X008766Y009669D01*
X008843Y009746D01*
X009227Y009285D02*
X008766Y008978D01*
X010170Y017885D02*
X010170Y018345D01*
X010017Y018345D02*
X010324Y018345D01*
X010477Y018192D02*
X010784Y017885D01*
X010477Y017885D02*
X010784Y018192D01*
X015107Y018396D02*
X016887Y018396D01*
X016887Y016896D02*
X015107Y016896D01*
X019045Y014970D02*
X019045Y014510D01*
X019275Y014510D01*
X019352Y014586D01*
X019352Y014893D01*
X019275Y014970D01*
X019045Y014970D01*
X019505Y014893D02*
X019505Y014586D01*
X019582Y014510D01*
X019736Y014510D01*
X019812Y014586D01*
X019966Y014740D02*
X020273Y014740D01*
X019812Y014893D02*
X019736Y014970D01*
X019582Y014970D01*
X019505Y014893D01*
X019213Y011407D02*
X019213Y011101D01*
X019060Y010947D01*
X018906Y011101D01*
X018906Y011407D01*
X018753Y011331D02*
X018753Y011254D01*
X018676Y011177D01*
X018753Y011101D01*
X018753Y011024D01*
X018676Y010947D01*
X018523Y010947D01*
X018446Y011024D01*
X018292Y010947D02*
X017986Y011407D01*
X018292Y011407D02*
X017986Y010947D01*
X018446Y011331D02*
X018523Y011407D01*
X018676Y011407D01*
X018753Y011331D01*
X018676Y011177D02*
X018599Y011177D01*
X018560Y006751D02*
X018406Y006751D01*
X018329Y006674D01*
X018483Y006521D02*
X018560Y006521D01*
X018636Y006444D01*
X018636Y006368D01*
X018560Y006291D01*
X018406Y006291D01*
X018329Y006368D01*
X018560Y006521D02*
X018636Y006598D01*
X018636Y006674D01*
X018560Y006751D01*
X018790Y006751D02*
X018790Y006444D01*
X018943Y006291D01*
X019097Y006444D01*
X019097Y006751D01*
X019250Y006674D02*
X019327Y006751D01*
X019480Y006751D01*
X019557Y006674D01*
X019557Y006598D01*
X019480Y006521D01*
X019557Y006444D01*
X019557Y006368D01*
X019480Y006291D01*
X019327Y006291D01*
X019250Y006368D01*
X019404Y006521D02*
X019480Y006521D01*
X024167Y013697D02*
X024397Y013697D01*
X024474Y013774D01*
X024474Y014081D01*
X024397Y014157D01*
X024167Y014157D01*
X024167Y013697D01*
X024627Y013774D02*
X024704Y013697D01*
X024857Y013697D01*
X024934Y013774D01*
X025088Y013927D02*
X025395Y013927D01*
X025241Y014081D02*
X025241Y013774D01*
X024934Y014081D02*
X024857Y014157D01*
X024704Y014157D01*
X024627Y014081D01*
X024627Y013774D01*
X025622Y013193D02*
X025622Y014973D01*
X027122Y014973D02*
X027122Y013193D01*
X026084Y027947D02*
X026177Y028040D01*
X026177Y028134D01*
X026084Y028227D01*
X025883Y028227D02*
X025883Y027947D01*
X025976Y027947D02*
X025789Y027947D01*
X025681Y027947D02*
X025495Y027947D01*
X025588Y027947D02*
X025588Y028227D01*
X025495Y028134D01*
X025387Y028087D02*
X025200Y028087D01*
X025340Y028227D01*
X025340Y027947D01*
X024999Y028087D02*
X024905Y028087D01*
X024797Y028134D02*
X024797Y028181D01*
X024751Y028227D01*
X024657Y028227D01*
X024611Y028181D01*
X024503Y028181D02*
X024503Y028134D01*
X024456Y028087D01*
X024503Y028040D01*
X024503Y027994D01*
X024456Y027947D01*
X024363Y027947D01*
X024316Y027994D01*
X024208Y027947D02*
X024208Y028227D01*
X024115Y028134D01*
X024021Y028227D01*
X024021Y027947D01*
X023820Y027947D02*
X023820Y028227D01*
X023727Y028227D02*
X023913Y028227D01*
X023619Y028181D02*
X023572Y028227D01*
X023479Y028227D01*
X023432Y028181D01*
X023432Y028134D01*
X023479Y028087D01*
X023572Y028087D01*
X023619Y028040D01*
X023619Y027994D01*
X023572Y027947D01*
X023479Y027947D01*
X023432Y027994D01*
X023329Y027947D02*
X023236Y028040D01*
X023236Y028134D01*
X023329Y028227D01*
X024316Y028181D02*
X024363Y028227D01*
X024456Y028227D01*
X024503Y028181D01*
X024456Y028087D02*
X024409Y028087D01*
X024611Y027947D02*
X024797Y028134D01*
X024905Y028227D02*
X025092Y028227D01*
X024905Y028227D02*
X024905Y027947D01*
X024797Y027947D02*
X024611Y027947D01*
X025789Y028134D02*
X025883Y028227D01*
X014289Y027513D02*
X014289Y027359D01*
X014213Y027282D01*
X013906Y027282D01*
X013829Y027359D01*
X013829Y027513D01*
X013906Y027589D01*
X014059Y027743D02*
X014059Y028050D01*
X014059Y028203D02*
X014059Y028510D01*
X013906Y028357D02*
X014213Y028357D01*
X014213Y027896D02*
X013906Y027896D01*
X014213Y027589D02*
X014289Y027513D01*
X014213Y027129D02*
X013906Y027129D01*
X013829Y027052D01*
X013829Y026822D01*
X014289Y026822D01*
X014289Y027052D01*
X014213Y027129D01*
D14*
X010184Y006333D02*
X010184Y005396D01*
X020184Y005396D02*
X020184Y006333D01*
X022184Y005865D02*
X022184Y005396D01*
X023184Y005396D02*
X023184Y006333D01*
X024184Y005896D02*
X024184Y005427D01*
X025184Y005396D02*
X025184Y006333D01*
X026184Y005865D02*
X026184Y005396D01*
X028184Y005396D02*
X028184Y005865D01*
D15*
X028716Y015271D02*
X029184Y015271D01*
X029091Y017677D02*
X029091Y018146D01*
X029309Y017896D02*
X028841Y017896D01*
D16*
X029216Y018740D02*
X009216Y018740D01*
X009216Y020083D01*
X010434Y020083D01*
X011872Y020083D02*
X012809Y020083D01*
X013559Y020083D02*
X016372Y020083D01*
X017122Y020083D02*
X029216Y020083D01*
X029216Y018740D01*
X029184Y024740D02*
X022184Y024740D01*
X021309Y024740D02*
X011903Y024740D01*
X010528Y024740D02*
X009184Y024740D01*
X009184Y026083D01*
X029184Y026083D01*
X029184Y024740D01*
D17*
X025059Y013521D02*
X024559Y013521D01*
X024309Y013271D01*
X024309Y012771D01*
X024559Y012521D01*
X025059Y012521D01*
X025309Y012771D01*
X025309Y013271D01*
X025059Y013521D01*
X024934Y007396D02*
X024684Y007146D01*
X024684Y006646D01*
X024934Y006396D01*
X025434Y006396D01*
X025684Y006646D01*
X025684Y007146D01*
X025434Y007396D01*
X024934Y007396D01*
X023684Y007146D02*
X023684Y006646D01*
X023434Y006396D01*
X022934Y006396D01*
X022684Y006646D01*
X022684Y007146D01*
X022934Y007396D01*
X023434Y007396D01*
X023684Y007146D01*
X020684Y007146D02*
X020684Y006646D01*
X020434Y006396D01*
X019934Y006396D01*
X019684Y006646D01*
X019684Y007146D01*
X019934Y007396D01*
X020434Y007396D01*
X020684Y007146D01*
X017559Y010646D02*
X017809Y010896D01*
X017809Y011396D01*
X017559Y011646D01*
X017059Y011646D01*
X016809Y011396D01*
X016809Y010896D01*
X017059Y010646D01*
X017559Y010646D01*
X019247Y013271D02*
X019747Y013271D01*
X019997Y013521D01*
X019997Y014021D01*
X019747Y014271D01*
X019247Y014271D01*
X018997Y014021D01*
X018997Y013521D01*
X019247Y013271D01*
X011872Y017646D02*
X011622Y017396D01*
X011122Y017396D01*
X010872Y017646D01*
X010872Y018146D01*
X011122Y018396D01*
X011622Y018396D01*
X011872Y018146D01*
X011872Y017646D01*
X012872Y026583D02*
X012622Y026833D01*
X012622Y027333D01*
X012872Y027583D01*
X013372Y027583D01*
X013622Y027333D01*
X013622Y026833D01*
X013372Y026583D01*
X012872Y026583D01*
X012534Y041671D02*
X012434Y041771D01*
X012434Y042271D01*
X012534Y042371D01*
X013334Y042371D02*
X013434Y042271D01*
X013534Y042371D01*
X013434Y042271D02*
X013434Y041771D01*
X013534Y041671D01*
X013434Y041771D02*
X013334Y041671D01*
X014334Y041671D02*
X014434Y041771D01*
X014534Y041671D01*
X014434Y041771D02*
X014434Y042271D01*
X014534Y042371D01*
X014434Y042271D02*
X014334Y042371D01*
X015334Y042371D02*
X015434Y042271D01*
X015534Y042371D01*
X015434Y042271D02*
X015434Y041771D01*
X015534Y041671D01*
X015434Y041771D02*
X015334Y041671D01*
X016334Y041671D02*
X016434Y041771D01*
X016534Y041671D01*
X016434Y041771D02*
X016434Y042271D01*
X016534Y042371D01*
X016434Y042271D02*
X016334Y042371D01*
X017334Y042371D02*
X017434Y042271D01*
X017534Y042371D01*
X017434Y042271D02*
X017434Y041771D01*
X017534Y041671D01*
X017434Y041771D02*
X017334Y041671D01*
X018334Y041671D02*
X018434Y041771D01*
X018434Y042271D01*
X018334Y042371D01*
X019309Y042271D02*
X019309Y041771D01*
X019409Y041671D01*
X019309Y042271D02*
X019409Y042371D01*
X020209Y042371D02*
X020309Y042271D01*
X020409Y042371D01*
X020309Y042271D02*
X020309Y041771D01*
X020409Y041671D01*
X020309Y041771D02*
X020209Y041671D01*
X021209Y041671D02*
X021309Y041771D01*
X021409Y041671D01*
X021309Y041771D02*
X021309Y042271D01*
X021409Y042371D01*
X021309Y042271D02*
X021209Y042371D01*
X022209Y042371D02*
X022309Y042271D01*
X022409Y042371D01*
X022309Y042271D02*
X022309Y041771D01*
X022409Y041671D01*
X022309Y041771D02*
X022209Y041671D01*
X023209Y041671D02*
X023309Y041771D01*
X023409Y041671D01*
X023309Y041771D02*
X023309Y042271D01*
X023409Y042371D01*
X023309Y042271D02*
X023209Y042371D01*
X024209Y042371D02*
X024309Y042271D01*
X024409Y042371D01*
X024309Y042271D02*
X024309Y041771D01*
X024409Y041671D01*
X024309Y041771D02*
X024209Y041671D01*
X025209Y041671D02*
X025309Y041771D01*
X025309Y042271D01*
X025209Y042371D01*
X009434Y008833D02*
X008934Y008833D01*
X008684Y008583D01*
X008684Y008083D01*
X008934Y007833D01*
X009434Y007833D01*
X009684Y008083D01*
X009684Y008583D01*
X009434Y008833D01*
X009934Y007396D02*
X009684Y007146D01*
X009684Y006646D01*
X009934Y006396D01*
X010434Y006396D01*
X010684Y006646D01*
X010684Y007146D01*
X010434Y007396D01*
X009934Y007396D01*
D18*
X012554Y010655D02*
X016565Y010655D01*
X012384Y012659D02*
X012384Y017383D01*
X010723Y017383D01*
X008759Y017396D02*
X005684Y017396D01*
X005684Y012621D01*
X008759Y012621D01*
X010723Y012659D02*
X012384Y012659D01*
X014165Y016553D02*
X014167Y016575D01*
X014173Y016597D01*
X014182Y016617D01*
X014195Y016635D01*
X014211Y016651D01*
X014229Y016664D01*
X014249Y016673D01*
X014271Y016679D01*
X014293Y016681D01*
X014315Y016679D01*
X014337Y016673D01*
X014357Y016664D01*
X014375Y016651D01*
X014391Y016635D01*
X014404Y016617D01*
X014413Y016597D01*
X014419Y016575D01*
X014421Y016553D01*
X014419Y016531D01*
X014413Y016509D01*
X014404Y016489D01*
X014391Y016471D01*
X014375Y016455D01*
X014357Y016442D01*
X014337Y016433D01*
X014315Y016427D01*
X014293Y016425D01*
X014271Y016427D01*
X014249Y016433D01*
X014229Y016442D01*
X014211Y016455D01*
X014195Y016471D01*
X014182Y016489D01*
X014173Y016509D01*
X014167Y016531D01*
X014165Y016553D01*
X015721Y017252D02*
X015721Y018040D01*
X016274Y017646D01*
X015721Y017252D01*
X025978Y013807D02*
X026766Y013807D01*
X026372Y014360D01*
X025978Y013807D01*
D19*
X015899Y010951D03*
X015229Y010951D03*
X014559Y010951D03*
X013889Y010951D03*
X013219Y010951D03*
D20*
X021889Y010444D03*
X021889Y013756D03*
D21*
X016915Y013642D02*
X016955Y013642D01*
X016954Y013641D02*
X016956Y013581D01*
X016962Y013522D01*
X016973Y013463D01*
X016986Y013404D01*
X017004Y013347D01*
X017025Y013291D01*
X017050Y013237D01*
X017079Y013184D01*
X017110Y013133D01*
X017145Y013085D01*
X017184Y013039D01*
X017225Y012995D01*
X017268Y012954D01*
X017315Y012916D01*
X017364Y012882D01*
X017414Y012850D01*
X017467Y012822D01*
X017522Y012797D01*
X017578Y012776D01*
X017635Y012759D01*
X017694Y012746D01*
X017753Y012736D01*
X017812Y012730D01*
X017872Y012728D01*
X017932Y012730D01*
X017991Y012736D01*
X018050Y012746D01*
X018109Y012759D01*
X018166Y012776D01*
X018222Y012797D01*
X018277Y012822D01*
X018330Y012850D01*
X018380Y012882D01*
X018429Y012916D01*
X018476Y012954D01*
X018519Y012995D01*
X018560Y013039D01*
X018599Y013085D01*
X018634Y013133D01*
X018665Y013184D01*
X018694Y013237D01*
X018719Y013291D01*
X018740Y013347D01*
X018758Y013404D01*
X018771Y013463D01*
X018782Y013522D01*
X018788Y013581D01*
X018790Y013641D01*
X018829Y013642D01*
X018830Y013641D01*
X018828Y013580D01*
X018822Y013519D01*
X018811Y013459D01*
X018798Y013399D01*
X018780Y013340D01*
X018759Y013283D01*
X018734Y013227D01*
X018705Y013173D01*
X018673Y013121D01*
X018638Y013071D01*
X018600Y013023D01*
X018558Y012978D01*
X018514Y012935D01*
X018468Y012896D01*
X018418Y012859D01*
X018367Y012826D01*
X018314Y012796D01*
X018259Y012769D01*
X018202Y012747D01*
X018144Y012727D01*
X018084Y012712D01*
X018024Y012700D01*
X017964Y012692D01*
X017903Y012688D01*
X017841Y012688D01*
X017780Y012692D01*
X017720Y012700D01*
X017660Y012712D01*
X017600Y012727D01*
X017542Y012747D01*
X017485Y012769D01*
X017430Y012796D01*
X017377Y012826D01*
X017326Y012859D01*
X017276Y012896D01*
X017230Y012935D01*
X017186Y012978D01*
X017144Y013023D01*
X017106Y013071D01*
X017071Y013121D01*
X017039Y013173D01*
X017010Y013227D01*
X016985Y013283D01*
X016964Y013340D01*
X016946Y013399D01*
X016933Y013459D01*
X016922Y013519D01*
X016916Y013580D01*
X016914Y013641D01*
X016923Y013641D01*
X016925Y013580D01*
X016931Y013520D01*
X016941Y013460D01*
X016955Y013401D01*
X016973Y013343D01*
X016994Y013286D01*
X017019Y013231D01*
X017047Y013177D01*
X017078Y013126D01*
X017113Y013076D01*
X017151Y013029D01*
X017192Y012984D01*
X017236Y012942D01*
X017282Y012903D01*
X017331Y012867D01*
X017382Y012834D01*
X017434Y012804D01*
X017489Y012778D01*
X017545Y012755D01*
X017603Y012736D01*
X017662Y012721D01*
X017721Y012709D01*
X017781Y012701D01*
X017842Y012697D01*
X017902Y012697D01*
X017963Y012701D01*
X018023Y012709D01*
X018082Y012721D01*
X018141Y012736D01*
X018199Y012755D01*
X018255Y012778D01*
X018310Y012804D01*
X018362Y012834D01*
X018413Y012867D01*
X018462Y012903D01*
X018508Y012942D01*
X018552Y012984D01*
X018593Y013029D01*
X018631Y013076D01*
X018666Y013126D01*
X018697Y013177D01*
X018725Y013231D01*
X018750Y013286D01*
X018771Y013343D01*
X018789Y013401D01*
X018803Y013460D01*
X018813Y013520D01*
X018819Y013580D01*
X018821Y013641D01*
X018812Y013641D01*
X018810Y013581D01*
X018804Y013521D01*
X018794Y013462D01*
X018780Y013404D01*
X018763Y013346D01*
X018742Y013290D01*
X018717Y013235D01*
X018689Y013182D01*
X018658Y013131D01*
X018624Y013081D01*
X018586Y013035D01*
X018545Y012990D01*
X018502Y012949D01*
X018456Y012910D01*
X018408Y012874D01*
X018358Y012841D01*
X018305Y012812D01*
X018251Y012786D01*
X018196Y012763D01*
X018139Y012745D01*
X018080Y012729D01*
X018022Y012718D01*
X017962Y012710D01*
X017902Y012706D01*
X017842Y012706D01*
X017782Y012710D01*
X017722Y012718D01*
X017664Y012729D01*
X017605Y012745D01*
X017548Y012763D01*
X017493Y012786D01*
X017439Y012812D01*
X017386Y012841D01*
X017336Y012874D01*
X017288Y012910D01*
X017242Y012949D01*
X017199Y012990D01*
X017158Y013035D01*
X017120Y013081D01*
X017086Y013131D01*
X017055Y013182D01*
X017027Y013235D01*
X017002Y013290D01*
X016981Y013346D01*
X016964Y013404D01*
X016950Y013462D01*
X016940Y013521D01*
X016934Y013581D01*
X016932Y013641D01*
X016941Y013641D01*
X016943Y013580D01*
X016950Y013520D01*
X016960Y013460D01*
X016974Y013401D01*
X016992Y013343D01*
X017013Y013286D01*
X017039Y013231D01*
X017067Y013178D01*
X017100Y013126D01*
X017135Y013077D01*
X017174Y013030D01*
X017215Y012986D01*
X017260Y012945D01*
X017307Y012906D01*
X017356Y012871D01*
X017408Y012839D01*
X017462Y012810D01*
X017517Y012785D01*
X017574Y012764D01*
X017632Y012747D01*
X017691Y012733D01*
X017751Y012723D01*
X017811Y012717D01*
X017872Y012715D01*
X017933Y012717D01*
X017993Y012723D01*
X018053Y012733D01*
X018112Y012747D01*
X018170Y012764D01*
X018227Y012785D01*
X018282Y012810D01*
X018336Y012839D01*
X018388Y012871D01*
X018437Y012906D01*
X018484Y012945D01*
X018529Y012986D01*
X018570Y013030D01*
X018609Y013077D01*
X018644Y013126D01*
X018677Y013178D01*
X018705Y013231D01*
X018731Y013286D01*
X018752Y013343D01*
X018770Y013401D01*
X018784Y013460D01*
X018794Y013520D01*
X018801Y013580D01*
X018803Y013641D01*
X018794Y013641D01*
X018792Y013581D01*
X018786Y013521D01*
X018775Y013462D01*
X018761Y013403D01*
X018744Y013346D01*
X018722Y013290D01*
X018697Y013235D01*
X018669Y013182D01*
X018637Y013131D01*
X018602Y013082D01*
X018563Y013036D01*
X018522Y012992D01*
X018478Y012951D01*
X018432Y012913D01*
X018383Y012878D01*
X018332Y012847D01*
X018278Y012818D01*
X018224Y012794D01*
X018167Y012773D01*
X018110Y012755D01*
X018051Y012742D01*
X017992Y012732D01*
X017932Y012726D01*
X017872Y012724D01*
X017812Y012726D01*
X017752Y012732D01*
X017693Y012742D01*
X017634Y012755D01*
X017577Y012773D01*
X017520Y012794D01*
X017466Y012818D01*
X017412Y012847D01*
X017361Y012878D01*
X017312Y012913D01*
X017266Y012951D01*
X017222Y012992D01*
X017181Y013036D01*
X017142Y013082D01*
X017107Y013131D01*
X017075Y013182D01*
X017047Y013235D01*
X017022Y013290D01*
X017000Y013346D01*
X016983Y013403D01*
X016969Y013462D01*
X016958Y013521D01*
X016952Y013581D01*
X016950Y013641D01*
X018829Y016150D02*
X018789Y016150D01*
X018790Y016151D02*
X018788Y016211D01*
X018782Y016270D01*
X018771Y016329D01*
X018758Y016388D01*
X018740Y016445D01*
X018719Y016501D01*
X018694Y016555D01*
X018665Y016608D01*
X018634Y016659D01*
X018599Y016707D01*
X018560Y016753D01*
X018519Y016797D01*
X018476Y016838D01*
X018429Y016876D01*
X018380Y016910D01*
X018330Y016942D01*
X018277Y016970D01*
X018222Y016995D01*
X018166Y017016D01*
X018109Y017033D01*
X018050Y017046D01*
X017991Y017056D01*
X017932Y017062D01*
X017872Y017064D01*
X017812Y017062D01*
X017753Y017056D01*
X017694Y017046D01*
X017635Y017033D01*
X017578Y017016D01*
X017522Y016995D01*
X017467Y016970D01*
X017414Y016942D01*
X017364Y016910D01*
X017315Y016876D01*
X017268Y016838D01*
X017225Y016797D01*
X017184Y016753D01*
X017145Y016707D01*
X017110Y016659D01*
X017079Y016608D01*
X017050Y016555D01*
X017025Y016501D01*
X017004Y016445D01*
X016986Y016388D01*
X016973Y016329D01*
X016962Y016270D01*
X016956Y016211D01*
X016954Y016151D01*
X016915Y016150D01*
X016914Y016151D01*
X016916Y016212D01*
X016922Y016273D01*
X016933Y016333D01*
X016946Y016393D01*
X016964Y016452D01*
X016985Y016509D01*
X017010Y016565D01*
X017039Y016619D01*
X017071Y016671D01*
X017106Y016721D01*
X017144Y016769D01*
X017186Y016814D01*
X017230Y016857D01*
X017276Y016896D01*
X017326Y016933D01*
X017377Y016966D01*
X017430Y016996D01*
X017485Y017023D01*
X017542Y017045D01*
X017600Y017065D01*
X017660Y017080D01*
X017720Y017092D01*
X017780Y017100D01*
X017841Y017104D01*
X017903Y017104D01*
X017964Y017100D01*
X018024Y017092D01*
X018084Y017080D01*
X018144Y017065D01*
X018202Y017045D01*
X018259Y017023D01*
X018314Y016996D01*
X018367Y016966D01*
X018418Y016933D01*
X018468Y016896D01*
X018514Y016857D01*
X018558Y016814D01*
X018600Y016769D01*
X018638Y016721D01*
X018673Y016671D01*
X018705Y016619D01*
X018734Y016565D01*
X018759Y016509D01*
X018780Y016452D01*
X018798Y016393D01*
X018811Y016333D01*
X018822Y016273D01*
X018828Y016212D01*
X018830Y016151D01*
X018821Y016151D01*
X018819Y016212D01*
X018813Y016272D01*
X018803Y016332D01*
X018789Y016391D01*
X018771Y016449D01*
X018750Y016506D01*
X018725Y016561D01*
X018697Y016615D01*
X018666Y016666D01*
X018631Y016716D01*
X018593Y016763D01*
X018552Y016808D01*
X018508Y016850D01*
X018462Y016889D01*
X018413Y016925D01*
X018362Y016958D01*
X018310Y016988D01*
X018255Y017014D01*
X018199Y017037D01*
X018141Y017056D01*
X018082Y017071D01*
X018023Y017083D01*
X017963Y017091D01*
X017902Y017095D01*
X017842Y017095D01*
X017781Y017091D01*
X017721Y017083D01*
X017662Y017071D01*
X017603Y017056D01*
X017545Y017037D01*
X017489Y017014D01*
X017434Y016988D01*
X017382Y016958D01*
X017331Y016925D01*
X017282Y016889D01*
X017236Y016850D01*
X017192Y016808D01*
X017151Y016763D01*
X017113Y016716D01*
X017078Y016666D01*
X017047Y016615D01*
X017019Y016561D01*
X016994Y016506D01*
X016973Y016449D01*
X016955Y016391D01*
X016941Y016332D01*
X016931Y016272D01*
X016925Y016212D01*
X016923Y016151D01*
X016932Y016151D01*
X016934Y016211D01*
X016940Y016271D01*
X016950Y016330D01*
X016964Y016388D01*
X016981Y016446D01*
X017002Y016502D01*
X017027Y016557D01*
X017055Y016610D01*
X017086Y016661D01*
X017120Y016711D01*
X017158Y016757D01*
X017199Y016802D01*
X017242Y016843D01*
X017288Y016882D01*
X017336Y016918D01*
X017386Y016951D01*
X017439Y016980D01*
X017493Y017006D01*
X017548Y017029D01*
X017605Y017047D01*
X017664Y017063D01*
X017722Y017074D01*
X017782Y017082D01*
X017842Y017086D01*
X017902Y017086D01*
X017962Y017082D01*
X018022Y017074D01*
X018080Y017063D01*
X018139Y017047D01*
X018196Y017029D01*
X018251Y017006D01*
X018305Y016980D01*
X018358Y016951D01*
X018408Y016918D01*
X018456Y016882D01*
X018502Y016843D01*
X018545Y016802D01*
X018586Y016757D01*
X018624Y016711D01*
X018658Y016661D01*
X018689Y016610D01*
X018717Y016557D01*
X018742Y016502D01*
X018763Y016446D01*
X018780Y016388D01*
X018794Y016330D01*
X018804Y016271D01*
X018810Y016211D01*
X018812Y016151D01*
X018803Y016151D01*
X018801Y016212D01*
X018794Y016272D01*
X018784Y016332D01*
X018770Y016391D01*
X018752Y016449D01*
X018731Y016506D01*
X018705Y016561D01*
X018677Y016614D01*
X018644Y016666D01*
X018609Y016715D01*
X018570Y016762D01*
X018529Y016806D01*
X018484Y016847D01*
X018437Y016886D01*
X018388Y016921D01*
X018336Y016953D01*
X018282Y016982D01*
X018227Y017007D01*
X018170Y017028D01*
X018112Y017045D01*
X018053Y017059D01*
X017993Y017069D01*
X017933Y017075D01*
X017872Y017077D01*
X017811Y017075D01*
X017751Y017069D01*
X017691Y017059D01*
X017632Y017045D01*
X017574Y017028D01*
X017517Y017007D01*
X017462Y016982D01*
X017408Y016953D01*
X017356Y016921D01*
X017307Y016886D01*
X017260Y016847D01*
X017215Y016806D01*
X017174Y016762D01*
X017135Y016715D01*
X017100Y016666D01*
X017067Y016614D01*
X017039Y016561D01*
X017013Y016506D01*
X016992Y016449D01*
X016974Y016391D01*
X016960Y016332D01*
X016950Y016272D01*
X016943Y016212D01*
X016941Y016151D01*
X016950Y016151D01*
X016952Y016211D01*
X016958Y016271D01*
X016969Y016330D01*
X016983Y016389D01*
X017000Y016446D01*
X017022Y016502D01*
X017047Y016557D01*
X017075Y016610D01*
X017107Y016661D01*
X017142Y016710D01*
X017181Y016756D01*
X017222Y016800D01*
X017266Y016841D01*
X017312Y016879D01*
X017361Y016914D01*
X017412Y016945D01*
X017466Y016974D01*
X017520Y016998D01*
X017577Y017019D01*
X017634Y017037D01*
X017693Y017050D01*
X017752Y017060D01*
X017812Y017066D01*
X017872Y017068D01*
X017932Y017066D01*
X017992Y017060D01*
X018051Y017050D01*
X018110Y017037D01*
X018167Y017019D01*
X018224Y016998D01*
X018278Y016974D01*
X018332Y016945D01*
X018383Y016914D01*
X018432Y016879D01*
X018478Y016841D01*
X018522Y016800D01*
X018563Y016756D01*
X018602Y016710D01*
X018637Y016661D01*
X018669Y016610D01*
X018697Y016557D01*
X018722Y016502D01*
X018744Y016446D01*
X018761Y016389D01*
X018775Y016330D01*
X018786Y016271D01*
X018792Y016211D01*
X018794Y016151D01*
D22*
X014834Y021271D03*
M02*
